<svg class="canvas" viewBox="0 0 1920 1080" preserveAspectRatio="xMaxYMid slice"
    xmlns="http://www.w3.org/2000/svg" version="1.1"
    xmlns:xlink="http://www.w3.org/1999/xlink"
    xmlns:svgjs="http://svgjs.com/svgjs">
    <rect width="1920" height="1080" fill="hsl(199, 65%, 15%)"></rect>
    <defs>
        <linearGradient x1="0.5" y1="0" x2="0" y2="1" id="SvgjsLinearGradient1084">
            <stop stop-color="#c4eeea" offset="0"></stop>
            <stop stop-color="#4d58cb" offset="0.1"></stop>
        </linearGradient>
        <linearGradient x1="0.5" y1="0" x2="0" y2="1" id="SvgjsLinearGradient1085">
            <stop stop-color="#c4e9ee" offset="0"></stop>
            <stop stop-color="#5c4dcb" offset="0.22857142857142856"></stop>
        </linearGradient>
        <linearGradient x1="0.5" y1="0" x2="0" y2="1" id="SvgjsLinearGradient1086">
            <stop stop-color="#c4eeea" offset="0"></stop>
            <stop stop-color="#4d58cb" offset="0.3571428571428571"></stop>
        </linearGradient>
        <linearGradient x1="0.5" y1="0" x2="0" y2="1" id="SvgjsLinearGradient1087">
            <stop stop-color="#c0ecf2" offset="0"></stop>
            <stop stop-color="#5342d7" offset="0.48571428571428565"></stop>
        </linearGradient>
        <linearGradient x1="0.5" y1="0" x2="0" y2="1" id="SvgjsLinearGradient1088">
            <stop stop-color="#c0f2e4" offset="0"></stop>
            <stop stop-color="#426cd7" offset="0.6142857142857142"></stop>
        </linearGradient>
        <linearGradient x1="0.5" y1="0" x2="0" y2="1" id="SvgjsLinearGradient1089">
            <stop stop-color="#c0ecf2" offset="0"></stop>
            <stop stop-color="#5342d7" offset="0.7428571428571429"></stop>
        </linearGradient>
        <linearGradient x1="0.5" y1="0" x2="0" y2="1" id="SvgjsLinearGradient1090">
            <stop stop-color="#c0f2e4" offset="0"></stop>
            <stop stop-color="#426cd7" offset="0.8714285714285713"></stop>
        </linearGradient>
    </defs>
    <path d="M0,-543.938339361829C46.80389080556676,-530.0543544235226,191.1256258543525,-486.680698007949,280.82334483340054,-460.6344297319905C370.5210638124486,-434.588161456032,444.50948720637206,-410.29410268375455,538.1863138742882,-387.660729706078C631.8631405422043,-365.0273567284014,754.873162515302,-345.12061369961367,842.8843048408972,-324.834191865931C930.8954471664924,-304.54777003224837,983.1707607506793,-287.6425104412088,1066.2531678278594,-265.94219870398217C1149.3355749050397,-244.24188696675554,1247.0448412071348,-225.9547248205086,1341.3787473039783,-194.6323214425712C1435.7126534008219,-163.3099180646338,1535.819728959584,-109.7901087831482,1632.2566044089208,-78.00777843635782C1728.6934798582577,-46.22544808956745,1872.0427674014868,-16.28324587425047,1920,-3.9383393618289944L 1920 1080 L 0 1080 Z" fill="url(#SvgjsLinearGradient1084)"></path>
    <path d="M0,-416.37984964111547C48.41566504366086,-402.1558485375716,197.03712831670782,-361.43841171497996,290.49399026196517,-331.0358430198523C383.9508522072225,-300.6332743247246,471.11644059811516,-255.86170519835719,560.7411716715441,-233.9644374703494C650.3659027449729,-212.0671697423416,737.8048105109808,-216.0050476505029,828.2423767025384,-199.6522366518056C918.679942894096,-183.2994256531083,1012.7148498729316,-169.090941197648,1103.3665688208896,-135.84757147816566C1194.0182877688476,-102.60420175868333,1285.4503060250124,-27.92096376533951,1372.1526903902861,-0.1920183349116371C1458.8550747555598,27.536927095516237,1532.2729900775798,7.5097872744831875,1623.580875012532,30.5261011044016C1714.8887599474842,53.542414934320014,1870.5968125020886,120.0092373878993,1920,137.90586464459884L 1920 1080 L 0 1080 Z" fill="url(#SvgjsLinearGradient1085)"></path>
    <path d="M0,-239.63012873838125C60.273909755121196,-222.89075536546144,250.2663770911774,-171.95281383368692,361.6434585307272,-139.19388850086239C473.02053997027696,-106.43496316803785,575.9283329736074,-77.49314980288423,668.2624886372986,-43.076576741434096C760.5966443009897,-8.660003679983951,808.2474681347521,29.299879342317972,915.6483925128739,67.3055498678385C1023.0493168909957,105.31122039335901,1198.2101452009588,160.8395151256041,1312.6680349060293,184.95744641168903C1427.1259246111,209.07537769777397,1501.1737365609683,188.01582868078836,1602.3957307432968,212.01313758434807C1703.6177249256252,236.01044648790779,1867.0659551238828,309.4532727915975,1920,328.94129983304737L 1920 1080 L 0 1080 Z" fill="url(#SvgjsLinearGradient1086)"></path>
    <path d="M0,-115.56194562742859C45.7321533022299,-102.1284382180856,183.20170165534813,-64.17498444210456,274.39291981337936,-34.96090117137074C365.5841379714106,-5.74681790063693,450.8242946731529,34.617186771377675,547.1473089481873,59.72255399697431C643.4703232232217,84.82792122257095,756.6578691936616,88.44772236094623,852.3310054635857,115.67130218220905C948.0041417335099,142.89488200347188,1029.1340938773137,191.96870729655845,1121.1861265677321,223.0640329245512C1213.2381592581505,254.15935855254398,1319.8610053284633,274.23888727252114,1404.6432016060962,302.2432559501656C1489.4253978837291,330.24762462781,1543.9865045012127,363.58158811049304,1629.87930423353,391.09024499041783C1715.7721039658475,418.5989018703426,1871.6465507055884,454.59437185649824,1920,467.2951972297143L 1920 1080 L 0 1080 Z" fill="url(#SvgjsLinearGradient1087)"></path>
    <path d="M0,-53.72960243016847C44.412131995919175,-45.20139445918423,165.78563041857632,-29.282328957851288,266.47279197551507,-2.560354604263047C367.1599535324538,24.161619749325194,489.28414733613636,69.22481812931153,604.1229693416324,106.60224369136097C718.9617913471284,143.9796692534104,847.6486353191402,182.35030494804582,955.505724008491,221.70419876803356C1063.3628126978417,261.0580925880213,1152.5265772792347,300.1248455522783,1251.265501477737,342.7256066112874C1350.0044256762392,385.32636767029646,1436.4835194457942,443.8608237718545,1547.9392691995047,477.30876512208806C1659.3950189532152,510.75670647232164,1857.9898781999175,532.395839780922,1920,543.4132547126887L 1920 1080 L 0 1080 Z" fill="url(#SvgjsLinearGradient1088)"></path>
    <path d="M0,149.19609671591516C49.30208159945506,169.71879672143314,195.86792290424353,239.14855262165747,295.81248959673036,272.332296749023C395.7570562892172,305.5160408763885,482.1267657818077,318.44184938007373,599.6674001549211,348.2985614801083C717.2080345280344,378.1552735801428,888.3918344898664,414.0634434362704,1001.0562958354107,451.47256934923035C1113.720757180955,488.8816952621903,1175.3652123162371,541.4596669609654,1275.6541682281868,572.7533169578678C1375.9431241401364,604.0469669547703,1495.3990593451401,607.9225774662084,1602.790031307109,639.2344693306449C1710.181003269078,670.5463611950813,1867.1316718845183,740.3929683421796,1920,760.6246681444866L 1920 1080 L 0 1080 Z" fill="url(#SvgjsLinearGradient1089)"></path>
    <path d="M0,214.47283337434388C69.21193818978107,240.27775195966547,287.7849015564468,331.9078467662603,415.2716291386864,369.30234488627343C542.758356720926,406.69684300628654,647.4113630473629,405.10699970981307,764.9203654934375,438.8398220944226C882.4293679395122,472.5726444790321,992.4985021925213,530.0224421073111,1120.325643815134,571.6992791939304C1248.1527854377468,613.3761162805496,1398.60415586497,644.1528712983545,1531.8832152291143,688.9008446141377C1665.1622745932586,733.6488179299208,1855.3138692048524,814.9727400095476,1920,840.1871190886296L 1920 1080 L 0 1080 Z" fill="url(#SvgjsLinearGradient1090)"></path>
</svg>