<svg class="canvas" viewBox="0 0 1920 1080" preserveAspectRatio="xMaxYMid slice"
    xmlns="http://www.w3.org/2000/svg" version="1.1"
    xmlns:xlink="http://www.w3.org/1999/xlink"
    xmlns:svgjs="http://svgjs.com/svgjs">
    <rect width="1920" height="1080" fill="hsl(266, 65%, 15%)"></rect>
    <defs>
        <linearGradient x1="0.5" y1="0" x2="0" y2="1" id="SvgjsLinearGradient1077">
            <stop stop-color="#66288a" offset="0"></stop>
            <stop stop-color="#FFE8D4" offset="0.1"></stop>
        </linearGradient>
        <linearGradient x1="0.5" y1="0" x2="0" y2="1" id="SvgjsLinearGradient1078">
            <stop stop-color="#7a288a" offset="0"></stop>
            <stop stop-color="#FFE8D4" offset="0.22857142857142856"></stop>
        </linearGradient>
        <linearGradient x1="0.5" y1="0" x2="0" y2="1" id="SvgjsLinearGradient1079">
            <stop stop-color="#3f288a" offset="0"></stop>
            <stop stop-color="#FFE8D4" offset="0.3571428571428571"></stop>
        </linearGradient>
        <linearGradient x1="0.5" y1="0" x2="0" y2="1" id="SvgjsLinearGradient1080">
            <stop stop-color="#c2c0f2" offset="0"></stop>
            <stop stop-color="#d742d2" offset="0.48571428571428565"></stop>
        </linearGradient>
        <linearGradient x1="0.5" y1="0" x2="0" y2="1" id="SvgjsLinearGradient1081">
            <stop stop-color="#d5c0f2" offset="0"></stop>
            <stop stop-color="#d74296" offset="0.6142857142857142"></stop>
        </linearGradient>
        <linearGradient x1="0.5" y1="0" x2="0" y2="1" id="SvgjsLinearGradient1082">
            <stop stop-color="#d5c0f2" offset="0"></stop>
            <stop stop-color="#d74296" offset="0.7428571428571429"></stop>
        </linearGradient>
        <linearGradient x1="0.5" y1="0" x2="0" y2="1" id="SvgjsLinearGradient1083">
            <stop stop-color="#c2c0f2" offset="0"></stop>
            <stop stop-color="#d742d2" offset="0.8714285714285713"></stop>
        </linearGradient>
    </defs>
    <path d="M0,-562.6114699938732C51.33119662292936,-554.4017259326033,221.42532848252108,-537.5850321116385,307.9871797375762,-513.3530056262535C394.5490309926313,-489.12097914086866,430.5077251610066,-448.4949420101945,519.3711075303307,-417.2193110815638C608.2344898996548,-385.94368015293304,747.1218413581705,-346.8387036776159,841.1674739535209,-325.69922005446904C935.2131065488713,-304.55973643132216,995.6779740106252,-310.1627696902917,1083.644903102433,-290.3824093426825C1171.6118321942408,-270.60204899507323,1280.0109001204278,-244.33124443362902,1368.969048504368,-207.01705796881353C1457.9271968883081,-169.70287150399804,1525.5553014901357,-97.23155521627962,1617.3937934060743,-66.49729055378958C1709.232285322013,-35.76302589129955,1869.5656322343457,-29.925773420526006,1920,-22.61146999387329L 1920 1080 L 0 1080 Z" fill="url(#SvgjsLinearGradient1077)" style="transform: translate(0px, 0px);"></path>
    <path d="M0,-409.0905876588061C45.93244084112542,-401.26086232210764,186.45519466394654,-382.3178777784885,275.59464504675253,-362.11223563861546C364.7340954295585,-341.90659349874244,448.1242367276465,-321.3350288175067,534.8367022968358,-287.8567348195681C621.5491678660251,-254.37844082162945,706.9506604907149,-198.72418708162886,795.8694384618883,-161.2424716509837C884.7882164330617,-123.76075622033855,969.0339190134682,-86.34363059209075,1068.349370123876,-62.96644223569719C1167.6648212342839,-39.58925387930363,1298.7507705014627,-47.17424872892299,1391.7621451243356,-20.979341512622327C1484.7735197472084,5.215565703678333,1538.3779753818358,66.50725637218501,1626.4176178611133,94.20300106210676C1714.4572603403908,121.89874575202852,1871.0696029768521,136.69643903277463,1920,145.1951266269082L 1920 1080 L 0 1080 Z" fill="url(#SvgjsLinearGradient1078)" style="transform: translate(11.2617px, 12.8571px);"></path>
    <path d="M0,-316.07201329666617C68.76503533928205,-289.47812590006504,275.1726644966758,-198.56602060897944,412.5902120356923,-156.5086889170595C550.0077595747088,-114.45135722513953,691.7212226615375,-96.67141693755329,824.5052852340991,-63.72802314514639C957.2893478066608,-30.784629352739486,1098.9464119564989,-2.162963541872095,1209.2945874710622,41.151673837381914C1319.6427629856255,84.46631121663592,1368.1434362333225,160.9351775574809,1486.5943383214787,196.15980113037764C1605.045240409635,231.3844247032744,1847.7657230535797,243.10947958403165,1920,252.49941527476244L 1920 1080 L 0 1080 Z" fill="url(#SvgjsLinearGradient1079)" style="transform: translate(22.5234px, 25.7143px);"></path>
    <path d="M0,-163.44557108019015C83.30857407326329,-135.27297555739435,339.6605920347233,-36.84472188606696,499.8514444395797,5.590002056584737C660.0422968444361,48.02472599923643,800.0106464782964,49.31884564074125,961.1451144291384,91.16277257572C1122.2795823799804,133.00669951069875,1306.8491045494884,201.94543046625176,1466.6582521446321,256.6535636664572C1626.4673997397758,311.36169686666267,1844.4430420241054,392.28523709187016,1920,419.41157177695277L 1920 1080 L 0 1080 Z" fill="url(#SvgjsLinearGradient1080)" style="transform: translate(33.7852px, 38.5714px);"></path>
    <path d="M0,-9.64060328938605C55.20235125956708,10.788212335879592,226.19069488868718,80.79877087409471,331.2141075574025,112.9322904622078C436.2375202261178,145.0658100503209,523.5651358974965,153.8886826221995,630.1404760122917,183.16051423929252C736.715816127087,212.43234585638555,868.338421496072,248.58754959557479,970.6661482461741,288.563280164766C1072.9938749962762,328.53901073395724,1141.9876045794579,391.9965836833761,1244.1068365129047,423.01489765443995C1346.2260684463515,454.0332116255038,1470.7326792656722,447.25860462464397,1583.3815398468548,474.6731639911492C1696.0304004280374,502.0877233576544,1863.8969233078092,568.6974055430842,1920,587.5022538534712L 1920 1080 L 0 1080 Z" fill="url(#SvgjsLinearGradient1081)" style="transform: translate(45.0469px, 51.4286px);"></path>
    <path d="M0,69.46173554321462C65.23744909141394,83.61985016469897,269.36337354379197,118.29615369153018,391.4246945484836,154.41042327212077C513.4860155531752,190.52469285271135,602.3973032132841,242.14146596083134,732.3679260281498,286.14735302675814C862.3385488430155,330.15324009268494,1032.8736452943174,366.65939743336565,1171.2484314376775,418.4457456676816C1309.6232175810376,470.23209390199753,1437.8247147945906,553.1246822153031,1562.616642888311,596.8654424326538C1687.4085709820313,640.6062026500045,1860.4361071480519,666.8861628819307,1920,680.890306971786L 1920 1080 L 0 1080 Z" fill="url(#SvgjsLinearGradient1082)" style="transform: translate(56.3086px, 64.2857px);"></path>
    <path d="M0,184.3152261186044C38.573652425151096,203.27234150328314,142.43370550057597,272.2437534306303,231.44191455090657,298.0579184266769C320.4501236012372,323.8720834227235,442.25546720885217,313.332890807172,534.0492543019835,339.20021609488396C625.8430413951149,365.0675413825959,693.1754126278315,412.83057288340797,782.2046371096948,453.26187015294835C871.233861591558,493.6931674224887,973.6951196147731,555.6971004525445,1068.224601193163,581.7879997121264C1162.7540827715527,607.8788989717083,1246.2464215030345,582.7883277545787,1349.3815265800333,609.8072657104397C1452.5166316570321,636.8262036663006,1591.9321527518273,710.5312530935498,1687.035231655155,743.9016274472916C1782.1383105584828,777.2720018010334,1881.1725386091925,799.0081977686237,1920,810.0295118328902L 1920 1080 L 0 1080 Z" fill="url(#SvgjsLinearGradient1083)" style="transform: translate(67.5703px, 77.1429px);"></path>
</svg>