<svg class="canvas" viewBox="0 0 1920 1080" preserveAspectRatio="xMaxYMid slice"
    xmlns="http://www.w3.org/2000/svg" version="1.1"
    xmlns:xlink="http://www.w3.org/1999/xlink"
    xmlns:svgjs="http://svgjs.com/svgjs">
    <rect width="1920" height="1080" fill="hsl(327, 65%, 15%)"></rect>
    <defs>
        <linearGradient x1="0.5" y1="0" x2="0" y2="1" id="SvgjsLinearGradient1063">
            <stop stop-color="#eec4e3" offset="0"></stop>
            <stop stop-color="#cb6d4d" offset="0.1"></stop>
        </linearGradient>
        <linearGradient x1="0.5" y1="0" x2="0" y2="1" id="SvgjsLinearGradient1064">
            <stop stop-color="#eec4e3" offset="0"></stop>
            <stop stop-color="#cb6d4d" offset="0.22857142857142856"></stop>
        </linearGradient>
        <linearGradient x1="0.5" y1="0" x2="0" y2="1" id="SvgjsLinearGradient1065">
            <stop stop-color="#eec4e3" offset="0"></stop>
            <stop stop-color="#cb6d4d" offset="0.3571428571428571"></stop>
        </linearGradient>
        <linearGradient x1="0.5" y1="0" x2="0" y2="1" id="SvgjsLinearGradient1066">
            <stop stop-color="#f2c0ef" offset="0"></stop>
            <stop stop-color="#d74942" offset="0.48571428571428565"></stop>
        </linearGradient>
        <linearGradient x1="0.5" y1="0" x2="0" y2="1" id="SvgjsLinearGradient1067">
            <stop stop-color="#f2c0db" offset="0"></stop>
            <stop stop-color="#d78542" offset="0.6142857142857142"></stop>
        </linearGradient>
        <linearGradient x1="0.5" y1="0" x2="0" y2="1" id="SvgjsLinearGradient1068">
            <stop stop-color="#eac0f2" offset="0"></stop>
            <stop stop-color="#d74258" offset="0.7428571428571429"></stop>
        </linearGradient>
        <linearGradient x1="0.5" y1="0" x2="0" y2="1" id="SvgjsLinearGradient1069">
            <stop stop-color="#eac0f2" offset="0"></stop>
            <stop stop-color="#d74258" offset="0.8714285714285713"></stop>
        </linearGradient>
    </defs>
    <path d="M0,-556.3918209490065C79.91883673998892,-523.4316188584841,312.7707135414105,-398.14953694091736,479.5130204399335,-358.6306084058719C646.2553273384565,-319.11167987082644,848.4787413130964,-357.22766981941345,1000.453841391138,-319.2782497387337C1152.4289414691796,-281.3288296580539,1238.1059278067064,-181.4151593867477,1391.3636209081833,-130.93408792179315C1544.6213140096602,-80.45301645683861,1831.8939368180306,-35.48219877780424,1920,-16.391820949006465L 1920 1080 L 0 1080 Z" fill="url(#SvgjsLinearGradient1063)" style="transform: translate(0px, 0px);"></path>
    <path d="M0,-452.755909187828C54.47062419002592,-436.3647402805807,211.70749819177172,-375.9335073649791,326.82374514015555,-354.408895744344C441.9399920885394,-332.88428412370894,577.5507700349069,-354.73757279542417,690.6974816903029,-323.60823946401746C803.8441933456988,-292.47890613261075,912.8032926520597,-210.58116863223543,1005.7040150725313,-167.6328957559037C1098.6047374930029,-124.68462287957195,1142.7327242412596,-95.03584891952286,1248.1018162131327,-65.91860220602697C1353.4709081850058,-36.80135549253109,1525.9355362726253,-20.83748335891394,1637.91856690377,7.070584525071602C1749.9015975349146,34.97865240905715,1872.986427817295,85.78660166908385,1920,101.5298050978863L 1920 1080 L 0 1080 Z" fill="url(#SvgjsLinearGradient1064)" style="transform: translate(12.0352px, 12.872px);"></path>
    <path d="M0,-277.11974118456357C44.08999354069786,-265.0795273478386,170.33589376921742,-231.74600345806562,264.53996124418717,-204.8784581642139C358.7440287191569,-178.01091287036218,480.4098656505242,-149.24757616339008,565.2244048498185,-115.91446942145318C650.0389440491128,-82.58136267951627,687.3813338170693,-23.507530412667958,773.427196439953,-4.879817712592512C859.4730590628368,13.747894987482933,989.5508480182339,-16.69917545093397,1081.4995805871208,-4.148193221000511C1173.4483131560078,8.40278900893295,1236.4486736698668,38.98558281456313,1325.1195918532746,70.42607566700826C1413.7905100366825,101.8665685194534,1514.3783549964473,147.65716194036085,1613.5250896875682,184.49476389367032C1712.671824378689,221.3323658469798,1868.9208482812614,273.6255334713326,1920,291.45168738686505L 1920 1080 L 0 1080 Z" fill="url(#SvgjsLinearGradient1065)" style="transform: translate(24.0703px, 25.744px);"></path>
    <path d="M0,-120.53427850346088C65.07216699131314,-102.53784132834586,257.34932086915296,-59.00633517126815,390.43300194787884,-12.55565545277073C523.5166830266047,33.89502426572669,673.7455667495276,110.04173166817932,798.5020864723555,158.16979980752365C923.2586061951833,206.29786794686797,1009.986786982458,239.40481148751647,1138.972120284846,276.21275338329525C1267.9574535872337,313.02069527907406,1442.2427730008235,347.99909935379856,1572.4140862866825,379.01745118219634C1702.5853995725415,410.0358030105941,1862.0690143811137,448.4386288251011,1920,462.322864353682L 1920 1080 L 0 1080 Z" fill="url(#SvgjsLinearGradient1066)" style="transform: translate(36.1055px, 38.616px);"></path>
    <path d="M0,5.598548423208058C79.46596600192319,30.835943166463835,317.24200020225805,110.32849651014837,476.79579601153915,157.02291688274272C636.3495918208203,203.71733725533707,793.2106944929827,237.10613818961212,957.3227748556867,285.7650706587742C1121.4348552183906,334.4240031279363,1301.0220739970441,396.14712254650004,1461.468278187763,448.97651169771524C1621.9144823784818,501.80590084893043,1843.5780463646272,577.1139232546736,1920,602.7414055660653L 1920 1080 L 0 1080 Z" fill="url(#SvgjsLinearGradient1067)" style="transform: translate(48.1406px, 51.488px);"></path>
    <path d="M0,76.53572579145427C68.04222969259813,96.16181018495605,286.4665183588972,157.06188717966276,408.2533781555888,194.29223215246495C530.0402379522803,231.52257712526713,601.979696152558,259.7406295153923,730.7211587801495,299.91779562826736C859.462621407741,340.0949617411424,1042.6520246805153,385.00680234916075,1180.7021539211382,435.35522882971543C1318.7522831617612,485.7036553102701,1435.8056265440766,559.9068431132105,1559.021934223887,602.0083545115955C1682.2382419036974,644.1098659099805,1859.8369890373144,673.6383067686207,1920,687.9642972200257L 1920 1080 L 0 1080 Z" fill="url(#SvgjsLinearGradient1068)" style="transform: translate(60.1758px, 64.3601px);"></path>
    <path d="M0,255.1804562987658C40.46513071690903,265.7392078662976,153.9420220532187,291.8757870262329,242.79078430145418,318.5329657039565C331.63954654968967,345.1901443816801,432.98419575052765,386.2308989622645,533.092573489413,415.1235283651076C633.2009512282983,444.01615776795063,754.3162095638521,451.31962609950756,843.4410507347663,491.8887421210147C932.5658919056806,532.4578581425218,973.7841016288621,629.0461486279419,1067.8416205148985,658.5382244941503C1161.899139400935,688.0303003603588,1303.062456285451,651.436713731057,1407.7861640509846,668.841197318265C1512.5098718165182,686.245680905473,1610.8148944499305,727.6228685682674,1696.1838671080998,762.9651260173986C1781.552839766269,798.3073834665297,1882.6973111846833,861.239806013776,1920,880.8947420130515L 1920 1080 L 0 1080 Z" fill="url(#SvgjsLinearGradient1069)" style="transform: translate(72.2109px, 77.2321px);"></path>
</svg>