<svg class="canvas" viewBox="0 0 1920 1080" preserveAspectRatio="xMaxYMid slice"
    xmlns="http://www.w3.org/2000/svg" version="1.1"
    xmlns:xlink="http://www.w3.org/1999/xlink"
    xmlns:svgjs="http://svgjs.com/svgjs">
    <rect width="1920" height="1080" fill="hsl(104, 65%, 15%)"></rect>
    <defs>
        <linearGradient x1="0.5" y1="0" x2="0" y2="1" id="SvgjsLinearGradient1119">
            <stop stop-color="#d7eec4" offset="0"></stop>
            <stop stop-color="#4dcb90" offset="0.1"></stop>
        </linearGradient>
        <linearGradient x1="0.5" y1="0" x2="0" y2="1" id="SvgjsLinearGradient1120">
            <stop stop-color="#cfeec4" offset="0"></stop>
            <stop stop-color="#4dcbaa" offset="0.22857142857142856"></stop>
        </linearGradient>
        <linearGradient x1="0.5" y1="0" x2="0" y2="1" id="SvgjsLinearGradient1121">
            <stop stop-color="#c4eed2" offset="0"></stop>
            <stop stop-color="#4da1cb" offset="0.3571428571428571"></stop>
        </linearGradient>
        <linearGradient x1="0.5" y1="0" x2="0" y2="1" id="SvgjsLinearGradient1122">
            <stop stop-color="#c3f2c0" offset="0"></stop>
            <stop stop-color="#42d7cd" offset="0.48571428571428565"></stop>
        </linearGradient>
        <linearGradient x1="0.5" y1="0" x2="0" y2="1" id="SvgjsLinearGradient1123">
            <stop stop-color="#cdf2c0" offset="0"></stop>
            <stop stop-color="#42d7af" offset="0.6142857142857142"></stop>
        </linearGradient>
        <linearGradient x1="0.5" y1="0" x2="0" y2="1" id="SvgjsLinearGradient1124">
            <stop stop-color="#c3f2c0" offset="0"></stop>
            <stop stop-color="#42d7cd" offset="0.7428571428571429"></stop>
        </linearGradient>
        <linearGradient x1="0.5" y1="0" x2="0" y2="1" id="SvgjsLinearGradient1125">
            <stop stop-color="#c0f2c7" offset="0"></stop>
            <stop stop-color="#42c3d7" offset="0.8714285714285713"></stop>
        </linearGradient>
    </defs>
    <path d="M0,-525.7491897541345C34.01685941620674,-517.7423214245489,118.97282405786353,-494.2402756082809,204.10115649724045,-477.7079797766207C289.2294889366174,-461.17568394496044,426.62532448905534,-451.31087778497084,510.7699946362615,-426.5554147641731C594.9146647834677,-401.7999517433754,636.9386278477907,-359.0134655923621,708.9691773804775,-329.17520165183436C780.9997269131643,-299.33693771130663,866.9318375307565,-271.738164760361,942.9532918323823,-247.5258311210068C1018.9747461340081,-223.31349748165266,1079.3045350148059,-214.09571239648545,1165.0979031902325,-183.9011998157095C1250.8912713656591,-153.70668723493355,1371.3778111110328,-86.0255291568376,1457.7135008849418,-66.35875563635105C1544.0491906588509,-46.69198211586449,1606.0642919811767,-79.33548633982625,1683.1120418336864,-65.90055869279016C1760.159791686196,-52.465631045754066,1880.5186736389478,0.8922487560895522,1920,14.250810245865495L 1920 1080 L 0 1080 Z" fill="url(#SvgjsLinearGradient1119)" style="transform: translate(0px, 0px);"></path>
    <path d="M0,-404.36149347358304C52.6312404530159,-398.5540842979078,225.85789294473216,-398.97856530001803,315.7874427180954,-369.51703841953173C405.71699249145865,-340.0555115390454,461.89297455106225,-258.17376051537667,539.5772986401794,-227.5923321906651C617.2616227292965,-197.0109038659535,695.2559880563801,-214.6376677871613,781.8933872527981,-186.0284684712622C868.5307864492161,-157.41926915536308,963.1618758693585,-86.22752335060687,1059.401693818687,-55.93713629527049C1155.6415117680153,-25.64674923993411,1256.2166247775813,-18.537954905957704,1359.332294948769,-4.28614613924389C1462.4479651199567,9.965662627469923,1584.6510973372756,3.871988479783184,1678.095714845814,29.573716305012383C1771.5403323543524,55.27544413024158,1879.682619140969,129.86580339427815,1920,149.9242208121313L 1920 1080 L 0 1080 Z" fill="url(#SvgjsLinearGradient1120)" style="transform: translate(14.8359px, 14.4217px);"></path>
    <path d="M0,-317.2374491435764C54.67211087331867,-300.42852531421505,216.00336776048937,-249.78950715446265,328.03266523991203,-216.38390616740833C440.0619627193347,-182.978305180354,570.4292582391574,-146.65661301714277,672.175784876536,-116.8038432212504C773.9223115139146,-86.95107342535805,838.2993065332987,-71.02676408442522,938.5118250641834,-37.26728739205416C1038.7243435950681,-3.507810699683091,1163.5024673051,55.65978324923479,1273.4508960618443,85.75301693297598C1383.3993248185886,115.84625061671717,1490.4442136149573,115.69528762791359,1598.2023976046498,143.29211471039295C1705.9605815943423,170.88894179287232,1866.3670662674417,233.32700197494233,1920,251.3339794278522L 1920 1080 L 0 1080 Z" fill="url(#SvgjsLinearGradient1121)" style="transform: translate(29.6719px, 28.8435px);"></path>
    <path d="M0,-112.31918246868374C42.987774892066206,-96.68310871890324,167.70544905512412,-41.27919885264295,257.92664935239725,-18.502739970000782C348.1478496496704,4.273718912641389,444.4689638187098,-8.016821989862276,541.3272017836387,24.339570827169293C638.1854397485674,56.69596364420086,753.3746121117862,142.36911415943382,839.0760771419702,175.6356169321886C924.7775421721543,208.9021197049434,972.4704823264025,204.75933397522638,1055.535991964743,223.938587463698C1138.6015016030838,243.11784095216964,1243.9627729217948,261.7147223353245,1337.469134972014,290.71113786301845C1430.9754970222332,319.7075533907124,1519.4856867613944,367.9459435422882,1616.5741642660587,397.91708062986163C1713.662641770723,427.88821771743505,1869.4290273776764,458.4344804286929,1920,470.53796038845917L 1920 1080 L 0 1080 Z" fill="url(#SvgjsLinearGradient1122)" style="transform: translate(44.5078px, 43.2652px);"></path>
    <path d="M0,-75.5812993996393C48.483805099860945,-56.26375089578649,200.34641436453109,14.890899850456083,290.90283059916567,40.32399162347763C381.45924683380025,65.75708339649918,459.1255056176595,55.48841635241263,543.3384974078076,77.01725123848999C627.5514891979558,98.54608612456735,698.4536915162432,137.6569835085885,796.1807813400545,169.4970009399418C893.9078711638658,201.33701837129513,1032.866579508649,238.1608553916543,1129.7010363506756,268.05735582661C1226.5354931927022,297.95385626156565,1291.710342778334,326.14787082978324,1377.1875223922139,348.87600354967583C1462.6647020060936,371.6041362695684,1552.0953677659902,375.64522644704175,1642.5641140339546,404.42615214596543C1733.032860301919,433.2070778448891,1873.7606856723257,502.03899014367585,1920,521.5615577432179L 1920 1080 L 0 1080 Z" fill="url(#SvgjsLinearGradient1123)" style="transform: translate(59.3438px, 57.687px);"></path>
    <path d="M0,151.73227878429987C47.77163122464186,164.41741717093024,185.0192611811588,198.5468015268934,286.62978734785116,227.84310910408203C388.2403135145435,257.13941668127063,507.062619457473,281.6156333547026,609.6631570001541,327.51012424743163C712.2636945428353,373.4046151401607,786.5357811899316,470.5134010698116,902.2330126039382,503.21005446045626C1017.9302440179447,535.9067078511009,1192.123359522972,506.54983425297615,1303.8465454841933,523.6900445912994C1415.5697314454146,540.8302549296226,1469.8798859519648,566.1395155534669,1572.5721283712658,606.0513164903956C1675.2643707905668,645.9631174273243,1862.0953547285444,736.975927925792,1920,763.1608502128713L 1920 1080 L 0 1080 Z" fill="url(#SvgjsLinearGradient1124)" style="transform: translate(74.1797px, 72.1087px);"></path>
    <path d="M0,222.9663110719435C73.71116317127,244.66700556466392,276.1978265094061,297.21171196221917,442.26697902762004,353.1704780282661C608.336131545834,409.129244094313,826.4425950660939,501.8848986274024,996.4149151092835,558.7189074682249C1166.387235152473,615.5529163090473,1308.1700518049713,645.8475828535335,1462.1008992867573,694.1745310732009C1616.0317467685434,742.5014792928683,1843.6834832144596,822.9295858340579,1920,848.6805967862292L 1920 1080 L 0 1080 Z" fill="url(#SvgjsLinearGradient1125)" style="transform: translate(89.0156px, 86.5305px);"></path>
</svg>