<svg class="canvas" viewBox="0 0 1920 1080" preserveAspectRatio="xMaxYMid slice"
    xmlns="http://www.w3.org/2000/svg" version="1.1"
    xmlns:xlink="http://www.w3.org/1999/xlink"
    xmlns:svgjs="http://svgjs.com/svgjs">
    <rect width="1920" height="1080" fill="hsl(357, 65%, 15%)"></rect>
    <defs>
        <linearGradient x1="0.5" y1="0" x2="0" y2="1" id="SvgjsLinearGradient1000">
            <stop stop-color="#eedbc4" offset="0"></stop>
            <stop stop-color="#86cb4d" offset="0.1"></stop>
        </linearGradient>
        <linearGradient x1="0.5" y1="0" x2="0" y2="1" id="SvgjsLinearGradient1001">
            <stop stop-color="#eecac4" offset="0"></stop>
            <stop stop-color="#b8cb4d" offset="0.22857142857142856"></stop>
        </linearGradient>
        <linearGradient x1="0.5" y1="0" x2="0" y2="1" id="SvgjsLinearGradient1002">
            <stop stop-color="#eec4c6" offset="0"></stop>
            <stop stop-color="#cbc54d" offset="0.3571428571428571"></stop>
        </linearGradient>
        <linearGradient x1="0.5" y1="0" x2="0" y2="1" id="SvgjsLinearGradient1003">
            <stop stop-color="#f2c7c0" offset="0"></stop>
            <stop stop-color="#c0d742" offset="0.48571428571428565"></stop>
        </linearGradient>
        <linearGradient x1="0.5" y1="0" x2="0" y2="1" id="SvgjsLinearGradient1004">
            <stop stop-color="#f2c7c0" offset="0"></stop>
            <stop stop-color="#c0d742" offset="0.6142857142857142"></stop>
        </linearGradient>
        <linearGradient x1="0.5" y1="0" x2="0" y2="1" id="SvgjsLinearGradient1005">
            <stop stop-color="#f2dbc0" offset="0"></stop>
            <stop stop-color="#85d742" offset="0.7428571428571429"></stop>
        </linearGradient>
        <linearGradient x1="0.5" y1="0" x2="0" y2="1" id="SvgjsLinearGradient1006">
            <stop stop-color="#f2c0cc" offset="0"></stop>
            <stop stop-color="#d7b242" offset="0.8714285714285713"></stop>
        </linearGradient>
    </defs>
    <path d="M0,-514.2487236365557C57.658841185840735,-499.4702039268237,238.5977557629326,-460.1105554450897,345.9530471150444,-425.57760537816335C453.3083384671562,-391.044655311237,536.4707634150207,-341.8294805971186,644.131748112671,-307.0510232349976C751.7927328103212,-272.2725658728766,886.8362618448831,-239.36307912162746,991.9189553009462,-216.90686120543717C1097.0016487570094,-194.45064328924687,1174.0540039982566,-195.36243643927224,1274.6279088490498,-172.3137157378558C1375.2018136998431,-149.26499503643936,1487.8003692138814,-111.62536901382191,1595.3623844057063,-78.61453699693857C1702.9243995975312,-45.60370498005523,1865.8937307342844,8.356974136713767,1920,25.751276363444234L 1920 1080 L 0 1080 Z" fill="url(#SvgjsLinearGradient1000)" style="transform: translate(0px, 0px);"></path>
    <path d="M0,-391.49463753505563C51.33051097441665,-376.57632154637645,209.47282147978757,-326.26231452712983,307.98306584649987,-301.9847416029805C406.49331021321217,-277.7071686788311,476.46053868148323,-281.7684777279442,591.0614662002738,-245.8291999901595C705.6623937190643,-209.88992225237484,890.061882374828,-116.51812840496412,995.5886309592431,-86.34907517627244C1101.1153795436583,-56.180021947580755,1131.3134170195235,-99.35054491365221,1224.2219577067647,-64.81488061800941C1317.1304983940058,-30.279216322366615,1437.0768680338183,82.93058436947302,1553.0398750826907,120.86491059758436C1669.0028821315632,158.7992368256957,1858.8399791804484,155.80338239181293,1920,162.79107675065865L 1920 1080 L 0 1080 Z" fill="url(#SvgjsLinearGradient1001)" style="transform: translate(12.5587px, 14.6493px);"></path>
    <path d="M0,-254.7493543775219C55.5271928215812,-234.97599131083774,222.02660207427783,-171.98052483862847,333.16315692948723,-136.10917597741687C444.2997117846966,-100.23782711620528,569.2586285602715,-66.57153736295227,666.8193291312565,-39.5212612102524C764.3800297022415,-12.470985057552529,816.3641962057111,-6.952990079417816,918.5273603553973,26.19248093878236C1020.6905245050834,59.337951956982536,1161.4495980810332,123.34520295719165,1279.7983140293738,159.35156489894865C1398.1470299777145,195.35792684070566,1521.919375050337,216.48556770683135,1628.6196560454414,242.23065258932436C1735.3199370405457,267.97573747181735,1871.436609340907,301.89017059314295,1920,313.8220741939067L 1920 1080 L 0 1080 Z" fill="url(#SvgjsLinearGradient1002)" style="transform: translate(25.1174px, 29.2985px);"></path>
    <path d="M0,-150.2347205467547C42.72790095666937,-139.4595705697492,163.26862867046208,-111.8927444390492,256.36740574001624,-85.58382068472174C349.4661828095704,-59.27489693039429,462.04672217649426,-22.834071513050688,558.5926624173251,7.61882197921004C655.138602658156,38.07171547147077,750.0971435166789,68.75074506911626,835.6430471850013,97.13354026884264C921.1889508533236,125.51633546856901,977.6350190526556,145.45314351520835,1071.8680844272592,177.91559317756824C1166.101149801863,210.37804283992813,1314.922164590398,272.693820006416,1401.0414394326228,291.90823824300196C1487.1607142748476,311.12265647958793,1502.090640052712,269.749738585853,1588.583733480608,293.20210259708404C1675.0768269085042,316.6544666083151,1864.7639555801013,409.3857023581709,1920,432.62242231038823L 1920 1080 L 0 1080 Z" fill="url(#SvgjsLinearGradient1003)" style="transform: translate(37.6761px, 43.9478px);"></path>
    <path d="M0,-3.562234635824993C40.37432564402878,17.805514122156264,154.53554395186092,102.77948772890542,242.2459538641727,124.64425791206256C329.95636377648447,146.5090280952197,427.41357109608145,98.64945453554265,526.2624594738705,127.62638646311781C625.1113478516596,156.60331839069298,743.0806772731969,270.48162272839534,835.3392841309072,298.50584947751355C927.5978909886176,326.53007622663176,985.8912093695718,274.06357905228253,1079.8141006201329,295.77174695782696C1173.7369918706938,317.4799148633714,1309.4939767525716,386.369199042157,1398.8766316342735,428.7548569107802C1488.2592865159754,471.14051477940336,1529.256135182724,522.6147332368573,1616.110029910345,550.085694169566C1702.963924637966,577.5566551022746,1869.3516716517242,586.3314677841212,1920,593.5806225070322L 1920 1080 L 0 1080 Z" fill="url(#SvgjsLinearGradient1004)" style="transform: translate(50.2347px, 58.597px);"></path>
    <path d="M0,135.34205640429883C54.59868212288894,155.78377457191738,194.80405519869888,226.70043890859785,327.59209273733364,257.9923654100101C460.38013027596844,289.2842919114224,663.4424902108401,277.7921692185172,796.7282252318087,323.09361541277235C930.0139602527772,368.3950616070275,1008.6146638323845,481.9752702247636,1127.3065028631452,529.8010425755409C1245.998341893906,577.6268149263182,1376.7636765602304,573.8866519745478,1508.8792594163729,610.048249517436C1640.9948422725154,646.2098470603243,1851.4798765693954,723.9835647802979,1920,746.7706278328703L 1920 1080 L 0 1080 Z" fill="url(#SvgjsLinearGradient1005)" style="transform: translate(62.7934px, 73.2463px);"></path>
    <path d="M0,220.50652661532945C71.35113923768542,253.98719532031706,271.8011319878091,370.51171131021476,428.1068354261125,421.3905388452551C584.412538864416,472.2693663802954,769.4688179743337,485.3326367234763,937.8342206298207,525.7794918255714C1106.1996232853078,566.2263469276666,1274.6049547973382,610.6647827071521,1438.2992513590348,664.071669457826C1601.9935479207313,717.4785562085,1839.7165418931725,815.8626218509837,1920,846.2208123296152L 1920 1080 L 0 1080 Z" fill="url(#SvgjsLinearGradient1006)" style="transform: translate(75.3521px, 87.8956px);"></path>
</svg>