<svg class="canvas" viewBox="0 0 1920 1080" preserveAspectRatio="xMaxYMid slice"
    xmlns="http://www.w3.org/2000/svg" version="1.1"
    xmlns:xlink="http://www.w3.org/1999/xlink"
    xmlns:svgjs="http://svgjs.com/svgjs">
    <rect width="1920" height="1080" fill="hsl(70, 65%, 15%)"></rect>
    <defs>
        <linearGradient x1="0.5" y1="0" x2="0" y2="1" id="SvgjsLinearGradient1028">
            <stop stop-color="#eeecc4" offset="0"></stop>
            <stop stop-color="#51cb4d" offset="0.1"></stop>
        </linearGradient>
        <linearGradient x1="0.5" y1="0" x2="0" y2="1" id="SvgjsLinearGradient1029">
            <stop stop-color="#eee4c4" offset="0"></stop>
            <stop stop-color="#6bcb4d" offset="0.22857142857142856"></stop>
        </linearGradient>
        <linearGradient x1="0.5" y1="0" x2="0" y2="1" id="SvgjsLinearGradient1030">
            <stop stop-color="#eedcc4" offset="0"></stop>
            <stop stop-color="#84cb4d" offset="0.3571428571428571"></stop>
        </linearGradient>
        <linearGradient x1="0.5" y1="0" x2="0" y2="1" id="SvgjsLinearGradient1031">
            <stop stop-color="#f2dcc0" offset="0"></stop>
            <stop stop-color="#82d742" offset="0.48571428571428565"></stop>
        </linearGradient>
        <linearGradient x1="0.5" y1="0" x2="0" y2="1" id="SvgjsLinearGradient1032">
            <stop stop-color="#e9f2c0" offset="0"></stop>
            <stop stop-color="#42d75b" offset="0.6142857142857142"></stop>
        </linearGradient>
        <linearGradient x1="0.5" y1="0" x2="0" y2="1" id="SvgjsLinearGradient1033">
            <stop stop-color="#f2e6c0" offset="0"></stop>
            <stop stop-color="#64d742" offset="0.7428571428571429"></stop>
        </linearGradient>
        <linearGradient x1="0.5" y1="0" x2="0" y2="1" id="SvgjsLinearGradient1034">
            <stop stop-color="#dff2c0" offset="0"></stop>
            <stop stop-color="#42d778" offset="0.8714285714285713"></stop>
        </linearGradient>
    </defs>
    <path d="M0,-589.4607697881477C45.188181852962025,-573.6381716853266,182.83848457230982,-518.6735635251644,271.12909111777213,-494.52518117122094C359.41969766323444,-470.3767988172775,439.9158529448354,-470.86898397180755,529.7436392727737,-444.5704756644871C619.571425600712,-418.27196735716666,715.8075898264491,-367.6564722657635,810.0958090854019,-336.7341313272984C904.3840283443548,-305.81179038883334,996.2791649314437,-280.5850028849963,1095.4729548264906,-259.03643003369666C1194.6667447215377,-237.48785718239702,1312.4220484960983,-230.88375461300618,1405.258548455684,-207.44269421950068C1498.0950484152695,-184.00163382599519,1566.7017126599512,-144.7203884112225,1652.491954584004,-118.39006767266366C1738.2821965080566,-92.05974693410482,1875.4153257640007,-60.94898610223365,1920,-49.460769788147644L 1920 1080 L 0 1080 Z" fill="url(#SvgjsLinearGradient1028)"></path>
    <path d="M0,-460.1213221429724C46.871090562247595,-446.64684602259797,196.0844863752189,-400.91534503054487,281.2265433734856,-379.27446542072585C366.3686003717523,-357.6335858109068,412.4615868133578,-359.7122601278208,510.8523419896001,-330.27604448405816C609.2430971658424,-300.8398288402955,765.8553137950333,-232.54256456289895,871.5710744309392,-202.65717155814988C977.2868350668451,-172.77177855340082,1071.5508965342854,-171.3876540990521,1145.1469058050354,-150.96368645556376C1218.7429150757855,-130.53971881207542,1229.4715622327926,-115.53945275603326,1313.1471300554401,-80.11336569721985C1396.8226978780876,-44.68727863840644,1546.0581677501611,32.54654292398975,1647.2003127409212,61.592835897316704C1748.3424577316812,90.63912887064366,1874.5333854568203,88.73579943517103,1920,94.1643921427419L 1920 1080 L 0 1080 Z" fill="url(#SvgjsLinearGradient1029)"></path>
    <path d="M0,-328.148013123428C64.77710270859755,-307.74484275313614,254.4632019668758,-243.18166298210133,388.66261625158535,-205.728990901677C522.8620305362949,-168.2763188212527,682.1115220025549,-133.84535795614516,805.1964857082573,-103.43198064088207C928.2814494139598,-73.01860332561898,1003.5264254494524,-55.607806069602915,1127.1723984858002,-23.24872701009845C1250.818371522148,9.110352049406018,1414.9343903406439,46.77713663979488,1547.0723239263439,90.72249371614473C1679.2102575120439,134.66785079249456,1857.8453873210574,215.47326182602467,1920,240.42341544800064L 1920 1080 L 0 1080 Z" fill="url(#SvgjsLinearGradient1030)"></path>
    <path d="M0,-140.47015615655147C60.909296305499346,-127.96419458581825,240.38536246435837,-110.5328060671439,365.4557778329961,-65.43438673215212C490.5261932016338,-20.335967397160346,618.3065407615748,89.98526588855447,750.4224922118265,130.1203598533992C882.5384436620782,170.25545381824395,1025.4487809100178,146.06933987686568,1158.1514865345061,175.37617705691636C1290.8541921589945,204.68301423696704,1419.6639737145067,261.45958132642403,1546.6387259587557,305.9613829337032C1673.6134782030047,350.46318454098235,1857.773120993126,419.64938607277674,1920,442.3869867005914L 1920 1080 L 0 1080 Z" fill="url(#SvgjsLinearGradient1031)"></path>
    <path d="M0,0.3934678383736667C51.534162611483715,7.689051072164671,220.16910415936707,8.640640360606703,309.2049756689023,44.16696724111969C398.24084717843755,79.69329412163268,446.3652352331325,171.31185924634406,534.2152290572116,213.55142912145163C622.0652228812907,255.7909989965592,749.8525649921115,277.5977967038877,836.3049386133766,297.60438649176507C922.7573122346417,317.61097627964244,961.3471390136552,311.5881209676329,1052.9294707848023,333.59096784871576C1144.5118025559493,355.5938147297986,1280.7062255912208,394.95480615909923,1385.798929240259,429.62146777826223C1490.8916328892972,464.2881293974252,1594.4521808857414,513.6051280298657,1683.4856926790317,541.5909375636938C1772.519204472322,569.576747097522,1880.5809487798385,588.2120937449747,1920,597.5363249812309L 1920 1080 L 0 1080 Z" fill="url(#SvgjsLinearGradient1032)"></path>
    <path d="M0,69.61020865374982C57.25120539029609,97.51315715841857,206.19972450132744,201.51505298055298,343.50723234177656,237.02789968176228C480.8147401822257,272.5407463829716,694.6143449571558,245.22223293115718,823.8450470426947,282.68728886100564C953.0757491282335,320.1523447908541,1001.296989066225,421.68386353462944,1118.8914448550097,461.8182352608531C1236.4859006437944,501.95260698707676,1395.8936892512377,486.9567617481028,1529.4117817754027,523.4935192183475C1662.9298742995677,560.0302766885922,1854.9019636292337,654.7812366049923,1920,681.0387800823213L 1920 1080 L 0 1080 Z" fill="url(#SvgjsLinearGradient1033)"></path>
    <path d="M0,240.5354559450284C79.61932126298869,271.0037967479716,324.84923300592243,366.6550305227156,477.7159275779321,423.34550076268766C630.5826221499418,480.0359710026597,762.511302393286,528.8999050212261,917.2001674320582,580.6782773848607C1071.8890324708304,632.4566497484954,1238.715812382575,686.4204908987533,1405.8491178105653,734.0157349444955C1572.9824232385556,781.6109789902378,1834.308186301761,844.2107405401778,1920,866.2497416593142L 1920 1080 L 0 1080 Z" fill="url(#SvgjsLinearGradient1034)"></path>
</svg>