<svg class="canvas" viewBox="0 0 1920 1080" preserveAspectRatio="xMaxYMid slice"
    xmlns="http://www.w3.org/2000/svg" version="1.1"
    xmlns:xlink="http://www.w3.org/1999/xlink"
    xmlns:svgjs="http://svgjs.com/svgjs">
    <rect width="1920" height="1080" fill="hsl(309, 65%, 15%)"></rect>
    <defs>
        <linearGradient x1="0.5" y1="0" x2="0" y2="1" id="SvgjsLinearGradient1035">
            <stop stop-color="#eec4df" offset="0"></stop>
            <stop stop-color="#cb794d" offset="0.1"></stop>
        </linearGradient>
        <linearGradient x1="0.5" y1="0" x2="0" y2="1" id="SvgjsLinearGradient1036">
            <stop stop-color="#eec4ce" offset="0"></stop>
            <stop stop-color="#cbac4d" offset="0.22857142857142856"></stop>
        </linearGradient>
        <linearGradient x1="0.5" y1="0" x2="0" y2="1" id="SvgjsLinearGradient1037">
            <stop stop-color="#eec4df" offset="0"></stop>
            <stop stop-color="#cb794d" offset="0.3571428571428571"></stop>
        </linearGradient>
        <linearGradient x1="0.5" y1="0" x2="0" y2="1" id="SvgjsLinearGradient1038">
            <stop stop-color="#f2c0cc" offset="0"></stop>
            <stop stop-color="#d7b242" offset="0.48571428571428565"></stop>
        </linearGradient>
        <linearGradient x1="0.5" y1="0" x2="0" y2="1" id="SvgjsLinearGradient1039">
            <stop stop-color="#f2c0d6" offset="0"></stop>
            <stop stop-color="#d79442" offset="0.6142857142857142"></stop>
        </linearGradient>
        <linearGradient x1="0.5" y1="0" x2="0" y2="1" id="SvgjsLinearGradient1040">
            <stop stop-color="#f2c0c2" offset="0"></stop>
            <stop stop-color="#d7cf42" offset="0.7428571428571429"></stop>
        </linearGradient>
        <linearGradient x1="0.5" y1="0" x2="0" y2="1" id="SvgjsLinearGradient1041">
            <stop stop-color="#f2c0ea" offset="0"></stop>
            <stop stop-color="#d75842" offset="0.8714285714285713"></stop>
        </linearGradient>
    </defs>
    <path d="M0,-545.6908981118404C45.42409024558051,-527.3519852801174,180.97229608366928,-465.6478276537236,272.54454147348304,-435.65742112150286C364.1167868632968,-405.66701458928213,455.42195337561833,-383.7196423164031,549.4334723388826,-365.74845891851595C643.4449913021468,-347.7772755206288,745.956721889578,-348.4161061709801,836.6136552530685,-327.8303207341799C927.2705886165589,-307.24453529737974,1004.766683398607,-266.65477581284716,1093.3750725198254,-242.23374629771493C1181.9834616410437,-217.8127167825827,1271.937152731613,-206.71628075978808,1368.2639899803785,-181.30414364338645C1464.590827229144,-155.89200652698483,1579.3800943424808,-119.02979785456291,1671.3360960124178,-89.76092359930524C1763.2920976823548,-60.49204934404757,1878.5560160020696,-19.702569026417876,1920,-5.690898111840404L 1920 1080 L 0 1080 Z" fill="url(#SvgjsLinearGradient1035)"></path>
    <path d="M0,-379.64158822452606C49.09175851613072,-365.18810628850144,186.2171896653253,-329.7049295787348,294.5505510967843,-292.9206966083783C402.88391252824334,-256.13646363802184,542.9534705512798,-182.56324450770606,650.000168588754,-158.93619040238738C757.0468666262283,-135.3091362970687,835.2115594971801,-174.99856833817265,936.8307393216296,-151.1583719764663C1038.449919146079,-127.31817561475995,1145.5596012091353,-59.8801753825993,1259.715247535451,-15.895012232149291C1373.8708938617667,28.090150918300715,1511.7171585354324,80.99608387734415,1621.764617279524,112.75260692623374C1731.8120760236154,144.50912997512333,1870.2941028799207,164.3288728720292,1920,174.64412606118827L 1920 1080 L 0 1080 Z" fill="url(#SvgjsLinearGradient1036)"></path>
    <path d="M0,-282.14560694973034C52.25770160037473,-270.311782300898,221.8980860931252,-243.25317675464484,313.5462096022484,-211.14265905673648C405.1943331113716,-179.0321413588281,460.6129230508494,-111.68326863589863,549.8887410547393,-89.48250076228022C639.1645590586292,-67.28173288866182,753.3078578018855,-98.98931642374599,849.2011176255877,-77.93805181502606C945.0943774492899,-56.886787206306124,1037.9246489075663,2.494443551701224,1125.2482999969527,36.825086890039394C1212.5719510863391,71.15573022837756,1288.4681159485442,95.41843955124426,1373.1430241619069,128.04580821500298C1457.8179323752695,160.6731768787617,1542.1549199707797,206.19262997147575,1633.2977492771286,232.58929887259163C1724.4405785834774,258.9859677737075,1872.2162915461881,277.4530678301805,1920,286.4258216216983L 1920 1080 L 0 1080 Z" fill="url(#SvgjsLinearGradient1037)"></path>
    <path d="M0,-116.14989397644837C59.43545309190966,-97.27294389316242,229.68080655540933,-47.23156274289272,356.61271855145793,-2.8881934767326527C483.54463054750653,41.455175789427415,627.4924078606192,114.40291037085456,761.5914719762915,149.91032162051204C895.6905360919637,185.41773287016952,1035.5994500199117,171.60016052692353,1161.2071032454917,210.15627402121225C1286.8147564710716,248.71238751550098,1388.7719085373528,338.4885067763306,1515.2373913297708,381.2470025862443C1641.7028741221889,424.00549839615803,1852.5395652216284,452.46387449828615,1920,466.7072488806945L 1920 1080 L 0 1080 Z" fill="url(#SvgjsLinearGradient1038)"></path>
    <path d="M0,-54.416378800522594C64.67225938077947,-36.62532242731921,255.34287490045818,17.61231475722181,388.03355628467676,52.3299594386977C520.7242376688953,87.04760412017359,661.4652668064327,117.9960747171315,796.1440883053115,153.88948928833275C930.8229098041902,189.782903859534,1067.3303950775623,224.10432216773708,1196.1064852779493,267.69044686590513C1324.8825754783363,311.27657156407315,1448.151710387292,369.56689889793614,1568.8006295076339,415.40623747734105C1689.4495486279757,461.24557605674596,1861.4667715846056,521.506438198169,1920,542.7264783423346L 1920 1080 L 0 1080 Z" fill="url(#SvgjsLinearGradient1039)"></path>
    <path d="M0,81.60518979358646C40.072627582654086,88.70382107792591,155.4290065495226,97.77254312557562,240.43576549592453,124.19697749962319C325.44252444232643,150.62141187367075,407.7416826133114,197.8464171620387,510.0405536784116,240.15179603787186C612.3394247435118,282.457174913705,752.6527397110672,351.90762582461184,854.2289918865257,378.02925075462207C955.8052440619842,404.1508756846323,1038.4518858377285,365.7607572297022,1119.4980667311625,396.88154561793306C1200.5442476245964,428.0023340061639,1247.043556482079,524.2285461572316,1340.5060772471295,564.7539810840069C1433.9685980121799,605.2794160107823,1583.690870862653,618.6541918222267,1680.2731913214648,640.0341551785853C1776.8555117802766,661.4141185349438,1880.0455318869108,684.2004935482291,1920,693.0337612221579L 1920 1080 L 0 1080 Z" fill="url(#SvgjsLinearGradient1040)"></path>
    <path d="M0,215.6650900497259C50.55860446780613,236.92359631601505,198.17955481884024,316.95772270042903,303.35162680683675,343.2161276474608C408.52369879483325,369.47453259449253,516.1352418835304,346.0556378119722,631.0324319279789,373.21551973191646C745.9296219724274,400.3754016518607,876.5892741805227,462.701086458461,992.7347670735279,506.1754191671263C1108.8802599665332,549.6497518757916,1218.598683689103,600.1963561308999,1327.9053892860102,634.0615159839081C1437.2120948829174,667.9266758369163,1549.8925655359728,674.8134016551584,1648.575000654971,709.3663782851756C1747.2574357739693,743.9193549151929,1874.762500109162,819.377209517539,1920,841.3793757640117L 1920 1080 L 0 1080 Z" fill="url(#SvgjsLinearGradient1041)"></path>
</svg>