<svg class="canvas" viewBox="0 0 1920 1080" preserveAspectRatio="xMaxYMid slice"
    xmlns="http://www.w3.org/2000/svg" version="1.1"
    xmlns:xlink="http://www.w3.org/1999/xlink"
    xmlns:svgjs="http://svgjs.com/svgjs">
    <rect width="1920" height="1080" fill="hsl(150, 65%, 15%)"></rect>
    <defs>
        <linearGradient x1="0.5" y1="0" x2="0" y2="1" id="SvgjsLinearGradient1042">
            <stop stop-color="#c4eec8" offset="0"></stop>
            <stop stop-color="#4dbfcb" offset="0.1"></stop>
        </linearGradient>
        <linearGradient x1="0.5" y1="0" x2="0" y2="1" id="SvgjsLinearGradient1043">
            <stop stop-color="#c4eec8" offset="0"></stop>
            <stop stop-color="#4dbfcb" offset="0.22857142857142856"></stop>
        </linearGradient>
        <linearGradient x1="0.5" y1="0" x2="0" y2="1" id="SvgjsLinearGradient1044">
            <stop stop-color="#c8eec4" offset="0"></stop>
            <stop stop-color="#4dcbbf" offset="0.3571428571428571"></stop>
        </linearGradient>
        <linearGradient x1="0.5" y1="0" x2="0" y2="1" id="SvgjsLinearGradient1045">
            <stop stop-color="#c0f2cf" offset="0"></stop>
            <stop stop-color="#42aad7" offset="0.48571428571428565"></stop>
        </linearGradient>
        <linearGradient x1="0.5" y1="0" x2="0" y2="1" id="SvgjsLinearGradient1046">
            <stop stop-color="#c0f2cf" offset="0"></stop>
            <stop stop-color="#42aad7" offset="0.6142857142857142"></stop>
        </linearGradient>
        <linearGradient x1="0.5" y1="0" x2="0" y2="1" id="SvgjsLinearGradient1047">
            <stop stop-color="#c0f2c5" offset="0"></stop>
            <stop stop-color="#42c8d7" offset="0.7428571428571429"></stop>
        </linearGradient>
        <linearGradient x1="0.5" y1="0" x2="0" y2="1" id="SvgjsLinearGradient1048">
            <stop stop-color="#c0f2d9" offset="0"></stop>
            <stop stop-color="#428cd7" offset="0.8714285714285713"></stop>
        </linearGradient>
    </defs>
    <path d="M0,-528.6349165050649C49.03837833598939,-513.4260456927567,207.08844436318816,-467.4128730065976,294.23027001593636,-437.3816916312159C381.37209566868455,-407.35051025583425,440.0229629174894,-366.0982296173096,522.8509539164892,-348.447828252775C605.678944915489,-330.79742688824047,692.8070876149372,-349.2877891678849,791.1982160099349,-331.4792834440086C889.5893444049325,-313.6707777201323,1013.0067395915349,-268.1330335616972,1113.1977242864746,-241.59679390951717C1213.3887089814143,-215.06055425733715,1302.1970756817325,-195.55052164464257,1392.3441241795726,-172.2618455309285C1482.4911726774128,-148.97316941721442,1566.1373693034448,-132.46922539820991,1654.080015273516,-101.86473722723264C1742.0226612435872,-71.26024905625536,1875.680002545586,-7.506553292092814,1920,11.36508349493515L 1920 1080 L 0 1080 Z" fill="url(#SvgjsLinearGradient1042)"></path>
    <path d="M0,-382.2624767795086C62.748529694338664,-363.8470941834379,261.4344347409289,-306.07538014521265,376.491178166032,-271.7701812030846C491.5479215911351,-237.46498226095653,591.7683765576387,-202.86713436763574,690.3404605506186,-176.43128312674025C788.9125445435984,-149.99543188584477,866.1509322645313,-139.1933921818383,967.9236821239112,-113.15507375771162C1069.6964319832912,-87.11675533358493,1187.2239982352635,-58.63396166583835,1300.9769597068982,-20.201372581980173C1414.729921178533,18.231216501878002,1547.2709442382027,85.40302573073978,1650.4414509537196,117.44046074543743C1753.6119576692365,149.47789576013508,1875.0735751589532,162.9261080460777,1920,172.02323750620576L 1920 1080 L 0 1080 Z" fill="url(#SvgjsLinearGradient1043)"></path>
    <path d="M0,-316.91474741572404C35.05543691130834,-299.99968031865376,127.74077652207704,-237.20488225896148,210.33262146785006,-215.42434483330229C292.92446641362307,-193.6438074076431,416.1399473023896,-202.58555711316072,495.5510696746381,-186.23152286176895C574.9621920468866,-169.87748861037718,612.1681334148873,-145.37155620281558,686.7993557013411,-117.3001393249517C761.430577987795,-89.2287224470878,852.3529762858864,-44.80465150774227,943.3384033933611,-17.803021594585594C1034.3238305008358,9.198608318571083,1147.4845466736062,18.019212806899603,1232.7119183461898,44.70964015398836C1317.9392900187734,71.40006750107712,1383.446721948814,117.7277080456385,1454.7026334288628,142.33954248794694C1525.9585449089116,166.9513769302554,1582.6978261312931,174.16112369654616,1660.2473872264827,192.3806468078391C1737.7969483216723,210.60016991913204,1876.7078978710804,241.77734209772697,1920,251.65668115570455L 1920 1080 L 0 1080 Z" fill="url(#SvgjsLinearGradient1044)"></path>
    <path d="M0,-141.97955994822144C69.53359166191423,-119.11327420276544,296.7758032464293,-37.54790104154043,417.20154997148535,-4.781845475485433C537.6272966965414,27.98421009056956,605.683033085312,22.666662728015314,722.5544803503363,54.61677344810855C839.4259276153607,86.5668841682018,979.7408829061933,135.67775484441268,1118.4302335616312,186.91881884507401C1257.1195842170691,238.15988284573535,1421.095623209902,319.73669677476875,1554.6905842829635,362.06315745207667C1688.285545356025,404.3896181293846,1859.1150973804938,427.74184533278066,1920,440.87758290892145L 1920 1080 L 0 1080 Z" fill="url(#SvgjsLinearGradient1045)"></path>
    <path d="M0,-18.135962105615434C59.71380262293574,7.095070369202702,227.6091853766792,86.14035215594254,358.28281573761444,133.2502327432934C488.9564460985497,180.36011333064425,658.7998031138758,229.6349546770312,784.0417821656115,264.5233214184897C909.2837612173472,299.41168815994814,987.9638466978641,307.72186219648586,1109.7346900480286,342.58043319204427C1231.505533398193,377.4390041876027,1379.6226239412695,434.27033708430724,1514.666842266598,473.6747473918401C1649.7110605919265,513.079157699373,1852.4444737110996,561.4515370963414,1920,579.0068950372417L 1920 1080 L 0 1080 Z" fill="url(#SvgjsLinearGradient1046)"></path>
    <path d="M0,77.3069078661079C46.660599740692966,93.06704394221796,195.8327387745954,141.1969334688465,279.9635984441578,171.86772432276823C364.0944581137202,202.53851517668994,413.185703461218,228.34121559347105,504.7851580173744,261.33165298963826C596.3846125735307,294.32209038580544,735.0241100925141,335.8380907381959,829.560325781096,369.81034869977145C924.096541469678,403.782606661347,979.9771266766445,433.1873418365944,1072.0024521488663,465.16520075909153C1164.027777621088,497.1430596815887,1279.7337652649492,534.8587255719872,1381.7122786144264,561.6775022347542C1483.6907919639036,588.4962788975213,1594.1589120148005,604.9015312257063,1683.8735322457294,626.0778607356938C1773.5881524766583,647.2541902456812,1880.6455887076215,678.2925428681817,1920,688.7354792946793L 1920 1080 L 0 1080 Z" fill="url(#SvgjsLinearGradient1047)"></path>
    <path d="M0,258.6977307491811C38.811466454797376,268.90917608734253,134.86402458933344,297.0841904242068,232.86879872878424,319.9664027781496C330.87357286823504,342.8486151320924,491.61202855868584,353.37645869073805,588.0286448367049,395.991004872838C684.445261114724,438.60555105493796,733.2649520247745,537.3984079803364,811.3684963968984,575.6536798707494C889.4720407690223,613.9089517611625,954.9273151777643,595.5701805343997,1056.6499110694485,625.5226362153165C1158.3725069611328,655.4750918962334,1327.8425480131002,731.5530332898893,1421.7040717470036,755.3684139562506C1515.565595480907,779.1837946226119,1536.7697320973696,746.9076531289481,1619.819053472869,768.4149202134842C1702.8683748483684,789.9221872980202,1869.969842245478,865.0791670884698,1920,884.4120164634669L 1920 1080 L 0 1080 Z" fill="url(#SvgjsLinearGradient1048)"></path>
</svg>