<svg class="canvas" viewBox="0 0 1920 1080" preserveAspectRatio="xMaxYMid slice"
    xmlns="http://www.w3.org/2000/svg" version="1.1"
    xmlns:xlink="http://www.w3.org/1999/xlink"
    xmlns:svgjs="http://svgjs.com/svgjs">
    <rect width="1920" height="1080" fill="hsl(309, 65%, 15%)"></rect>
    <defs>
        <linearGradient x1="0.5" y1="0" x2="0" y2="1" id="SvgjsLinearGradient1049">
            <stop stop-color="#ecc4ee" offset="0"></stop>
            <stop stop-color="#cb4d53" offset="0.1"></stop>
        </linearGradient>
        <linearGradient x1="0.5" y1="0" x2="0" y2="1" id="SvgjsLinearGradient1050">
            <stop stop-color="#ecc4ee" offset="0"></stop>
            <stop stop-color="#cb4d53" offset="0.22857142857142856"></stop>
        </linearGradient>
        <linearGradient x1="0.5" y1="0" x2="0" y2="1" id="SvgjsLinearGradient1051">
            <stop stop-color="#eec4e7" offset="0"></stop>
            <stop stop-color="#cb604d" offset="0.3571428571428571"></stop>
        </linearGradient>
        <linearGradient x1="0.5" y1="0" x2="0" y2="1" id="SvgjsLinearGradient1052">
            <stop stop-color="#f2c0d6" offset="0"></stop>
            <stop stop-color="#d79442" offset="0.48571428571428565"></stop>
        </linearGradient>
        <linearGradient x1="0.5" y1="0" x2="0" y2="1" id="SvgjsLinearGradient1053">
            <stop stop-color="#f2c0e0" offset="0"></stop>
            <stop stop-color="#d77642" offset="0.6142857142857142"></stop>
        </linearGradient>
        <linearGradient x1="0.5" y1="0" x2="0" y2="1" id="SvgjsLinearGradient1054">
            <stop stop-color="#f2c0d6" offset="0"></stop>
            <stop stop-color="#d79442" offset="0.7428571428571429"></stop>
        </linearGradient>
        <linearGradient x1="0.5" y1="0" x2="0" y2="1" id="SvgjsLinearGradient1055">
            <stop stop-color="#f2c0ea" offset="0"></stop>
            <stop stop-color="#d75842" offset="0.8714285714285713"></stop>
        </linearGradient>
    </defs>
    <path d="M0,-558.1180259082388C61.67496768601438,-539.2631218412139,245.68289000763446,-476.33780723418886,370.04980611608624,-444.9886015060897C494.41672222453803,-413.63939577799056,618.4478738458694,-401.52802230485133,746.2014966507107,-370.0227915396438C873.9551194555521,-338.5175607744362,1002.5220007074263,-298.9744257640867,1136.5715429451343,-255.9572169148443C1270.6210851828423,-212.94000806560192,1419.9273405678146,-151.559403611957,1550.498750076959,-111.91953844418944C1681.0701595861033,-72.27967327642187,1858.4164583461597,-33.75161133089727,1920,-18.118025908238835L 1920 1080 L 0 1080 Z" fill="url(#SvgjsLinearGradient1049)"></path>
    <path d="M0,-411.4629812449468C78.61821000751965,-378.454657395817,320.35009629903914,-266.2288611330241,471.7092600451179,-213.41303815016786C623.0684237911967,-160.59721516731165,749.2162888522975,-134.5952339122502,908.1549824764724,-94.56804334780946C1067.0936761006474,-54.54085278336873,1256.700585536246,-12.815024161619611,1425.3414217901673,26.75010523647655C1593.9822580440884,66.3152346345727,1837.5569036316945,123.47729507338568,1920,142.8227330407675L 1920 1080 L 0 1080 Z" fill="url(#SvgjsLinearGradient1050)"></path>
    <path d="M0,-273.7474683101284C56.67648612857968,-252.97760616176586,232.7791024224876,-185.69521218605823,340.0589167714781,-149.12829541995313C447.3387311204686,-112.56137865384804,548.1347852183479,-79.8374128388784,643.6788860939429,-54.34596771349787C739.2229869695378,-28.85452258811735,801.2993627554861,-15.464578652534101,913.3235220250481,3.8203753323299736C1025.34768129461,23.105329317194048,1196.9720202682913,19.956194605948426,1315.8238417113146,61.363756195686584C1434.6756631543378,102.77131778542474,1525.73842430174,213.3557108598233,1626.4344506831876,252.2657448707589C1727.1304770646352,291.1757788816945,1871.0724084471979,287.7309243628767,1920,294.8239602613003L 1920 1080 L 0 1080 Z" fill="url(#SvgjsLinearGradient1051)"></path>
    <path d="M0,-105.18982467426846C46.60981487274281,-97.50021375092221,193.07476982776814,-80.69834528553761,279.65888923645684,-59.05215913419098C366.24300864514555,-37.405972982844354,431.16820780800197,-11.638318102673402,519.5047164521321,24.687292233811306C607.8412250962623,61.01290257029601,707.9074003446591,118.00110600090918,809.6779411012379,158.90150288471727C911.4484818578168,199.80189976852537,1037.9770676574792,241.03443755621748,1130.1279609916053,270.0896735366599C1222.2788543257313,299.14490951710235,1278.5629960212366,317.13630512889097,1362.5833011059945,333.23291876737187C1446.6036061907523,349.3295324058528,1541.347008351151,342.5969554649616,1634.249791500152,366.66935536754534C1727.152574649153,390.7417552701291,1872.3749652500253,459.1676577136529,1920,477.6673181828744L 1920 1080 L 0 1080 Z" fill="url(#SvgjsLinearGradient1052)"></path>
    <path d="M0,7.070732184006289C37.46867571332029,14.127180169545635,136.43136752161527,28.021721838119063,224.81205427992174,49.40942009724236C313.1927410382282,70.79711835636566,436.9445124377712,98.58692147192298,530.2841205498388,135.39692173874607C623.6237286619064,172.20692200556917,697.8697334678905,244.09896450137867,784.8497029523272,270.26942169818096C871.829672436764,296.4398788949833,954.8253196423668,263.28630642486826,1052.1639374564597,292.4196649195598C1149.5025552705526,321.55302341425136,1264.192386275013,407.99838897521454,1368.8814098368846,445.0695726663304C1473.5704333987562,482.1407563574462,1588.4449804671708,488.3227642894991,1680.29807882769,514.8467670662546C1772.1511771882092,541.3707698430102,1880.049679804615,589.3191189500953,1920,604.2135893268635L 1920 1080 L 0 1080 Z" fill="url(#SvgjsLinearGradient1053)"></path>
    <path d="M0,116.43213783456225C63.38908398907355,136.30297097197018,247.91364950944873,199.34560686753065,380.3345039344413,235.65713665900984C512.7553583594338,271.968666450489,667.0768959283648,286.1224445642825,794.5251265499553,334.30131658343737C921.9733571715458,382.48018860259225,1013.0217301612093,486.30285771380767,1145.0238876639844,524.7303687739391C1277.0260451667593,563.1578798340704,1457.3753861772693,531.0113261960265,1586.5380715666054,564.8663829442256C1715.7007569559414,598.7214396924247,1864.4230119277677,700.6949882099823,1920,727.8607092631337L 1920 1080 L 0 1080 Z" fill="url(#SvgjsLinearGradient1054)"></path>
    <path d="M0,197.1303419162418C51.164405035373726,213.42012010525235,195.10336748537412,257.04697451732943,306.98643021224234,294.8690110503051C418.86949293911056,332.6910475832808,560.2541188958891,392.2867497867592,671.2983763612094,424.0625611140958C782.3426338265298,455.8383724414324,869.9831917689896,454.9106192909424,973.2519750041645,485.5238790143248C1076.5207582393393,516.1371387377071,1184.5604738600618,566.3012251122341,1290.9110757722585,607.74211945439C1397.2616776844552,649.183013796546,1506.507432439388,698.3188270379039,1611.3555864773448,734.1692450672602C1716.2037405153017,770.0196630966166,1868.5592644128908,808.0653972033164,1920,822.8446276305276L 1920 1080 L 0 1080 Z" fill="url(#SvgjsLinearGradient1055)"></path>
</svg>