<svg class="canvas" viewBox="0 0 1920 1080" preserveAspectRatio="xMaxYMid slice"
    xmlns="http://www.w3.org/2000/svg" version="1.1"
    xmlns:xlink="http://www.w3.org/1999/xlink"
    xmlns:svgjs="http://svgjs.com/svgjs">
    <rect width="1920" height="1080" fill="hsl(98, 65%, 15%)"></rect>
    <defs>
        <linearGradient x1="0.5" y1="0" x2="0" y2="1" id="SvgjsLinearGradient1056">
            <stop stop-color="#e4eec4" offset="0"></stop>
            <stop stop-color="#4dcb6b" offset="0.1"></stop>
        </linearGradient>
        <linearGradient x1="0.5" y1="0" x2="0" y2="1" id="SvgjsLinearGradient1057">
            <stop stop-color="#dceec4" offset="0"></stop>
            <stop stop-color="#4dcb84" offset="0.22857142857142856"></stop>
        </linearGradient>
        <linearGradient x1="0.5" y1="0" x2="0" y2="1" id="SvgjsLinearGradient1058">
            <stop stop-color="#dceec4" offset="0"></stop>
            <stop stop-color="#4dcb84" offset="0.3571428571428571"></stop>
        </linearGradient>
        <linearGradient x1="0.5" y1="0" x2="0" y2="1" id="SvgjsLinearGradient1059">
            <stop stop-color="#d2f2c0" offset="0"></stop>
            <stop stop-color="#42d7a0" offset="0.48571428571428565"></stop>
        </linearGradient>
        <linearGradient x1="0.5" y1="0" x2="0" y2="1" id="SvgjsLinearGradient1060">
            <stop stop-color="#c0f2c2" offset="0"></stop>
            <stop stop-color="#42d2d7" offset="0.6142857142857142"></stop>
        </linearGradient>
        <linearGradient x1="0.5" y1="0" x2="0" y2="1" id="SvgjsLinearGradient1061">
            <stop stop-color="#e6f2c0" offset="0"></stop>
            <stop stop-color="#42d764" offset="0.7428571428571429"></stop>
        </linearGradient>
        <linearGradient x1="0.5" y1="0" x2="0" y2="1" id="SvgjsLinearGradient1062">
            <stop stop-color="#c8f2c0" offset="0"></stop>
            <stop stop-color="#42d7be" offset="0.8714285714285713"></stop>
        </linearGradient>
    </defs>
    <path d="M0,-565.3983267677199C40.158748123812906,-548.8052251019039,156.0885189780356,-483.8723211634686,240.95248874287742,-465.83971677282403C325.81645850771923,-447.80711238217947,431.6816346029851,-479.8498408973318,509.183818589051,-457.20270042385266C586.6860025751168,-434.55555995037355,631.1935290097961,-362.68768994158586,705.9655926592727,-329.9568739319494C780.7376563087494,-297.226057922313,875.0820844714514,-275.9102837707121,957.8162004859106,-260.8178043660342C1040.5503165003697,-245.72532496135625,1126.7188875271518,-259.0473544686479,1202.370288746028,-239.40199750388186C1278.0216899649045,-219.75664053911584,1332.284769522047,-166.76520789152093,1411.724607799169,-142.945662577438C1491.164446076291,-119.12611726335506,1594.2967530419542,-116.07594825433725,1679.0093184087593,-96.48472561938424C1763.7218837755645,-76.89350298443122,1879.83488640146,-37.24605990966395,1920,-25.398326767719894L 1920 1080 L 0 1080 Z" fill="url(#SvgjsLinearGradient1056)" style="transform: translate(0px, 0px);"></path>
    <path d="M0,-364.2946972502506C48.70564962532155,-349.64130502628313,209.28390827012163,-293.92638833215506,292.2338977519293,-276.3743439064461C375.183887233737,-258.8222994807371,415.70111944584517,-291.09795899325866,497.69993689084595,-258.9824306959966C579.6987543358467,-226.8669023987345,686.7135276589069,-115.06239574067637,784.226802421934,-83.68117412287357C881.7400771849613,-52.29995250507078,975.3422496916617,-93.8529399579798,1082.7795854690094,-70.69510098917982C1190.216921246357,-47.53726202037984,1342.5793022173532,16.022864328528797,1428.8508170860205,55.26585968992629C1515.1223319546878,94.50885505132378,1518.550477528683,142.3086782882822,1600.4086746810128,164.76287117920512C1682.2668718333427,187.21706407012803,1866.734779113502,185.78632605942062,1920,189.9910170354637L 1920 1080 L 0 1080 Z" fill="url(#SvgjsLinearGradient1057)" style="transform: translate(11.6197px, 12.9423px);"></path>
    <path d="M0,-260.98527380541736C37.424810829507,-244.7837357502382,139.43154772746703,-190.20810963256892,224.548864977042,-163.77604547434248C309.66618222661697,-137.34398131611604,412.26336783127044,-130.43203355409787,510.7039034974498,-102.39288885605873C609.1444391636292,-74.35374415801958,723.1386356133708,-21.507541821547907,815.1920789741181,4.458822713892431C907.2455223348654,30.42518724933277,976.6957283857578,25.413211814671648,1063.0245636619336,53.405298356583295C1149.3533989381094,81.39738489849495,1234.7040942041353,144.15397582233126,1333.165090631173,172.4113419653623C1431.6260870582105,200.66870810839336,1555.9847239960218,200.42035974799475,1653.7905422241597,222.94949521476957C1751.5963604522976,245.4786306815444,1875.6317570373599,293.4800448408043,1920,307.58615476601125L 1920 1080 L 0 1080 Z" fill="url(#SvgjsLinearGradient1058)" style="transform: translate(23.2394px, 25.8846px);"></path>
    <path d="M0,-170.68347957007904C41.467912719433976,-163.77440374642947,165.2225293483463,-155.04026414065848,248.80747631660384,-129.2290246281817C332.39242328486137,-103.4177851157049,410.4093678987169,-48.19497993868095,501.5096818095451,-15.816042495218326C592.6099957203733,16.5628949482443,702.0695910286735,35.04386424309301,795.4093597815731,65.04460003259408C888.7491285344728,95.04533582209514,960.8230782545643,134.63390646543257,1061.548294326943,164.1883722417881C1162.2735103993218,193.74283801814363,1306.799665675167,220.25548382197758,1399.7606562158455,242.3713946907273C1492.721646756524,264.487305559477,1532.6076802736543,268.58345935489706,1619.3142375710133,296.8838374542865C1706.0207948683724,325.1842155536759,1869.8857062618356,392.9586923149343,1920,412.17366328706385L 1920 1080 L 0 1080 Z" fill="url(#SvgjsLinearGradient1059)" style="transform: translate(34.8592px, 38.827px);"></path>
    <path d="M0,-63.82005455543131C66.88242118791659,-46.60512550079892,276.13987823170237,2.798090784303099,401.2945271274996,39.46951977236305C526.4491760232968,76.140948760423,628.7568676833474,108.94800870692853,750.9278933747831,156.20851937292838C873.0989190662189,203.46903003892822,1003.3255903331763,280.6434806431386,1134.3206812761136,323.03258376836214C1265.315772219051,365.4216868935857,1405.95188591176,375.4947683210921,1536.8984390324076,410.54313812426943C1667.8449921530553,445.59150792744674,1856.1497398387346,512.8595251768999,1920,533.3228025874259L 1920 1080 L 0 1080 Z" fill="url(#SvgjsLinearGradient1060)" style="transform: translate(46.4789px, 51.7693px);"></path>
    <path d="M0,128.39525589655887C46.893090990756484,144.71018446469094,168.75057935796843,199.0077282867346,281.3585459445389,226.28482730535137C393.96651253110934,253.56192632396815,559.0072911348848,250.71983041531874,675.6477995194227,292.05785000825955C792.2883079039607,333.3958696012004,883.636698358321,435.9685435502272,981.2015962517667,474.31294486299623C1078.7664941452122,512.6573461757653,1163.7817051686727,497.1042183284334,1261.0371868800964,522.1242578848736C1358.2926685915202,547.1442974413138,1454.907351000325,588.1499206282616,1564.7344865203088,624.4331822016377C1674.5616220402926,660.7164437750138,1860.7890810867182,720.5920531378815,1920,739.8238273251303L 1920 1080 L 0 1080 Z" fill="url(#SvgjsLinearGradient1061)" style="transform: translate(58.0986px, 64.7116px);"></path>
    <path d="M0,215.63552229225073C38.28424471199656,233.1582741206877,138.5917332362602,286.2757502388336,229.70546827197936,320.7720332628726C320.8192033076985,355.26831628691156,454.8217153798755,401.241557851086,546.6824102143149,422.6132204364846C638.5431050487543,443.9848830218832,693.3056520705545,428.4379073025451,780.869637278616,449.0020087752641C868.4336224866775,469.56611024798303,970.866526794283,509.4709888334756,1072.0663214626838,545.9978292727982C1173.2661161310848,582.5246697121207,1290.2693140301928,635.5173965753697,1388.068405289021,668.1630514111996C1485.8674965478492,700.8087062470295,1570.2056032304895,713.0072988552213,1658.8608690156527,741.8717582877774C1747.516134800816,770.7362177203336,1876.4768115026088,824.77013305341,1920,841.3498080065365L 1920 1080 L 0 1080 Z" fill="url(#SvgjsLinearGradient1062)" style="transform: translate(69.7183px, 77.6539px);"></path>
</svg>