<svg class="canvas" viewBox="0 0 1920 1080" preserveAspectRatio="xMaxYMid slice"
    xmlns="http://www.w3.org/2000/svg" version="1.1"
    xmlns:xlink="http://www.w3.org/1999/xlink"
    xmlns:svgjs="http://svgjs.com/svgjs">
    <rect width="1920" height="1080" fill="hsl(63, 65%, 15%)"></rect>
    <defs>
        <linearGradient x1="0.5" y1="0" x2="0" y2="1" id="SvgjsLinearGradient1000">
            <stop stop-color="#fffff" offset="0"></stop>
            <stop stop-color="#4ABC90" offset="0.1"></stop>
        </linearGradient>
        <linearGradient x1="0.5" y1="0" x2="0" y2="1" id="SvgjsLinearGradient1001">
            <stop stop-color="#858a28" offset="0"></stop>
            <stop stop-color="#4ABC90" offset="0.22857142857142856"></stop>
        </linearGradient>
        <linearGradient x1="0.5" y1="0" x2="0" y2="1" id="SvgjsLinearGradient1002">
            <stop stop-color="#858a28" offset="0"></stop>
            <stop stop-color="#4ABC90" offset="0.3571428571428571"></stop>
        </linearGradient>
        <linearGradient x1="0.5" y1="0" x2="0" y2="1" id="SvgjsLinearGradient1003">
            <stop stop-color="#f2eac0" offset="0"></stop>
            <stop stop-color="#58d742" offset="0.48571428571428565"></stop>
        </linearGradient>
        <linearGradient x1="0.5" y1="0" x2="0" y2="1" id="SvgjsLinearGradient1004">
            <stop stop-color="#f2eac0" offset="0"></stop>
            <stop stop-color="#58d742" offset="0.6142857142857142"></stop>
        </linearGradient>
        <linearGradient x1="0.5" y1="0" x2="0" y2="1" id="SvgjsLinearGradient1005">
            <stop stop-color="#f2e0c0" offset="0"></stop>
            <stop stop-color="#76d742" offset="0.7428571428571429"></stop>
        </linearGradient>
        <linearGradient x1="0.5" y1="0" x2="0" y2="1" id="SvgjsLinearGradient1006">
            <stop stop-color="#e5f2c0" offset="0"></stop>
            <stop stop-color="#42d767" offset="0.8714285714285713"></stop>
        </linearGradient>
    </defs>
    <path d="M0,-588.8950144952177C81.42440580853417,-564.59542504817,331.1302932446358,-493.24317003105443,488.54643485120505,-443.0974778129315C645.9625764577743,-392.9517855948086,780.8144937449857,-334.79158311842787,944.4968496394155,-288.02086118648003C1108.1792055338453,-241.25013925453223,1308.056711824353,-202.32745400312177,1470.6405702177838,-162.4731462212447C1633.2244286112145,-122.61883843936762,1845.106761702964,-67.82470311622214,1920,-48.89501449521762L 1920 1080 L 0 1080 Z" fill="url(#SvgjsLinearGradient1000)" style="transform: translate(0px, 0px);"></path>
    <path d="M0,-387.33388833322016C53.948601434185036,-374.0389959762341,224.25035452998839,-332.4451396845697,323.6916086051102,-307.5645341913038C423.13286268023205,-282.68392869803785,484.5024402436258,-269.26546786465843,596.647524450731,-238.05025537362454C708.7926086578362,-206.83504288259064,880.885227814884,-149.8716781650429,996.5621138477414,-120.27325924510045C1112.2389998805988,-90.67484032515799,1183.8313631847695,-98.4445450313766,1290.7088406478754,-60.45974185396973C1397.5863181109812,-22.47493867656285,1532.9451187343561,69.73363185159687,1637.8269786263768,107.63555981934084C1742.7088385183974,145.5374877870848,1872.971163104396,157.06578159696858,1920,166.95182595249412L 1920 1080 L 0 1080 Z" fill="url(#SvgjsLinearGradient1001)" style="transform: translate(11.2031px, 12.8815px);"></path>
    <path d="M0,-320.17870942445234C78.83231412800885,-301.5153419864626,315.05257720770794,-258.12405172336076,472.9938847680531,-208.1985047965139C630.9351923283982,-158.27295786966704,789.4018596792886,-69.83879226738001,947.6478453620708,-20.625427863371222C1105.893831044853,28.58793654063757,1260.4111064250915,42.24532379248094,1422.4697988647463,87.08168162753886C1584.528491304401,131.91803946259677,1837.0782998107911,221.50754622707,1920,248.39271914697625L 1920 1080 L 0 1080 Z" fill="url(#SvgjsLinearGradient1002)" style="transform: translate(22.4062px, 25.763px);"></path>
    <path d="M0,-149.312880587312C61.20689476419312,-134.9703900572582,237.3738827567132,-103.68934217388492,367.24136858515874,-63.25793740698913C497.10885441360426,-22.826532640093333,653.5219422797184,45.5803724589573,779.2049149706733,93.27554801406276C904.8878876616282,140.97072356916823,1000.6506575835272,189.2268183788144,1121.3392047308878,222.91311592364366C1242.0277518782484,256.5994134684729,1370.2260653099852,260.2881422253405,1503.336197854837,295.3933332830384C1636.446330399689,330.49852434073625,1850.5560329758061,410.5191074386988,1920,433.5442622698309L 1920 1080 L 0 1080 Z" fill="url(#SvgjsLinearGradient1003)" style="transform: translate(33.6094px, 38.6445px);"></path>
    <path d="M0,-67.09020618631656C44.19553500139316,-58.95242642562069,159.86445879491293,-47.28641180008442,265.173210008359,-18.263527622141325C370.481961221805,10.759356555801773,521.6289546032317,69.80343817089263,631.8525072806762,107.04709888134201C742.0760599581206,144.29075959179139,826.8150172980158,170.89734144798996,926.5145260730258,205.19843664055492C1026.2140348480357,239.49953183311987,1123.1765008793363,279.6789751696812,1230.0495599307358,312.8536700367318C1336.9226189821352,346.02836490378235,1452.761140369878,368.04677568955685,1567.7528803814218,404.24660584285834C1682.7446203929658,440.44643599615983,1861.292146730237,509.08497677092697,1920,530.0526509565407L 1920 1080 L 0 1080 Z" fill="url(#SvgjsLinearGradient1004)" style="transform: translate(44.8125px, 51.526px);"></path>
    <path d="M0,99.87693471601966C61.691165883003386,123.69587021313326,253.66448955472498,198.79823125758617,370.14699529802033,242.79054769870123C486.6295010413157,286.7828641398163,595.0639808661398,332.0152630866936,698.8950344597722,363.83083336271005C802.7260880534046,395.6464036387265,888.8528022733946,414.32054850184176,993.1333168598146,433.6839693548C1097.4138314462346,453.04739020775827,1224.679181553995,457.08053789005123,1324.5781219782923,480.0113584804596C1424.4770624025896,502.94217907086795,1493.289979735314,532.7198682865618,1592.5269594055987,571.2688928972503C1691.7639390758834,609.8179175079389,1865.4211599009332,687.9660706033677,1920,711.3055061445912L 1920 1080 L 0 1080 Z" fill="url(#SvgjsLinearGradient1005)" style="transform: translate(56.0156px, 64.4075px);"></path>
    <path d="M0,224.97999474797055C79.5910219667273,249.9754991153476,315.8969232803245,321.0931799494097,477.5461318003638,374.9530209522327C639.1953403204031,428.81286195505567,806.2026898723879,493.03761503649207,969.895251120236,548.1390407649084C1133.587812368084,603.2404664933247,1301.350707807492,655.1357020398391,1459.7014992874526,705.5615753227304C1618.0522907674133,755.9874486056217,1843.2835832145754,826.5054962723353,1920,850.6942804622563L 1920 1080 L 0 1080 Z" fill="url(#SvgjsLinearGradient1006)" style="transform: translate(67.2188px, 77.289px);"></path>
</svg>