<svg class="canvas" viewBox="0 0 1920 1080" preserveAspectRatio="xMaxYMid slice"
    xmlns="http://www.w3.org/2000/svg" version="1.1"
    xmlns:xlink="http://www.w3.org/1999/xlink"
    xmlns:svgjs="http://svgjs.com/svgjs">
    <rect width="1920" height="1080" fill="hsl(266, 65%, 15%)"></rect>
    <defs>
        <linearGradient x1="0.5" y1="0" x2="0" y2="1" id="SvgjsLinearGradient1063">
            <stop stop-color="#cec4ee" offset="0"></stop>
            <stop stop-color="#cb4dae" offset="0.1"></stop>
        </linearGradient>
        <linearGradient x1="0.5" y1="0" x2="0" y2="1" id="SvgjsLinearGradient1064">
            <stop stop-color="#cec4ee" offset="0"></stop>
            <stop stop-color="#cb4dae" offset="0.22857142857142856"></stop>
        </linearGradient>
        <linearGradient x1="0.5" y1="0" x2="0" y2="1" id="SvgjsLinearGradient1065">
            <stop stop-color="#d6c4ee" offset="0"></stop>
            <stop stop-color="#cb4d95" offset="0.3571428571428571"></stop>
        </linearGradient>
        <linearGradient x1="0.5" y1="0" x2="0" y2="1" id="SvgjsLinearGradient1066">
            <stop stop-color="#d5c0f2" offset="0"></stop>
            <stop stop-color="#d74296" offset="0.48571428571428565"></stop>
        </linearGradient>
        <linearGradient x1="0.5" y1="0" x2="0" y2="1" id="SvgjsLinearGradient1067">
            <stop stop-color="#cbc0f2" offset="0"></stop>
            <stop stop-color="#d742b4" offset="0.6142857142857142"></stop>
        </linearGradient>
        <linearGradient x1="0.5" y1="0" x2="0" y2="1" id="SvgjsLinearGradient1068">
            <stop stop-color="#dfc0f2" offset="0"></stop>
            <stop stop-color="#d74278" offset="0.7428571428571429"></stop>
        </linearGradient>
        <linearGradient x1="0.5" y1="0" x2="0" y2="1" id="SvgjsLinearGradient1069">
            <stop stop-color="#dfc0f2" offset="0"></stop>
            <stop stop-color="#d74278" offset="0.8714285714285713"></stop>
        </linearGradient>
    </defs>
    <path d="M0,-581.384896539435C54.00710565835788,-571.9348286499795,221.0170680664985,-558.2799817096504,324.04263395014726,-524.6844892027025C427.06819983379603,-491.08899669575453,517.834693015226,-420.12467617721626,618.1533953018925,-379.81194149774717C718.472097588559,-339.4992068182781,820.2308482483941,-314.3615599901636,925.954847670146,-282.8080811258879C1031.678847091898,-251.25460226161223,1142.4508220012497,-218.20948642395473,1252.4973918324044,-190.49106831209315C1362.5439616635592,-162.77265020023157,1474.9838319624748,-141.34860108349474,1586.2342666570742,-116.49757245471838C1697.4847013516735,-91.64654382594202,1864.372377776179,-53.90367585864886,1920,-41.384896539434955L 1920 1080 L 0 1080 Z" fill="url(#SvgjsLinearGradient1063)"></path>
    <path d="M0,-416.92528147849856C65.60914098784785,-405.8426634214615,263.4326276065242,-390.1218221638405,393.6548459270871,-350.4295731362762C523.87706424765,-310.7373241087119,658.3892422199563,-215.24072460694578,781.3333099233773,-178.77178731311295C904.2773776267984,-142.30285001928013,1014.3580759090745,-173.02005317063947,1131.3192521476133,-131.61594937327928C1248.280428386152,-90.21184557591909,1351.6535760458787,24.823438440965695,1483.1003673546097,69.65283547104819C1614.5471586633407,114.48223250113068,1847.1833945591015,126.07583325118779,1920,137.36043280721572L 1920 1080 L 0 1080 Z" fill="url(#SvgjsLinearGradient1064)"></path>
    <path d="M0,-254.1962236270802C49.600252973136044,-242.7825704341366,186.96385779684618,-211.6954371760372,297.6015178388163,-185.7143044694186C408.2391778807864,-159.73317176280003,556.2703960630273,-134.2838895440001,663.8259602518206,-98.30942738736871C771.3815244406138,-62.33496523073733,834.9980837986782,-3.7547253102230655,942.9349029715756,30.132468470369687C1050.871722144473,64.01966225096244,1206.203723337795,69.46679896166054,1311.4468752892053,105.01373529618782C1416.6900272406156,140.5606716307151,1472.9682938949054,208.5205082028399,1574.3938146800378,243.41408647753332C1675.8193354651703,278.30766475222674,1862.3989691133397,302.5483518665459,1920,314.3752049443484L 1920 1080 L 0 1080 Z" fill="url(#SvgjsLinearGradient1065)"></path>
    <path d="M0,-186.74479653717117C48.973861934948964,-171.28449409297457,208.411506938299,-115.87355386639105,293.8431716096938,-93.9829818719916C379.2748362810886,-72.09240987759215,444.8510174222031,-68.63038838923369,512.5899880283689,-55.401364570774504C580.3289586345347,-42.17234075231532,626.4945458337857,-36.161813512002865,700.2769952466886,-14.608838961236515C774.0594446595915,6.944135589529836,869.4880139858531,39.63232860417624,955.2846845057866,73.9164827338236C1041.08135502572,108.20063686347096,1140.1321840053774,154.96572160661214,1215.0570183662896,191.09608581664764C1289.9818527272018,227.22645002668315,1336.622121293268,270.7306075898177,1404.83369067126,290.6986679940367C1473.045260049252,310.66672839825577,1538.4653830794512,293.33550185430613,1624.3264346342412,310.904448241962C1710.1874861890312,328.4733946296178,1870.7210724390402,381.91102997363674,1920,396.1123463199717L 1920 1080 L 0 1080 Z" fill="url(#SvgjsLinearGradient1066)"></path>
    <path d="M0,-14.754219513748112C63.05802765275747,5.2388209090727,254.30732950741782,58.405520458134745,378.3481659165448,105.20402302317676C502.3890023256718,152.00252558821876,620.1384948121362,221.81861433835,744.2450184547619,266.03679587650396C868.3515420973876,310.25497741465796,987.6693801959466,346.3529922666936,1122.987307772299,370.51311225210065C1258.3052353486512,394.6732322375077,1423.3171352082586,375.68492822611154,1556.1525839128756,410.99751578894626C1688.9880326174925,446.310103351781,1859.3587639854793,553.8234506557486,1920,582.3886376291091L 1920 1080 L 0 1080 Z" fill="url(#SvgjsLinearGradient1067)"></path>
    <path d="M0,80.30734540607689C62.406109712654796,98.1626529675478,247.6719278905128,142.20834663708771,374.4366582759288,187.43919077490233C501.20138866134477,232.67003491271694,629.339006511718,313.4097435569944,760.5883823124958,351.69241023296456C891.8377581132736,389.97507690893474,1038.3983996233467,376.8922633687029,1161.9329130805957,417.1351908307233C1285.4674265378446,457.37811829274364,1375.450948569422,547.3831873377659,1501.7954630559896,593.1499750050867C1628.139977542557,638.9167626724076,1850.299243842665,675.3049265297215,1920,691.7359168346484L 1920 1080 L 0 1080 Z" fill="url(#SvgjsLinearGradient1068)"></path>
    <path d="M0,259.16205262236986C60.49737183506887,272.3092252922367,230.601338319704,288.2204534065103,362.9842310104132,338.0450886415708C495.3671237011224,387.8697238766314,668.9452167223895,505.9113654071892,794.2973561442552,558.1098640327333C919.6494955661209,610.3083626582775,984.2031904623213,622.7813052497704,1115.0970675416072,651.2360803948357C1245.990944620893,679.6908555399009,1445.5101298769046,689.8984719128215,1579.6606186199701,728.8385149031249C1713.8111073630357,767.7785578934282,1863.276769769995,858.8700344310672,1920,884.8763383366556L 1920 1080 L 0 1080 Z" fill="url(#SvgjsLinearGradient1069)"></path>
</svg>