<svg class="canvas" viewBox="0 0 1920 1080" preserveAspectRatio="xMaxYMid slice"
    xmlns="http://www.w3.org/2000/svg" version="1.1"
    xmlns:xlink="http://www.w3.org/1999/xlink"
    xmlns:svgjs="http://svgjs.com/svgjs">
    <rect width="1920" height="1080" fill="hsl(48, 65%, 15%)"></rect>
    <defs>
        <linearGradient x1="0.5" y1="0" x2="0" y2="1" id="SvgjsLinearGradient1070">
            <stop stop-color="#eeeec4" offset="0"></stop>
            <stop stop-color="#4dcb4d" offset="0.1"></stop>
        </linearGradient>
        <linearGradient x1="0.5" y1="0" x2="0" y2="1" id="SvgjsLinearGradient1071">
            <stop stop-color="#eeeec4" offset="0"></stop>
            <stop stop-color="#4dcb4d" offset="0.22857142857142856"></stop>
        </linearGradient>
        <linearGradient x1="0.5" y1="0" x2="0" y2="1" id="SvgjsLinearGradient1072">
            <stop stop-color="#eee5c4" offset="0"></stop>
            <stop stop-color="#66cb4d" offset="0.3571428571428571"></stop>
        </linearGradient>
        <linearGradient x1="0.5" y1="0" x2="0" y2="1" id="SvgjsLinearGradient1073">
            <stop stop-color="#f2dec0" offset="0"></stop>
            <stop stop-color="#7dd742" offset="0.48571428571428565"></stop>
        </linearGradient>
        <linearGradient x1="0.5" y1="0" x2="0" y2="1" id="SvgjsLinearGradient1074">
            <stop stop-color="#f2f2c0" offset="0"></stop>
            <stop stop-color="#42d742" offset="0.6142857142857142"></stop>
        </linearGradient>
        <linearGradient x1="0.5" y1="0" x2="0" y2="1" id="SvgjsLinearGradient1075">
            <stop stop-color="#e8f2c0" offset="0"></stop>
            <stop stop-color="#42d75f" offset="0.7428571428571429"></stop>
        </linearGradient>
        <linearGradient x1="0.5" y1="0" x2="0" y2="1" id="SvgjsLinearGradient1076">
            <stop stop-color="#f2e8c0" offset="0"></stop>
            <stop stop-color="#5fd742" offset="0.8714285714285713"></stop>
        </linearGradient>
    </defs>
    <path d="M0,-589.7827247823317C44.222244788102394,-578.8169076801129,184.44367672068168,-543.3821037347072,265.3334687286144,-523.9878221690191C346.2232607365471,-504.5935406033309,404.9367060875206,-493.6559073933115,485.3387520475962,-473.41703538820275C565.7407980076717,-453.178163383094,667.126674542122,-425.1184136991158,747.745744489068,-402.5545901383666C828.364814436014,-379.9907665776174,897.5737111435226,-360.98955367748897,969.0531717292721,-338.0340940237076C1040.5326323150216,-315.07863436992625,1094.4255155422643,-286.1514643211105,1176.6225080035647,-264.8218322156785C1258.819500464865,-243.49220011024653,1380.50673914241,-229.76980707481889,1462.2351264970748,-210.05630139111568C1543.9635138517397,-190.34279570741248,1590.6986865477331,-173.25306088159002,1666.992832131554,-146.54079811345935C1743.2869777153749,-119.82853534532867,1877.8321386885923,-65.90907033751958,1920,-49.782724782331634L 1920 1080 L 0 1080 Z" fill="url(#SvgjsLinearGradient1070)"></path>
    <path d="M0,-455.70802368254726C66.99886212134406,-439.82680772742265,278.3390699042892,-395.8587831886567,401.99317272806434,-360.4207279517995C525.6472755518395,-324.98267271494234,619.5484026155058,-278.88910148381353,741.9246169426508,-243.0796922614044C864.3008312697958,-207.27028303899525,1000.9070976081036,-185.57766505602862,1136.2504586909345,-145.5642726173446C1271.5938197737653,-105.5508801786606,1423.359859888125,-43.6896648327189,1553.9847834396357,-2.9993376293002854C1684.6097069911466,37.690989574118326,1858.9974639066058,81.64818589775582,1920,98.57769060316704L 1920 1080 L 0 1080 Z" fill="url(#SvgjsLinearGradient1071)"></path>
    <path d="M0,-292.62207076703424C60.370639581354204,-276.0577803640115,234.36026715853905,-229.10502243577983,362.22383748812524,-193.23632834889773C490.08740781771144,-157.36763426201563,640.0809309038738,-116.12742698502723,767.1814219775171,-77.40990624574167C894.2819130511604,-38.6923855064561,999.4686173601986,-5.138297822961839,1124.8267839299851,39.06879608681568C1250.1849504997717,83.27588999659321,1386.8015520512338,148.35256359332703,1519.3304213962363,187.8326572129235C1651.8592907412387,227.31275083251995,1853.2217368993727,261.2632410391492,1920,275.94935780439437L 1920 1080 L 0 1080 Z" fill="url(#SvgjsLinearGradient1072)"></path>
    <path d="M0,-126.86785895636395C45.404692975417966,-103.945152962852,170.6883330893425,-29.488453082638365,272.4281578525078,10.66837700470768C374.1679826156731,50.825207092053724,498.3241839943928,89.44315786591167,610.4389485789919,114.07312156771235C722.553713163591,138.70308526951302,839.7657639468227,139.8583327875746,945.1167453601025,158.44815921551177C1050.4677267733823,177.03798564344893,1130.1094157784648,200.31287225222889,1242.544837058671,225.6120801353354C1354.980258338877,250.9112880184419,1506.820079217784,271.8472058865768,1619.729273041339,310.2434065141507C1732.6384668648939,348.63960714172464,1869.954878840223,431.6983043363409,1920,455.98928390077896L 1920 1080 L 0 1080 Z" fill="url(#SvgjsLinearGradient1073)"></path>
    <path d="M0,-24.58217662389557C59.75998205535669,-6.6276138573850325,258.8396852908476,49.774765195683365,358.5598923321401,83.14519997516766C458.2800993734326,116.51563475465196,501.63998192089457,140.6942164799869,598.321242247755,175.6404320530102C695.0025025746154,210.58664762603348,829.6997949709404,268.24513316046387,938.6474542933026,292.8224934133075C1047.595113615665,317.3998536661511,1146.8354305996534,295.95772137621134,1252.0071981819285,323.1045935700719C1357.1789657642037,350.2514657639325,1458.3459261506086,414.1277120849895,1569.678059786954,455.7037265764712C1681.0101934232994,497.27974106795284,1861.6130099644924,553.0845215285466,1920,572.5606805189617L 1920 1080 L 0 1080 Z" fill="url(#SvgjsLinearGradient1074)"></path>
    <path d="M0,100.45873659094681C60.866853527008494,117.63682301984852,240.06310920883402,164.2404769981503,365.201121162051,203.5272551643571C490.33913311526794,242.81403333056386,625.1399627172614,287.26463169677186,750.8280717193016,336.17940558818754C876.5161807213419,385.0941794796032,984.6160818034539,460.0712544131945,1119.329775174293,497.0158985128512C1254.043468545132,533.9605426125079,1425.6651944733849,522.0353686016833,1559.110231944336,557.8472701861278C1692.555269415287,593.6591717705724,1859.851705324056,686.2139683806199,1920,711.8873080195183L 1920 1080 L 0 1080 Z" fill="url(#SvgjsLinearGradient1075)"></path>
    <path d="M0,226.00700071006332C61.734461268698226,247.91138419568006,237.94927611355328,315.4898651153983,370.40676761218936,357.4333016237638C502.8642591108254,399.3767381321293,658.727532650179,443.8360941272067,794.7449489918164,477.66761976025623C930.7623653334538,511.49914539330575,1070.4265048452758,510.5084926417517,1186.5112656620138,560.4224554220609C1302.5960264787518,610.3364182023702,1369.0053915025808,728.6015912750637,1491.253513892245,777.1513964421117C1613.5016362819094,825.7012016091597,1848.5422523153743,839.2929714273096,1920,851.7212864243492L 1920 1080 L 0 1080 Z" fill="url(#SvgjsLinearGradient1076)"></path>
</svg>