<svg class="canvas" viewBox="0 0 1920 1080" preserveAspectRatio="xMaxYMid slice"
    xmlns="http://www.w3.org/2000/svg" version="1.1"
    xmlns:xlink="http://www.w3.org/1999/xlink"
    xmlns:svgjs="http://svgjs.com/svgjs">
    <rect width="1920" height="1080" fill="hsl(223, 65%, 15%)"></rect>
    <defs>
        <linearGradient x1="0.5" y1="0" x2="0" y2="1" id="SvgjsLinearGradient1091">
            <stop stop-color="#c4d0ee" offset="0"></stop>
            <stop stop-color="#a84dcb" offset="0.1"></stop>
        </linearGradient>
        <linearGradient x1="0.5" y1="0" x2="0" y2="1" id="SvgjsLinearGradient1092">
            <stop stop-color="#c4d8ee" offset="0"></stop>
            <stop stop-color="#8e4dcb" offset="0.22857142857142856"></stop>
        </linearGradient>
        <linearGradient x1="0.5" y1="0" x2="0" y2="1" id="SvgjsLinearGradient1093">
            <stop stop-color="#c4c7ee" offset="0"></stop>
            <stop stop-color="#c14dcb" offset="0.3571428571428571"></stop>
        </linearGradient>
        <linearGradient x1="0.5" y1="0" x2="0" y2="1" id="SvgjsLinearGradient1094">
            <stop stop-color="#c0c4f2" offset="0"></stop>
            <stop stop-color="#ca42d7" offset="0.48571428571428565"></stop>
        </linearGradient>
        <linearGradient x1="0.5" y1="0" x2="0" y2="1" id="SvgjsLinearGradient1095">
            <stop stop-color="#c0c4f2" offset="0"></stop>
            <stop stop-color="#ca42d7" offset="0.6142857142857142"></stop>
        </linearGradient>
        <linearGradient x1="0.5" y1="0" x2="0" y2="1" id="SvgjsLinearGradient1096">
            <stop stop-color="#c0c4f2" offset="0"></stop>
            <stop stop-color="#ca42d7" offset="0.7428571428571429"></stop>
        </linearGradient>
        <linearGradient x1="0.5" y1="0" x2="0" y2="1" id="SvgjsLinearGradient1097">
            <stop stop-color="#c6c0f2" offset="0"></stop>
            <stop stop-color="#d742c5" offset="0.8714285714285713"></stop>
        </linearGradient>
    </defs>
    <path d="M0,-508.89673411707315C50.56475899791591,-494.59701625422525,218.00603638912384,-453.05526381183256,303.38855398749547,-423.0984269399858C388.7710715858671,-393.14159006813907,430.80931885856364,-353.8483604422048,512.2951055902297,-329.1557128859928C593.7808923218957,-304.46306532978076,699.5967925043209,-302.41714652111455,792.3032743774918,-274.94254160271356C885.0097562506627,-247.46793668431258,978.0840558210772,-195.17610953923014,1068.533996829255,-164.30808337558682C1158.983937837433,-133.4400572119435,1243.923046599837,-114.63736963389901,1335.002920426559,-89.73438462085363C1426.082794253281,-64.83139960780825,1517.5137265273465,-35.0297817146113,1615.0132397895868,-14.890173297314561C1712.512753051827,5.249435119982181,1869.1688732982645,23.437692686219922,1920,31.10326588292682L 1920 1080 L 0 1080 Z" fill="url(#SvgjsLinearGradient1091)"></path>
    <path d="M0,-395.4562275179826C65.82519659809883,-378.97394970520384,267.38677611084705,-332.9952288592505,394.951179588593,-296.5625606413101C522.515583066339,-260.12989242336965,636.4848359741901,-215.23966585358494,765.3864208664758,-176.86021821034012C894.2880057587614,-138.4807705670953,1036.3797525865841,-109.41715816080998,1168.3606889423072,-66.28587478184117C1300.3416252980303,-23.154591402872377,1431.9988204911986,44.40825513854386,1557.272039000814,81.92748206347267C1682.5452575104293,119.44670898840147,1859.545339833469,146.01248598368852,1920,158.82948676773168L 1920 1080 L 0 1080 Z" fill="url(#SvgjsLinearGradient1092)"></path>
    <path d="M0,-253.9750685139229C66.80622785023785,-243.58833254997253,270.03733078625146,-225.26700289498672,400.83736710142705,-191.65465273022065C531.6374034166026,-158.04230256545458,668.9611369924933,-98.68700265676452,784.8002178910535,-52.300967525326406C900.6392987896138,-5.914932393888293,977.7292357483578,42.04533002287452,1095.8718524927885,86.66155805840803C1214.0144692372191,131.27778609394153,1356.3012271064356,177.40726702135836,1493.6559183576376,215.39640068787463C1631.0106096088396,253.3855343543909,1848.9426530596063,298.0630334959005,1920,314.5963600575057L 1920 1080 L 0 1080 Z" fill="url(#SvgjsLinearGradient1093)"></path>
    <path d="M0,-142.93373372178374C56.2222347752087,-126.57569801159008,226.92542037932674,-73.93954999586083,337.33340865125217,-44.785519460621735C447.7413969231776,-15.631488925382634,555.4153596226059,-0.8777769624140248,662.4479296315527,31.990449489650878C769.4804996404995,64.85867594171577,874.4309738520396,115.36369329656549,979.5288287049328,152.42383925176767C1084.626683557826,189.48398520696986,1185.4094490946418,227.75321031335417,1293.0350587489122,254.35132522086397C1400.6606684031826,280.94944012837374,1520.7883297553744,281.08384804441056,1625.2824866305557,312.0125286968264C1729.776643505737,342.94120934924223,1870.880414438426,418.60492906227034,1920,439.9234091353591L 1920 1080 L 0 1080 Z" fill="url(#SvgjsLinearGradient1094)"></path>
    <path d="M0,-37.21556586596429C63.87063071146508,-21.821161458034744,255.05465083303815,15.82346579430348,383.2237842687905,55.15086058161296C511.3929177045428,94.47825536892245,642.0287349911314,155.41123044544307,769.0148006145141,198.74880285789257C896.0008662378968,242.08637527034207,1017.9114903264957,271.936290661365,1145.1401780090866,315.17629505631C1272.3688656916775,358.416299451255,1403.2436230449073,417.3969965241321,1532.3869267100595,458.18882922756256C1661.5302303752117,498.98066193099305,1855.3978211183432,542.9708809353378,1920,559.9272912768929L 1920 1080 L 0 1080 Z" fill="url(#SvgjsLinearGradient1095)"></path>
    <path d="M0,77.413105322781C54.75447124268411,99.8816774602802,235.22493409599736,191.93790690975558,328.5268274561047,212.22453814777617C421.828720816212,232.51116938579676,479.98970685118553,173.52906742730585,559.8113601606441,199.1328927509045C639.6330134701027,224.73671807450313,709.7936656890311,328.78406793094206,807.4567473128561,365.84749008936797C905.1198289366812,402.9109122477939,1056.8500070720343,390.104159834972,1145.7898499035944,421.5134257014599C1234.7296927351545,452.92269156794777,1259.7160018650743,523.0171852447324,1341.0958043022174,554.3030852882953C1422.4756067393605,585.5889853318581,1537.5846319101563,586.8057273856608,1634.0686645264534,609.228825962837C1730.5526971427505,631.6519245400133,1872.3447774210756,675.5728682865999,1920,688.8416767513525L 1920 1080 L 0 1080 Z" fill="url(#SvgjsLinearGradient1096)"></path>
    <path d="M0,244.45260751585303C79.26101574873796,266.78493026489303,313.12965399413315,321.5878528488415,475.56609449242774,378.4465440100932C638.0025349907223,435.30523517134486,821.0151780863149,529.1526561946498,974.6186429897676,585.6047544833631C1128.2221078932203,642.0568527720764,1239.6233244114385,669.7321106179104,1397.186883913144,717.159133742373C1554.7504434148493,764.5861568668356,1832.8644806521907,844.6655999821778,1920,870.1668932301388L 1920 1080 L 0 1080 Z" fill="url(#SvgjsLinearGradient1097)"></path>
</svg>