<svg class="canvas" viewBox="0 0 1920 1080" preserveAspectRatio="xMaxYMid slice"
    xmlns="http://www.w3.org/2000/svg" version="1.1"
    xmlns:xlink="http://www.w3.org/1999/xlink"
    xmlns:svgjs="http://svgjs.com/svgjs">
    <rect width="1920" height="1080" fill="hsl(288, 65%, 15%)"></rect>
    <defs>
        <linearGradient x1="0.5" y1="0" x2="0" y2="1" id="SvgjsLinearGradient1112">
            <stop stop-color="#e5c4ee" offset="0"></stop>
            <stop stop-color="#cb4d66" offset="0.1"></stop>
        </linearGradient>
        <linearGradient x1="0.5" y1="0" x2="0" y2="1" id="SvgjsLinearGradient1113">
            <stop stop-color="#eec4e5" offset="0"></stop>
            <stop stop-color="#cb664d" offset="0.22857142857142856"></stop>
        </linearGradient>
        <linearGradient x1="0.5" y1="0" x2="0" y2="1" id="SvgjsLinearGradient1114">
            <stop stop-color="#e5c4ee" offset="0"></stop>
            <stop stop-color="#cb4d66" offset="0.3571428571428571"></stop>
        </linearGradient>
        <linearGradient x1="0.5" y1="0" x2="0" y2="1" id="SvgjsLinearGradient1115">
            <stop stop-color="#f2c0f2" offset="0"></stop>
            <stop stop-color="#d74242" offset="0.48571428571428565"></stop>
        </linearGradient>
        <linearGradient x1="0.5" y1="0" x2="0" y2="1" id="SvgjsLinearGradient1116">
            <stop stop-color="#f2c0d4" offset="0"></stop>
            <stop stop-color="#d79b42" offset="0.6142857142857142"></stop>
        </linearGradient>
        <linearGradient x1="0.5" y1="0" x2="0" y2="1" id="SvgjsLinearGradient1117">
            <stop stop-color="#f2c0f2" offset="0"></stop>
            <stop stop-color="#d74242" offset="0.7428571428571429"></stop>
        </linearGradient>
        <linearGradient x1="0.5" y1="0" x2="0" y2="1" id="SvgjsLinearGradient1118">
            <stop stop-color="#f2c0f2" offset="0"></stop>
            <stop stop-color="#d74242" offset="0.8714285714285713"></stop>
        </linearGradient>
    </defs>
    <path d="M0,-515.4142265625707C50.76100809348634,-495.5714020893873,214.72998685599578,-424.8259551380678,304.56604856091803,-396.3572797234703C394.4021102658403,-367.8886043088728,459.40596609872927,-370.08647752804205,539.0163702295337,-344.60217407498584C618.626774360338,-319.1178706219296,683.8943054786344,-269.24250351990116,782.2284733457443,-243.4514590051329C880.5626412128543,-217.66041449036464,1030.306460288722,-212.42719779944886,1129.0213774321935,-189.85590698637628C1227.736294575665,-167.2846161733037,1283.4848481367176,-124.35851627846934,1374.5179762065734,-108.02371412669737C1465.5511042764292,-91.6889119749254,1584.3064752190903,-113.94867533643225,1675.2201458513282,-91.84709407574447C1766.133816483566,-69.74551281505668,1879.203357641888,5.180295518567014,1920,24.58577343742931L 1920 1080 L 0 1080 Z" fill="url(#SvgjsLinearGradient1112)"></path>
    <path d="M0,-424.5719492650494C44.5609942492917,-411.59146871088876,176.37387108040406,-374.1724843424323,267.36596549575023,-346.68906594008547C358.3580599110964,-319.2056475377386,455.02268881265906,-293.16808630400755,545.9525664920772,-259.67143885096834C636.8824441714953,-226.17479139792917,717.1722525491314,-164.67669279594833,812.9452315722589,-145.7091812218504C908.7182105953864,-126.74166964775246,1024.0370045140833,-170.10702825837402,1120.5904406308423,-145.86636940638073C1217.1438767476013,-121.62571055438744,1308.0578936504826,-28.28204138699432,1392.2658482728125,-0.26522810989069256C1476.4738028951424,27.751585167212934,1537.88247641029,0.5713447344817659,1625.8381683648213,22.234510256241037C1713.7938603193525,43.897675778000306,1870.9730280608035,111.80055589326095,1920,129.71376502066494L 1920 1080 L 0 1080 Z" fill="url(#SvgjsLinearGradient1113)"></path>
    <path d="M0,-322.11788251700375C79.04160842449075,-288.1678173957029,319.34649035781376,-160.93926651412147,474.2496505469445,-118.41749178919872C629.1528107360753,-75.89571706427598,764.1265894417458,-96.45158242741316,929.4189611347847,-66.98723416746734C1094.7113328278238,-37.52288590752151,1300.9070408943091,6.128467733494205,1466.0038807051783,58.368597770476235C1631.1007205160474,110.60872780745827,1844.3339801175298,215.10605467376675,1920,246.45354605442486L 1920 1080 L 0 1080 Z" fill="url(#SvgjsLinearGradient1114)"></path>
    <path d="M0,-201.590385365009C83.07091201906195,-181.43534591082977,340.9203668162994,-133.90115037634592,498.4254721143717,-80.6601486399335C655.930577412444,-27.419146903521053,784.8369433722942,57.10746092022685,945.030631788434,117.85562505346562C1105.2243202045738,178.60378918670438,1297.0927079092833,239.92698075305444,1459.587602611211,283.82883615949913C1622.0824973131387,327.73069156594386,1843.2646004352018,365.02710393669474,1920,381.2667574921339L 1920 1080 L 0 1080 Z" fill="url(#SvgjsLinearGradient1115)"></path>
    <path d="M0,-33.63416772526917C47.6780582464032,-15.96083423927914,177.33119147463907,46.41110100621913,286.0683494784192,72.40583319067103C394.8055074821993,98.40056537512294,544.7016899181367,94.42533429032129,652.4229480226805,122.33422538144225C760.1442061272244,150.2431164725632,821.7535310304197,191.7337371148069,932.3958981056825,239.85917973739677C1043.0382651809452,287.98462235998664,1211.2490298926277,381.001694055225,1316.2771504742575,411.08688111698143C1421.3052710558873,441.17206817873785,1461.9441466745038,394.96666739116745,1562.564621595461,420.37030210793523C1663.185096516418,445.773936824703,1860.4274369325767,539.6522915326459,1920,563.508689417588L 1920 1080 L 0 1080 Z" fill="url(#SvgjsLinearGradient1116)"></path>
    <path d="M0,95.9271670338963C74.52819788494111,114.48044901393884,281.41647621524567,152.23778468319594,447.16918730964665,207.24685891415155C612.9218984040476,262.2559331451072,826.5615732330497,371.11744539871364,994.5162665664056,425.9816124196299C1162.4709598997617,480.8457794405462,1300.6500584041835,489.5361733658429,1454.8973473097826,536.4318610396492C1609.1446362153818,583.3275487134555,1842.482891218297,678.8684255586647,1920,707.3557384624678L 1920 1080 L 0 1080 Z" fill="url(#SvgjsLinearGradient1117)"></path>
    <path d="M0,194.0973578311501C48.38626561086619,200.04166794750728,208.61628962748176,197.6160298586342,290.31759366519714,229.7632185292932C372.0188977029125,261.9104071999522,392.7556203622214,352.6304104335345,490.20782422629213,386.9804898551041C587.6600280903629,421.3305692766737,766.8142510225026,413.38108444212145,875.0308168496215,435.86369505871085C983.2473826767404,458.34630567530024,1066.7844523542556,497.4679122847198,1139.5072191890051,521.8761535546404C1212.2299860237547,546.284394824561,1227.3661223597137,556.8413417218698,1311.367417858119,582.3131426782346C1395.3687133565245,607.7849436345995,1542.0762284891246,635.1238758149626,1643.514992179438,674.7069592928295C1744.9537558697514,714.2900427706965,1873.9191653632397,795.6275295033348,1920,819.8116435454359L 1920 1080 L 0 1080 Z" fill="url(#SvgjsLinearGradient1118)"></path>
</svg>