<svg class="canvas" viewBox="0 0 1920 1080" preserveAspectRatio="xMaxYMid slice"
    xmlns="http://www.w3.org/2000/svg" version="1.1"
    xmlns:xlink="http://www.w3.org/1999/xlink"
    xmlns:svgjs="http://svgjs.com/svgjs">
    <rect width="1920" height="1080" fill="hsl(47, 65%, 15%)"></rect>
    <defs>
        <linearGradient x1="0.5" y1="0" x2="0" y2="1" id="SvgjsLinearGradient1119">
            <stop stop-color="#eeedc4" offset="0"></stop>
            <stop stop-color="#4fcb4d" offset="0.1"></stop>
        </linearGradient>
        <linearGradient x1="0.5" y1="0" x2="0" y2="1" id="SvgjsLinearGradient1120">
            <stop stop-color="#eeedc4" offset="0"></stop>
            <stop stop-color="#4fcb4d" offset="0.22857142857142856"></stop>
        </linearGradient>
        <linearGradient x1="0.5" y1="0" x2="0" y2="1" id="SvgjsLinearGradient1121">
            <stop stop-color="#eedcc4" offset="0"></stop>
            <stop stop-color="#82cb4d" offset="0.3571428571428571"></stop>
        </linearGradient>
        <linearGradient x1="0.5" y1="0" x2="0" y2="1" id="SvgjsLinearGradient1122">
            <stop stop-color="#f2f1c0" offset="0"></stop>
            <stop stop-color="#44d742" offset="0.48571428571428565"></stop>
        </linearGradient>
        <linearGradient x1="0.5" y1="0" x2="0" y2="1" id="SvgjsLinearGradient1123">
            <stop stop-color="#f2f1c0" offset="0"></stop>
            <stop stop-color="#44d742" offset="0.6142857142857142"></stop>
        </linearGradient>
        <linearGradient x1="0.5" y1="0" x2="0" y2="1" id="SvgjsLinearGradient1124">
            <stop stop-color="#e8f2c0" offset="0"></stop>
            <stop stop-color="#42d75d" offset="0.7428571428571429"></stop>
        </linearGradient>
        <linearGradient x1="0.5" y1="0" x2="0" y2="1" id="SvgjsLinearGradient1125">
            <stop stop-color="#f2f1c0" offset="0"></stop>
            <stop stop-color="#44d742" offset="0.8714285714285713"></stop>
        </linearGradient>
    </defs>
    <path d="M0,-524.4442132065703C63.11998634469882,-513.8085458170368,255.02085163362017,-503.25197933426597,378.71991806819295,-460.63020886936897C502.41898450276574,-418.008438404472,606.1014790611781,-303.61790193484177,742.1943986074368,-268.7135904171884C878.2873181536955,-233.80927889953503,1071.4826826759427,-289.416043728587,1195.277435345745,-251.20433976344873C1319.0721880155475,-212.99263579831043,1364.1758205172093,-83.90338771917176,1484.9629146262519,-39.443366626358696C1605.7500087352944,5.016654466454369,1847.4938191043752,6.389261223464958,1920,15.55578679342969L 1920 1080 L 0 1080 Z" fill="url(#SvgjsLinearGradient1119)"></path>
    <path d="M0,-363.7292152913677C83.40510119840035,-339.32085524336304,339.2747847226559,-260.80054321506327,500.4306071904021,-217.27905500333955C661.5864296581483,-173.7575667916158,803.004926712867,-150.94132485142723,966.9349348064771,-102.6002860210253C1130.8649429000873,-54.259247190623356,1325.1664782198088,23.907713809843465,1484.0106557520626,72.7671779790721C1642.8548332843163,121.62664214830073,1847.3351092920104,170.92494549180083,1920,190.55649899434655L 1920 1080 L 0 1080 Z" fill="url(#SvgjsLinearGradient1120)"></path>
    <path d="M0,-235.89326483418154C45.66551177409425,-221.15211786651315,180.0297610828083,-183.32598147248603,273.9930706445655,-147.44638302817128C367.95638020632265,-111.56678458385653,479.39513673368924,-39.29541619574766,563.7798573705431,-20.615674168293012C648.164578007397,-1.9359321408383643,690.6318168690706,-45.11867528165405,780.3013944656888,-35.36793086344341C869.9709720623069,-25.617186445232775,1011.7892969949244,-4.793523282928902,1101.7973229502525,37.88879234097081C1191.8053489055806,80.57110796487052,1220.481255093543,189.7695019550435,1320.3495501976577,220.72596287995486C1420.2178453017723,251.68242380486623,1601.0653519412158,204.9688577475569,1701.0070935749395,223.62755789043894C1800.9488352086632,242.28625803332096,1883.50118226249,314.50306276277905,1920,332.6781637372471L 1920 1080 L 0 1080 Z" fill="url(#SvgjsLinearGradient1121)"></path>
    <path d="M0,-180.83190037509172C58.530682409348174,-166.3369915790191,219.46965628297838,-132.13747153186463,351.18409445608904,-93.86244759865593C482.89853262919974,-55.58742366544724,655.5308144502407,7.283324998776649,790.2866290386639,48.81824322416046C925.0424436270872,90.35316144954427,1030.6288581763272,121.07439400458077,1159.718981986629,155.34706175364693C1288.8091057969307,189.61972950271308,1438.113868898246,213.34121959715674,1564.8273719004744,254.45424971855743C1691.5408749027029,295.56727983995813,1860.8045619834124,377.4300770214689,1920,402.02524248205117L 1920 1080 L 0 1080 Z" fill="url(#SvgjsLinearGradient1122)"></path>
    <path d="M0,-58.11031871438139C43.39814744997589,-45.6809685310406,165.91239000168423,-9.765768429638513,260.38888469985534,16.465782385663374C354.86537939802645,42.69733320096526,468.64053602094197,72.68085891640189,566.8589681890268,99.27898617742993C665.0774003571115,125.87711343845797,764.1747036538551,149.3523399361468,849.699477708364,176.05454595183159C935.224251762873,202.75675196751638,991.3908491733008,227.27841923376042,1080.0076125160806,259.49222227153865C1168.6243758588603,291.7060253093169,1285.556687692623,334.5774082060411,1381.4000577650427,369.33736417850093C1477.2434278374624,404.09732015096074,1565.301175911439,439.76942906463495,1655.0678329505986,468.05195810629743C1744.8344899897581,496.3344871479599,1875.8446388250998,527.2024417081128,1920,539.0325384284758L 1920 1080 L 0 1080 Z" fill="url(#SvgjsLinearGradient1123)"></path>
    <path d="M0,70.20952204324904C64.62529290116008,95.523645448334,256.4895627963623,176.4577247569287,387.7517574069605,222.09426247375876C519.0139520175587,267.7308001905888,658.9281885174585,310.75354750688683,787.5731676635893,344.02874834422937C916.2181468097201,377.3039491815719,1031.537295815754,382.8874703974653,1159.6216322837452,421.74546749781393C1287.7059687517362,460.6034645981626,1429.3494585188264,533.8612932839869,1556.0791864715354,577.1767309463213C1682.8089144242444,620.4921686086557,1859.3465310785891,664.2278663842374,1920,681.6380934718205L 1920 1080 L 0 1080 Z" fill="url(#SvgjsLinearGradient1124)"></path>
    <path d="M0,199.35801982395955C77.48327907122207,228.95180084171244,312.05293154205617,320.9803028866973,464.89967442733246,376.9207059304768C617.7464173126087,432.8611089742563,754.8430376388429,493.9337172816654,917.0804573116578,535.0004380866367C1079.3178769844726,576.067158891608,1271.170935349498,574.9757195183697,1438.3241924642216,623.3210307603046C1605.4774495789452,671.6663420022394,1839.720698744037,791.4470930752552,1920,825.0723055382454L 1920 1080 L 0 1080 Z" fill="url(#SvgjsLinearGradient1125)"></path>
</svg>