<svg class="canvas" viewBox="0 0 1920 1080" preserveAspectRatio="xMaxYMid slice"
    xmlns="http://www.w3.org/2000/svg" version="1.1"
    xmlns:xlink="http://www.w3.org/1999/xlink"
    xmlns:svgjs="http://svgjs.com/svgjs">
    <rect width="1920" height="1080" fill="hsl(147, 65%, 15%)"></rect>
    <defs>
        <linearGradient x1="0.5" y1="0" x2="0" y2="1" id="SvgjsLinearGradient1126">
            <stop stop-color="#c4eec6" offset="0"></stop>
            <stop stop-color="#4dc5cb" offset="0.1"></stop>
        </linearGradient>
        <linearGradient x1="0.5" y1="0" x2="0" y2="1" id="SvgjsLinearGradient1127">
            <stop stop-color="#c4eece" offset="0"></stop>
            <stop stop-color="#4daccb" offset="0.22857142857142856"></stop>
        </linearGradient>
        <linearGradient x1="0.5" y1="0" x2="0" y2="1" id="SvgjsLinearGradient1128">
            <stop stop-color="#c4eee7" offset="0"></stop>
            <stop stop-color="#4d60cb" offset="0.3571428571428571"></stop>
        </linearGradient>
        <linearGradient x1="0.5" y1="0" x2="0" y2="1" id="SvgjsLinearGradient1129">
            <stop stop-color="#c0f2c2" offset="0"></stop>
            <stop stop-color="#42cfd7" offset="0.48571428571428565"></stop>
        </linearGradient>
        <linearGradient x1="0.5" y1="0" x2="0" y2="1" id="SvgjsLinearGradient1130">
            <stop stop-color="#c0f2d6" offset="0"></stop>
            <stop stop-color="#4294d7" offset="0.6142857142857142"></stop>
        </linearGradient>
        <linearGradient x1="0.5" y1="0" x2="0" y2="1" id="SvgjsLinearGradient1131">
            <stop stop-color="#c0f2cc" offset="0"></stop>
            <stop stop-color="#42b2d7" offset="0.7428571428571429"></stop>
        </linearGradient>
        <linearGradient x1="0.5" y1="0" x2="0" y2="1" id="SvgjsLinearGradient1132">
            <stop stop-color="#c0f2e0" offset="0"></stop>
            <stop stop-color="#4276d7" offset="0.8714285714285713"></stop>
        </linearGradient>
    </defs>
    <path d="M0,-530.8529223285298C33.969505293061346,-525.0983397229876,117.57095194361618,-528.240559369351,203.81703175836807,-496.3254266952769C290.06311157311995,-464.41029402120284,436.5558622956042,-365.0283494555808,517.4764788885113,-339.3621262840855C598.3970954814185,-313.6959031125902,611.7423075569257,-350.9136299093739,689.340731315811,-342.32808766630507C766.9391550746964,-333.7425454232362,895.5749015634841,-305.5416878763109,983.0670214418232,-287.8488728256724C1070.559141320162,-270.1560577750339,1141.4675617502205,-256.85872135115955,1214.2934505858452,-236.1711973624742C1287.11933942147,-215.48367337378886,1346.4401852101173,-201.43807971180408,1420.0223544555708,-163.72372889356038C1493.6045237010244,-126.00937807531668,1572.4568584678282,-38.69689354718379,1655.7864660585662,-9.885092453012028C1739.1160736493043,18.92670864115974,1875.964411009761,5.975049317389852,1920,9.147077671470228L 1920 1080 L 0 1080 Z" fill="url(#SvgjsLinearGradient1126)"></path>
    <path d="M0,-459.1354175976382C48.25715176116237,-439.8230096011808,175.53468822114257,-372.7092265113093,289.54291056697423,-343.26096961889374C403.5511329128059,-313.8127127264782,572.0430088082406,-305.9226798076977,684.0493340749898,-282.44587624314505C796.055659341739,-258.9690726785924,868.2287882377491,-235.16555542257535,961.5808621674695,-202.40014823157767C1054.93293609719,-169.63474104058,1137.6596232547547,-126.99608431547259,1244.1617776533121,-85.85343309715896C1350.6639320518696,-44.71078187884532,1487.9540848343663,14.288470780764985,1600.5937885588144,44.45575907830416C1713.2334922832624,74.62304737584334,1866.765631426469,86.70120708644745,1920,95.15029668807611L 1920 1080 L 0 1080 Z" fill="url(#SvgjsLinearGradient1127)"></path>
    <path d="M0,-238.44196069011326C57.00289341992576,-217.11052570036588,208.46366760891453,-141.35560755130751,342.0173605195546,-110.45335075162896C475.57105343019464,-79.55109395195042,673.4415498206637,-93.0909620868357,801.3221574638403,-53.02841989204199C929.202765107017,-12.965877697248281,978.9195263040649,83.51756388457281,1109.3010063786144,129.92190241713328C1239.6824864531638,176.32624094969376,1448.4945389742397,192.02968372595717,1583.6110379111374,225.39761130332084C1718.727536848035,258.7655388806845,1863.9351729851896,312.6741584516496,1920,330.12946788131535L 1920 1080 L 0 1080 Z" fill="url(#SvgjsLinearGradient1128)"></path>
    <path d="M0,-143.87885104860143C57.67041884167506,-124.98398077133463,236.51144052324872,-64.26866965650126,346.02251305005035,-30.50962938500058C455.533585576852,3.249410886500108,555.2831105736319,25.855359808543568,657.0664351608099,58.67539058040272C758.8497597479878,91.49542135226187,852.1761697843065,137.88325458368277,956.7224605731183,166.41055524615433C1061.26875136193,194.9378559086259,1180.8884646077327,208.2016571050102,1284.3441798936808,229.8391945552321C1387.799895179629,251.47673200545398,1471.5141156044206,261.3792637386007,1577.4567522888071,296.2357799474856C1683.3993889731937,331.0922961563705,1862.909458714801,415.18787316503216,1920,438.9782918085415L 1920 1080 L 0 1080 Z" fill="url(#SvgjsLinearGradient1129)"></path>
    <path d="M0,0.8852708383023611C45.13279831403673,13.082878709267591,184.17978945829407,38.14154832142983,270.79678988422035,74.07091806409375C357.4137903101466,110.00028780675765,428.7044209296045,185.33176232227237,519.7020025555578,216.46148929428588C610.6995841815111,247.5912162662994,728.3278567749196,245.084138169404,816.7822796399402,260.8492798961748C905.2367025049607,276.61442162294554,952.967823866252,278.0280353229856,1050.428539745681,311.05233965491044C1147.88925562511,344.0766439868353,1303.597834847391,426.5705158114319,1401.5465749165144,458.9951058877238C1499.4953149856378,491.4196959640157,1551.7120759798402,482.427709763756,1638.1209801604211,505.599880112662C1724.5298843410021,528.7720504615679,1873.0201633600702,582.6234200030767,1920,598.0281279811596L 1920 1080 L 0 1080 Z" fill="url(#SvgjsLinearGradient1130)"></path>
    <path d="M0,111.24246224781884C61.421101840558286,122.26979151314795,244.92776769112567,136.1736259374559,368.5266110433497,177.40643783979354C492.12545439557374,218.63924974213117,605.3343800996797,301.6075818713485,741.5930601133442,358.63933366184466C877.8517401270087,415.67108545234083,1063.2829131858364,474.55768042769944,1186.0786911253365,519.5969485827704C1308.8744690648366,564.6362167378414,1356.0475096045673,595.029261743334,1478.3677277503446,628.8749425922706C1600.6879458961218,662.7206234412072,1846.394621291724,707.038351829037,1920,722.6710336763903L 1920 1080 L 0 1080 Z" fill="url(#SvgjsLinearGradient1131)"></path>
    <path d="M0,243.0189823954862C66.69341192707287,261.6792575571003,269.2584965648922,309.8373348274918,400.16047156243724,354.9806333651706C531.0624465599823,400.1239319028494,661.0620639051663,464.62984844334886,785.4118499852705,513.8787736215589C909.7616360653747,563.1276987997691,1015.5743004538494,606.5694071839233,1146.2591880430625,650.4741844344311C1276.9440756322756,694.3789616849389,1440.5643735277258,740.9309231787157,1569.5211755205487,777.3074371246058C1698.4779775133716,813.6839510704959,1861.5868625867581,853.4956296122443,1920,868.733268109772L 1920 1080 L 0 1080 Z" fill="url(#SvgjsLinearGradient1132)"></path>
</svg>