<svg class="canvas" viewBox="0 0 1920 1080" preserveAspectRatio="xMaxYMid slice"
    xmlns="http://www.w3.org/2000/svg" version="1.1"
    xmlns:xlink="http://www.w3.org/1999/xlink"
    xmlns:svgjs="http://svgjs.com/svgjs">
    <rect width="1920" height="1080" fill="hsl(182, 65%, 15%)"></rect>
    <defs>
        <linearGradient x1="0.5" y1="0" x2="0" y2="1" id="SvgjsLinearGradient1147">
            <stop stop-color="#c4e4ee" offset="0"></stop>
            <stop stop-color="#6b4dcb" offset="0.1"></stop>
        </linearGradient>
        <linearGradient x1="0.5" y1="0" x2="0" y2="1" id="SvgjsLinearGradient1148">
            <stop stop-color="#c4dcee" offset="0"></stop>
            <stop stop-color="#844dcb" offset="0.22857142857142856"></stop>
        </linearGradient>
        <linearGradient x1="0.5" y1="0" x2="0" y2="1" id="SvgjsLinearGradient1149">
            <stop stop-color="#c4eede" offset="0"></stop>
            <stop stop-color="#4d7bcb" offset="0.3571428571428571"></stop>
        </linearGradient>
        <linearGradient x1="0.5" y1="0" x2="0" y2="1" id="SvgjsLinearGradient1150">
            <stop stop-color="#c0f2df" offset="0"></stop>
            <stop stop-color="#4278d7" offset="0.48571428571428565"></stop>
        </linearGradient>
        <linearGradient x1="0.5" y1="0" x2="0" y2="1" id="SvgjsLinearGradient1151">
            <stop stop-color="#c0f2df" offset="0"></stop>
            <stop stop-color="#4278d7" offset="0.6142857142857142"></stop>
        </linearGradient>
        <linearGradient x1="0.5" y1="0" x2="0" y2="1" id="SvgjsLinearGradient1152">
            <stop stop-color="#c0f0f2" offset="0"></stop>
            <stop stop-color="#4742d7" offset="0.7428571428571429"></stop>
        </linearGradient>
        <linearGradient x1="0.5" y1="0" x2="0" y2="1" id="SvgjsLinearGradient1153">
            <stop stop-color="#c0f0f2" offset="0"></stop>
            <stop stop-color="#4742d7" offset="0.8714285714285713"></stop>
        </linearGradient>
    </defs>
    <path d="M0,-520.0555202520316C66.26932276012369,-502.6698684327695,271.3292359797016,-451.4437375882846,397.6159365607421,-415.7416093364591C523.9026371417826,-380.03948108463356,627.5655796515076,-343.47904136338303,757.720203486243,-305.8427507410784C887.8748273209784,-268.2064601187738,1046.0920417885752,-224.51233658336005,1178.5436795691542,-189.92386560263148C1310.995317349733,-155.3353946219029,1428.8539767645752,-133.2899824151403,1552.4300301697162,-98.31192485670698C1676.0060835748573,-63.33386729827367,1858.7383383616193,0.23507898052249132,1920,19.944479747968387L 1920 1080 L 0 1080 Z" fill="url(#SvgjsLinearGradient1147)"></path>
    <path d="M0,-459.7582951206877C43.22194477382039,-447.26448779539885,168.87189377067187,-407.975477881331,259.33166864292235,-384.7954511689546C349.79144351517283,-361.61542445657824,447.13348219425177,-345.47194982379744,542.758649233503,-320.6781348464293C638.3838162727542,-295.8843198690612,735.7131739835979,-272.8611929047324,833.0826708784297,-236.03256130474568C930.4521677732614,-199.203929704759,1044.075777678881,-123.34225502226215,1126.9756306024935,-99.70634524650914C1209.875483526106,-76.07043547075614,1239.6199595269147,-111.37893608822004,1330.4817884201054,-94.2171026502276C1421.3436173132961,-77.05526921223516,1573.8935686983223,-28.19276492109682,1672.146603961638,3.264655381445543C1770.3996392249537,34.72207568398791,1878.691100660273,79.31695853442974,1920,94.52741916502659L 1920 1080 L 0 1080 Z" fill="url(#SvgjsLinearGradient1148)"></path>
    <path d="M0,-251.8658823643313C64.44881276810776,-230.36508930678878,256.9451698169894,-165.01451500561308,386.69287660864654,-122.86112401907613C516.4405834003037,-80.70773303253917,657.0340116491964,-40.12127122520499,778.4862407499428,1.054463554890468C899.9384698506892,42.23019833498593,991.6760498776168,83.99601530473197,1115.4062512131254,124.19328466149665C1239.136452548634,164.39055401826133,1386.7684906318482,210.15270277121184,1520.867448762994,242.2380796954786C1654.9664068941397,274.3234566197454,1853.4779081271656,304.2943017884942,1920,316.7055462070973L 1920 1080 L 0 1080 Z" fill="url(#SvgjsLinearGradient1149)"></path>
    <path d="M0,-201.2238170603266C42.767607367557055,-188.99337193693182,164.71776160508603,-151.85199882511444,256.60564420534234,-127.84114631995791C348.49352680559866,-103.83029381480141,452.808748743632,-92.57021652947975,551.3272956015379,-57.15870202938755C649.8458424594438,-21.74718752929534,757.8472282639439,55.45938091606247,847.7169253527777,84.62794068059534C937.5866224416116,113.79650044512822,1001.9567396022908,99.3728348130856,1090.5454781345406,117.85265655780971C1179.1342166667905,136.33247830253381,1279.5941150799767,165.6329297925684,1379.2493565462767,195.50687114893995C1478.9045980125766,225.3808125053115,1598.351819690053,266.075228921393,1688.4769269323401,297.09630469603906C1778.6020341746273,328.11738047068513,1881.41282115539,367.5438222800201,1920,381.6333257968163L 1920 1080 L 0 1080 Z" fill="url(#SvgjsLinearGradient1150)"></path>
    <path d="M0,-13.347011967779679C48.39049252824336,0.7296523120010292,182.22218635348315,43.5170718769658,290.34295516946014,71.11297371090457C398.4637239854371,98.70887554484334,537.8730278323955,119.84691377974283,648.724612895862,152.22839903585296C759.5761979593286,184.60988429196308,852.7804866147407,232.09392834212446,955.4524655502594,265.4018852475653C1058.124444485778,298.70984215300615,1158.4283299725323,309.605331198246,1264.7564865089744,352.0761404684981C1371.0846430454164,394.54694973875024,1484.2141525204077,481.606790084648,1593.421404768912,520.226740869078C1702.6286570174163,558.8466916535078,1865.570234128152,573.200994457411,1920,583.7958451750776L 1920 1080 L 0 1080 Z" fill="url(#SvgjsLinearGradient1151)"></path>
    <path d="M0,83.10393523756044C58.53381982019701,103.35511163241442,221.91488488586955,164.92424618364942,351.20291892118206,204.61099360668436C480.49095295649454,244.2977410297193,645.138800253405,276.0598127339899,775.7282042118751,321.22441977577006C906.3176081703452,366.38902681755025,1009.4825484324281,433.6456708056832,1134.7393426720027,475.5986358573655C1259.9961369115774,517.5516009090477,1396.3921934279904,536.4532316177359,1527.2689696493233,572.9422100858636C1658.1457458706561,609.4311885539913,1854.544828274887,674.2674572360872,1920,694.5325066661319L 1920 1080 L 0 1080 Z" fill="url(#SvgjsLinearGradient1152)"></path>
    <path d="M0,248.91910505316096C42.717655385472824,266.63772035515063,180.74614362087794,323.70210035775904,256.30593231283694,355.23079686509885C331.86572100479594,386.75949337243867,369.7384619131973,410.59158960377783,453.3587321517541,438.0912840971999C536.9790023903109,465.59097859062194,673.2100928483213,500.82384822830255,758.0275537441779,520.2289638256314C842.8450146400345,539.6340794229601,891.1656735030854,532.7126494475027,962.2634975268934,554.5219776811726C1033.3613215507014,576.3313059148426,1111.0742985471868,627.6816157663375,1184.6144978870263,651.0849332276512C1258.154697226866,674.4882506889649,1328.2661920693054,668.2083267943198,1403.504693565931,694.9418824490546C1478.7431950625564,721.6754381037894,1549.9629557944343,781.537682436328,1636.045506866779,811.4862671560601C1722.128057939124,841.4348518757921,1872.6742511444631,864.108870165549,1920,874.6333907674467L 1920 1080 L 0 1080 Z" fill="url(#SvgjsLinearGradient1153)"></path>
</svg>