<svg class="canvas" viewBox="0 0 1920 1080" preserveAspectRatio="xMaxYMid slice"
    xmlns="http://www.w3.org/2000/svg" version="1.1"
    xmlns:xlink="http://www.w3.org/1999/xlink"
    xmlns:svgjs="http://svgjs.com/svgjs">
    <rect width="1920" height="1080" fill="hsl(278, 65%, 15%)"></rect>
    <defs>
        <linearGradient x1="0.5" y1="0" x2="0" y2="1" id="SvgjsLinearGradient1168">
            <stop stop-color="#cec4ee" offset="0"></stop>
            <stop stop-color="#cb4dae" offset="0.1"></stop>
        </linearGradient>
        <linearGradient x1="0.5" y1="0" x2="0" y2="1" id="SvgjsLinearGradient1169">
            <stop stop-color="#dec4ee" offset="0"></stop>
            <stop stop-color="#cb4d7b" offset="0.22857142857142856"></stop>
        </linearGradient>
        <linearGradient x1="0.5" y1="0" x2="0" y2="1" id="SvgjsLinearGradient1170">
            <stop stop-color="#dec4ee" offset="0"></stop>
            <stop stop-color="#cb4d7b" offset="0.3571428571428571"></stop>
        </linearGradient>
        <linearGradient x1="0.5" y1="0" x2="0" y2="1" id="SvgjsLinearGradient1171">
            <stop stop-color="#cbc0f2" offset="0"></stop>
            <stop stop-color="#d742b4" offset="0.48571428571428565"></stop>
        </linearGradient>
        <linearGradient x1="0.5" y1="0" x2="0" y2="1" id="SvgjsLinearGradient1172">
            <stop stop-color="#dfc0f2" offset="0"></stop>
            <stop stop-color="#d74278" offset="0.6142857142857142"></stop>
        </linearGradient>
        <linearGradient x1="0.5" y1="0" x2="0" y2="1" id="SvgjsLinearGradient1173">
            <stop stop-color="#cbc0f2" offset="0"></stop>
            <stop stop-color="#d742b4" offset="0.7428571428571429"></stop>
        </linearGradient>
        <linearGradient x1="0.5" y1="0" x2="0" y2="1" id="SvgjsLinearGradient1174">
            <stop stop-color="#e9c0f2" offset="0"></stop>
            <stop stop-color="#d7425b" offset="0.8714285714285713"></stop>
        </linearGradient>
    </defs>
    <path d="M0,-549.0968175703638C39.34284836649987,-532.3589918637226,153.8925248546082,-473.5275121562199,236.05709019899922,-448.6698633305166C318.2216555433902,-423.81221450481326,416.6004265260259,-417.74455998217445,492.987392066346,-399.9509246161437C569.3743576066661,-382.15728925011297,620.3099101281424,-355.09852009857923,694.3788834409197,-341.9080511343321C768.447856753697,-328.71758217008494,851.3866777343783,-343.49404957495943,937.4012319430096,-320.80811083066067C1023.415786151641,-298.1221720863619,1126.694729641317,-241.31556392815608,1210.466208692708,-205.7924186685396C1294.237687744099,-170.2692734089231,1354.8320390274735,-132.9399116828626,1440.030106251356,-107.66923927296169C1525.2281734752387,-82.39856686306076,1641.6596297445624,-70.59712115956705,1721.654612036003,-54.168384209134075C1801.6495943274438,-37.7396472587011,1886.9424353393338,-16.60874534349218,1920,-9.096817570363804L 1920 1080 L 0 1080 Z" fill="url(#SvgjsLinearGradient1168)"></path>
    <path d="M0,-409.6437731954762C82.701244091313,-385.4917953921271,338.1671032463373,-313.79801429345173,496.20746454787803,-264.7319063753817C654.2478258494187,-215.66579845731167,784.7790523008954,-160.8560618062582,948.2421678092445,-115.24712568705604C1111.7052833175937,-69.63818956785389,1315.0265188995138,-34.39313412305117,1476.986157597973,8.921710339831186C1638.9457962964323,52.23655480271354,1846.1643595996622,122.02190263183698,1920,144.64194109023813L 1920 1080 L 0 1080 Z" fill="url(#SvgjsLinearGradient1169)"></path>
    <path d="M0,-311.52770047701136C80.9067737573112,-295.26677414919055,329.59661028270716,-269.32218120127106,485.4406425438672,-213.96214251008644C641.2846748050273,-158.60210381890184,780.7534498524559,-32.84514903890155,935.0641935669604,20.632531670096235C1089.374937281465,74.11021237909402,1247.1491370920544,67.50207567318012,1411.3051048308944,106.90394174390028C1575.4610725697344,146.30580781462044,1835.2175174718157,232.02043036933108,1920,257.04372809441725L 1920 1080 L 0 1080 Z" fill="url(#SvgjsLinearGradient1170)"></path>
    <path d="M0,-120.20699721928153C74.10772199003328,-101.52496966302846,277.3792365326628,-63.464535459222084,444.64633194019973,-8.114831881763116C611.9134273477366,47.23487169569585,831.0302020170454,154.15289039212826,1003.6025724452217,211.8912242454723C1176.1749428733979,269.62955809881635,1327.3476499167941,296.52201767290296,1480.0805545092571,338.31517123830116C1632.8134591017201,380.10832480369936,1846.6800924182096,441.9276499046013,1920,462.6501456378613L 1920 1080 L 0 1080 Z" fill="url(#SvgjsLinearGradient1171)"></path>
    <path d="M0,11.334716117470151C44.86690899958631,36.072746452248154,160.35018188047542,129.55767898119745,269.20145399751783,159.76289812613817C378.05272611456024,189.96811727107888,544.4926995361275,177.66805219906104,653.1076327022544,192.56603098711435C761.7225658683813,207.46400977516765,810.1549825024236,223.54831415145563,920.8910529942789,249.15077085445802C1031.627123486134,274.7532275574604,1198.9940349866165,313.22257229729513,1317.5240556533856,346.1807712051286C1436.0540763201548,379.1389701129621,1531.658519603791,403.1838306255926,1632.0711769948934,446.899964301459C1732.4838343859958,490.61609797732547,1872.0118628324822,581.5479717671826,1920,608.4775732603274L 1920 1080 L 0 1080 Z" fill="url(#SvgjsLinearGradient1172)"></path>
    <path d="M0,133.6758561966269C65.59477343663879,160.83998983839697,266.47398509110457,250.58753182116465,393.5686406198327,296.66065804724735C520.6632961485608,342.73378427333006,636.21751414692,380.16743127899747,762.5679331723687,410.11461355312315C888.9183521978174,440.06179582724883,1017.350136129867,443.55648744371587,1151.6711547725247,476.3437516920014C1285.9921734151824,509.1310159402869,1440.4392374904028,562.04475305397,1568.4940450283152,606.8381990428362C1696.5488525662277,651.6316450317024,1861.415674171386,722.0600561948047,1920,745.1044276251984L 1920 1080 L 0 1080 Z" fill="url(#SvgjsLinearGradient1173)"></path>
    <path d="M0,276.46908793152363C59.487077614516686,289.5277553475573,231.86197979215916,307.9290110435871,356.9224656871001,354.82109242772543C481.98295158204104,401.7131738118638,620.877743734781,507.3153179324569,750.3629153696457,557.8215762363536C879.8480870045105,608.3278345402504,1001.8776127209201,625.5332801781738,1133.8334954962888,657.858642251106C1265.7893782716576,690.1840043240381,1411.0704612712395,711.0529601081631,1542.098212021858,751.773748673947C1673.1259627724764,792.4945372397309,1857.0163686703097,877.1151028171657,1920,902.1833736458094L 1920 1080 L 0 1080 Z" fill="url(#SvgjsLinearGradient1174)"></path>
</svg>