<svg class="canvas" viewBox="0 0 1920 1080" preserveAspectRatio="xMaxYMid slice"
    xmlns="http://www.w3.org/2000/svg" version="1.1"
    xmlns:xlink="http://www.w3.org/1999/xlink"
    xmlns:svgjs="http://svgjs.com/svgjs">
    <rect width="1920" height="1080" fill="hsl(184, 65%, 15%)"></rect>
    <defs>
        <linearGradient x1="0.5" y1="0" x2="0" y2="1" id="SvgjsLinearGradient1175">
            <stop stop-color="#c4e3ee" offset="0"></stop>
            <stop stop-color="#6f4dcb" offset="0.1"></stop>
        </linearGradient>
        <linearGradient x1="0.5" y1="0" x2="0" y2="1" id="SvgjsLinearGradient1176">
            <stop stop-color="#c4eee0" offset="0"></stop>
            <stop stop-color="#4d77cb" offset="0.22857142857142856"></stop>
        </linearGradient>
        <linearGradient x1="0.5" y1="0" x2="0" y2="1" id="SvgjsLinearGradient1177">
            <stop stop-color="#c4eee8" offset="0"></stop>
            <stop stop-color="#4d5ecb" offset="0.3571428571428571"></stop>
        </linearGradient>
        <linearGradient x1="0.5" y1="0" x2="0" y2="1" id="SvgjsLinearGradient1178">
            <stop stop-color="#c0eef2" offset="0"></stop>
            <stop stop-color="#4c42d7" offset="0.48571428571428565"></stop>
        </linearGradient>
        <linearGradient x1="0.5" y1="0" x2="0" y2="1" id="SvgjsLinearGradient1179">
            <stop stop-color="#c0daf2" offset="0"></stop>
            <stop stop-color="#8742d7" offset="0.6142857142857142"></stop>
        </linearGradient>
        <linearGradient x1="0.5" y1="0" x2="0" y2="1" id="SvgjsLinearGradient1180">
            <stop stop-color="#c0eef2" offset="0"></stop>
            <stop stop-color="#4c42d7" offset="0.7428571428571429"></stop>
        </linearGradient>
        <linearGradient x1="0.5" y1="0" x2="0" y2="1" id="SvgjsLinearGradient1181">
            <stop stop-color="#c0eef2" offset="0"></stop>
            <stop stop-color="#4c42d7" offset="0.8714285714285713"></stop>
        </linearGradient>
    </defs>
    <path d="M0,-568.1055445488724C39.80476424406455,-551.4774887481992,141.35700788505608,-498.2160514773346,238.8285854643873,-468.3372097448331C336.3001630437185,-438.4583680123316,494.383548132147,-411.11482648231663,584.8294654759874,-388.83249415386354C675.2753828198278,-366.55016182541044,701.2887459097933,-355.57474742557525,781.5040895274298,-334.64321577411465C861.7194331450662,-313.71168412265405,964.2345741715629,-294.94106927441294,1066.1215271818062,-263.24330424509986C1168.0084801920493,-231.5455392157868,1292.8053590331697,-169.8818072070875,1392.8258075888891,-144.45662559823614C1492.8462561446086,-119.0314439893848,1578.3818531142708,-130.08406143355236,1666.2442185161226,-110.69221459199176C1754.1065839179744,-91.30036775043115,1877.707369752687,-41.86998955605903,1920,-28.105544548872487L 1920 1080 L 0 1080 Z" fill="url(#SvgjsLinearGradient1175)"></path>
    <path d="M0,-421.3907770048311C73.06746713957455,-400.93430835619455,317.53301684877044,-343.66624707965804,438.4048028374473,-298.6519651130118C559.2765888261241,-253.63768314636553,615.1891267141665,-186.5125004523333,725.2307159320611,-151.30508520495363C835.2723051499557,-116.09766995757394,969.3327905430668,-123.55861141832264,1098.654338144815,-87.40747362873364C1227.975885746563,-51.25633583914463,1364.2690579000193,28.884673047644256,1501.1600015425502,65.6017415325804C1638.050945185081,102.31881001751655,1850.193333590425,121.67940465616611,1920,132.89493728088325L 1920 1080 L 0 1080 Z" fill="url(#SvgjsLinearGradient1176)"></path>
    <path d="M0,-234.8154169462462C46.696602311402266,-219.61280867440044,173.665141531024,-169.4873154401346,280.1796138684136,-143.59976731517173C386.69408620580316,-117.71221919020886,525.6703290041715,-116.99130254650134,639.0868340243375,-79.4901281964689C752.5033390445034,-41.98895384643645,852.2631279149102,53.973340428254616,960.6786439894088,81.407278785023C1069.0941600639073,108.84121714179138,1173.706049323507,68.36472012755084,1289.5799304713291,85.11350194414138C1405.4538116191513,101.86228376073191,1550.8519192882302,140.4595514043927,1655.921930876342,181.8999696845662C1760.9919424644538,223.3403879647397,1875.9869884793902,308.4466713017464,1920,333.7560116251824L 1920 1080 L 0 1080 Z" fill="url(#SvgjsLinearGradient1177)"></path>
    <path d="M0,-182.6825253844576C33.32584399159711,-168.22258661085934,118.72813057245831,-120.54401155424102,199.95506394958267,-95.9228927428681C281.181997326707,-71.30177393149518,409.2230632116212,-58.67390571675763,487.36160026274615,-34.95581251622007C565.5001373138712,-11.237719315682515,599.3856772240589,14.115804162550667,668.7862862563325,46.385666460357236C738.186895288606,78.6555287581638,819.2802868546833,137.46777822045902,903.7652544563875,158.66336127061933C988.2502220580918,179.85894432077964,1078.6501838914048,159.87638849839814,1175.696091866558,173.5591647613191C1272.741999841711,187.24194102424005,1395.183737221361,211.70082434094996,1486.0407023073058,240.76001884814508C1576.8976673932505,269.8192133553402,1648.5113327667773,321.34523203373317,1720.8378823822263,347.91433180448985C1793.1644319976754,374.4834315752465,1886.8063137303711,391.46456986131943,1920,400.1746174726853L 1920 1080 L 0 1080 Z" fill="url(#SvgjsLinearGradient1178)"></path>
    <path d="M0,4.059899814376934C67.2266014781314,23.219068989858275,270.74410307057855,76.79216342000592,403.35960886878837,119.01491486726499C535.9751146669983,161.23766631452406,672.5249487130162,211.29770019249045,795.693034789259,257.3964084979314C918.8611208655017,303.4951168033724,1022.1010988856812,351.7583209284046,1142.368125326245,395.60716469991087C1262.635151766809,439.45600847141714,1387.6898809870167,486.2235390840816,1517.2951934326425,520.4894711269689C1646.9005058782682,554.7554031698561,1852.8825322387738,587.75054265219,1920,601.2027569572342L 1920 1080 L 0 1080 Z" fill="url(#SvgjsLinearGradient1179)"></path>
    <path d="M0,102.67700282105416C82.19163405224394,129.61970193289412,332.49409920610253,213.75331494336066,493.1498043134636,264.3331974920939C653.8055094208247,314.9130800408272,796.360810295565,351.9550165849963,963.9342306441665,406.1562981134537C1131.507650992768,460.3575796419111,1339.246031512434,538.2160073068098,1498.5903264050728,589.5408866628385C1657.9346212977116,640.8657660188671,1849.7650544008454,693.3447929851611,1920,714.1055742496256L 1920 1080 L 0 1080 Z" fill="url(#SvgjsLinearGradient1180)"></path>
    <path d="M0,266.3886100986592C82.7254278511433,292.5935089245959,329.7107558030747,373.6243234308997,496.3525671068598,423.61800305427926C662.9943784106449,473.6116826776588,843.9263568536513,517.4602485867124,999.8508678227109,566.3506878389366C1155.7753787917707,615.2411270911607,1278.5414442250028,662.6686039052895,1431.8996329212177,716.9606385676243C1585.2578216174327,771.2526732299591,1838.649938820203,862.9125196053916,1920,892.102895812945L 1920 1080 L 0 1080 Z" fill="url(#SvgjsLinearGradient1181)"></path>
</svg>