<svg class="canvas" viewBox="0 0 1920 1080" preserveAspectRatio="xMaxYMid slice"
    xmlns="http://www.w3.org/2000/svg" version="1.1"
    xmlns:xlink="http://www.w3.org/1999/xlink"
    xmlns:svgjs="http://svgjs.com/svgjs">
    <rect width="1920" height="1080" fill="hsl(325, 65%, 15%)"></rect>
    <defs>
        <linearGradient x1="0.5" y1="0" x2="0" y2="1" id="SvgjsLinearGradient1182">
            <stop stop-color="#eec4ed" offset="0"></stop>
            <stop stop-color="#cb4f4d" offset="0.1"></stop>
        </linearGradient>
        <linearGradient x1="0.5" y1="0" x2="0" y2="1" id="SvgjsLinearGradient1183">
            <stop stop-color="#eec4ed" offset="0"></stop>
            <stop stop-color="#cb4f4d" offset="0.22857142857142856"></stop>
        </linearGradient>
        <linearGradient x1="0.5" y1="0" x2="0" y2="1" id="SvgjsLinearGradient1184">
            <stop stop-color="#eec4dc" offset="0"></stop>
            <stop stop-color="#cb824d" offset="0.3571428571428571"></stop>
        </linearGradient>
        <linearGradient x1="0.5" y1="0" x2="0" y2="1" id="SvgjsLinearGradient1185">
            <stop stop-color="#f2c0f1" offset="0"></stop>
            <stop stop-color="#d74442" offset="0.48571428571428565"></stop>
        </linearGradient>
        <linearGradient x1="0.5" y1="0" x2="0" y2="1" id="SvgjsLinearGradient1186">
            <stop stop-color="#f2c0dd" offset="0"></stop>
            <stop stop-color="#d78042" offset="0.6142857142857142"></stop>
        </linearGradient>
        <linearGradient x1="0.5" y1="0" x2="0" y2="1" id="SvgjsLinearGradient1187">
            <stop stop-color="#f2c0c9" offset="0"></stop>
            <stop stop-color="#d7bb42" offset="0.7428571428571429"></stop>
        </linearGradient>
        <linearGradient x1="0.5" y1="0" x2="0" y2="1" id="SvgjsLinearGradient1188">
            <stop stop-color="#f2c0d3" offset="0"></stop>
            <stop stop-color="#d79e42" offset="0.8714285714285713"></stop>
        </linearGradient>
    </defs>
    <path d="M0,-578.7539120836291C42.824226861748336,-560.8463421340338,167.58273526129733,-490.1595924663634,256.94536117049,-471.3084923860574C346.3079870796827,-452.45739230575145,440.7549777429006,-490.77777550452106,536.1757554551561,-465.64731160179315C631.5965331674116,-440.51684769906524,733.5429943119966,-358.59303277774393,829.4700274440231,-320.52570896968984C925.3970605760496,-282.45838516163576,1018.2870150150615,-253.2849192946166,1111.737954247315,-237.24336875346864C1205.1888934795684,-221.2018182123207,1303.3389293723758,-242.3882287896746,1390.175662837544,-224.27640572280205C1477.0123963027122,-206.1645826559295,1544.4542988445814,-159.49284595876227,1632.758355038324,-128.57243035223345C1721.0624112320666,-97.65201474570463,1872.1263925063872,-53.7236651283965,1920,-38.7539120836291L 1920 1080 L 0 1080 Z" fill="url(#SvgjsLinearGradient1182)"></path>
    <path d="M0,-409.8262493381124C41.23595658175631,-398.98546583975826,153.52718433443016,-370.24633147148285,247.41573949053787,-344.7815483479877C341.3042946466456,-319.3167652244926,463.0494403873949,-283.11861692113024,563.3313309366462,-257.03755059714166C663.6132214858975,-230.95648427315308,758.4188015188377,-219.596141009632,849.1070827860457,-188.29515040405622C939.7953640532537,-156.99415979848044,1023.8951975130389,-96.9304631546748,1107.4610185398944,-69.23160696368704C1191.0268395667501,-41.53275077269929,1265.1350083799032,-39.41139281297198,1350.5020089471793,-22.102013258129702C1435.8690095144555,-4.792633703287418,1524.746690101414,6.864423997744744,1619.6630219435508,34.624670365366676C1714.5793537856875,62.38491673298861,1869.9438369905918,126.15366585056267,1920,144.45946494760187L 1920 1080 L 0 1080 Z" fill="url(#SvgjsLinearGradient1183)"></path>
    <path d="M0,-254.4808750841144C38.48325947701804,-242.1836525816838,138.69634477080405,-214.82106689975532,230.89955686210823,-180.69754006953085C323.1027689534124,-146.57401323930637,460.48481913173924,-81.39324775294006,553.219272547825,-49.739714102767465C645.9537259639106,-18.086180452594874,697.1290951599271,-14.698690876816112,787.3062773586224,9.2236618315047C877.4834595573177,33.146014539825515,990.605490512582,63.959769936389904,1094.2823657399965,93.7944021471574C1197.959240967411,123.6290343579249,1320.5302304328213,168.17203125850182,1409.3675287231092,188.23145509610964C1498.204827013397,208.29087893371747,1542.2007436022425,193.17442877427018,1627.3061554817243,214.15094517280428C1712.4115673612062,235.1274615713384,1871.2176925802873,297.43395210156257,1920,314.0905534873142L 1920 1080 L 0 1080 Z" fill="url(#SvgjsLinearGradient1184)"></path>
    <path d="M0,-134.24348949798326C43.83683956706138,-108.33395168302853,161.19030716115043,-5.758206803747466,263.0210374023683,21.213737391745163C364.85176764358613,48.185681587237795,488.32087045697256,12.263849437740696,610.984381447307,27.588175674972526C733.6478924376414,42.912501912204355,881.6114668192346,77.04029420215619,999.0021033443747,113.15969481513613C1116.392739869515,149.27909542811608,1218.8862776156748,212.7165866553137,1315.3282005981482,244.30457935285216C1411.7701235806217,275.8925720503906,1476.8750080055738,268.63613866598223,1577.6536412392159,302.6876510003668C1678.432274472858,336.7391633347514,1862.9422735398693,424.2926529660275,1920,448.6136533591596L 1920 1080 L 0 1080 Z" fill="url(#SvgjsLinearGradient1185)"></path>
    <path d="M0,-28.059047464740658C46.65157910882274,-2.144661759741087,172.08183820899416,86.18855573657918,279.9094746529364,127.42726676525676C387.73711109687866,168.66597779393436,530.0497492179502,197.56145941241124,646.9658186636536,219.37321870732487C763.8818881093571,241.1849780022385,875.1630625213215,235.5485544509101,981.4058913271567,258.2978225347385C1087.648720132992,281.04709061856687,1188.3265878418183,321.1847139455648,1284.4227914986648,355.8688272102951C1380.5189951555112,390.55294047502537,1452.0535785180123,430.8666717118167,1557.9831132682348,466.4025021231203C1663.9126480184573,501.9383325344239,1859.6638522113724,551.9702584189506,1920,569.0838096781166L 1920 1080 L 0 1080 Z" fill="url(#SvgjsLinearGradient1186)"></path>
    <path d="M0,78.57332976549003C39.09662122535502,92.42513030442215,148.45153672662497,138.851130885701,234.57972735213013,161.6841329990828C320.7079179776353,184.51713511246462,429.93446981917435,188.29060772440582,516.7691437530309,215.57134244578086C603.6038176868874,242.8520771671559,682.8442654471021,302.52244989508375,755.5877709552693,325.368541327333C828.3312764634366,348.21463275958223,880.5955121474453,327.16220831022304,953.2301768020345,352.6478910392764C1025.8648414566237,378.1335737683297,1118.0399601601403,445.23531884270403,1191.395758882804,478.2826377016529C1264.751557605468,511.3299565606018,1312.80946606167,535.9936538764885,1393.364969138018,550.9318041929695C1473.920472214366,565.8699545094505,1586.956272197229,544.7331901003574,1674.7287773408927,567.9115396005394C1762.5012824845564,591.0898891007214,1879.121462890149,669.6535075951411,1920,690.0019011940615L 1920 1080 L 0 1080 Z" fill="url(#SvgjsLinearGradient1187)"></path>
    <path d="M0,230.7735765348016C78.66257900266542,254.27688513937983,316.7972851787693,316.4558539017994,471.9754740159925,371.793428162271C627.1536628532158,427.13100242274265,771.3677173691001,500.50115344761105,931.0691330233393,562.7990220976312C1090.7705486775785,625.0968907476514,1265.362156778651,696.6325000371493,1430.183967941428,745.5806400623919C1595.0057791042047,794.5287800876346,1838.3639946569047,838.0033252179715,1920,856.4878622490874L 1920 1080 L 0 1080 Z" fill="url(#SvgjsLinearGradient1188)"></path>
</svg>