<svg class="canvas" viewBox="0 0 1920 1080" preserveAspectRatio="xMaxYMid slice"
    xmlns="http://www.w3.org/2000/svg" version="1.1"
    xmlns:xlink="http://www.w3.org/1999/xlink"
    xmlns:svgjs="http://svgjs.com/svgjs">
    <rect width="1920" height="1080" fill="hsl(237, 65%, 15%)"></rect>
    <defs>
        <linearGradient x1="0.5" y1="0" x2="0" y2="1" id="SvgjsLinearGradient1000">
            <stop stop-color="#d2c4ee" offset="0"></stop>
            <stop stop-color="#cb4d9f" offset="0.1"></stop>
        </linearGradient>
        <linearGradient x1="0.5" y1="0" x2="0" y2="1" id="SvgjsLinearGradient1001">
            <stop stop-color="#c4c6ee" offset="0"></stop>
            <stop stop-color="#c54dcb" offset="0.22857142857142856"></stop>
        </linearGradient>
        <linearGradient x1="0.5" y1="0" x2="0" y2="1" id="SvgjsLinearGradient1002">
            <stop stop-color="#e3c4ee" offset="0"></stop>
            <stop stop-color="#cb4d6d" offset="0.3571428571428571"></stop>
        </linearGradient>
        <linearGradient x1="0.5" y1="0" x2="0" y2="1" id="SvgjsLinearGradient1003">
            <stop stop-color="#e5c0f2" offset="0"></stop>
            <stop stop-color="#d74267" offset="0.48571428571428565"></stop>
        </linearGradient>
        <linearGradient x1="0.5" y1="0" x2="0" y2="1" id="SvgjsLinearGradient1004">
            <stop stop-color="#d1c0f2" offset="0"></stop>
            <stop stop-color="#d742a3" offset="0.6142857142857142"></stop>
        </linearGradient>
        <linearGradient x1="0.5" y1="0" x2="0" y2="1" id="SvgjsLinearGradient1005">
            <stop stop-color="#dbc0f2" offset="0"></stop>
            <stop stop-color="#d74285" offset="0.7428571428571429"></stop>
        </linearGradient>
        <linearGradient x1="0.5" y1="0" x2="0" y2="1" id="SvgjsLinearGradient1006">
            <stop stop-color="#d1c0f2" offset="0"></stop>
            <stop stop-color="#d742a3" offset="0.8714285714285713"></stop>
        </linearGradient>
    </defs>
    <path d="M0,-572.6518806825229C35.95202300636081,-565.7059768368038,132.68593355731306,-559.0016780436578,215.71213803816488,-530.976457608208C298.73834251901667,-502.9512371727581,417.9069878566728,-435.40089981750003,498.1572268851109,-404.5005580698239C578.407465913549,-373.6002163221478,624.8307039532134,-363.522716846063,697.2135722087935,-345.5744071221512C769.5964404643736,-327.6260973982393,842.46077285246,-316.1588014668309,932.4544364185916,-296.81069972635294C1022.4480999847233,-277.462597985875,1146.6989280880987,-246.67345886921316,1237.1755536055832,-229.48579667928362C1327.6521791230678,-212.29813448935408,1404.179036596377,-217.07100282022907,1475.3141895234987,-193.68472658677567C1546.4493424506204,-170.29845035332227,1589.8721694222304,-116.00694692927193,1663.986471168314,-89.16813927856313C1738.1007729143976,-62.32933162785433,1877.3310785280523,-42.071257115196246,1920,-32.65188068252287L 1920 1080 L 0 1080 Z" fill="url(#SvgjsLinearGradient1000)" style="transform: translate(0px, 0px);"></path>
    <path d="M0,-424.12004903589144C40.03170931407293,-409.5050533603746,149.22329591211246,-363.38470644723054,240.19025588443756,-336.4300749827903C331.15721585676266,-309.47544351835006,455.3470702923638,-284.4092778127058,545.8017598339507,-262.39226024924994C636.2564493755375,-240.37524268579412,695.8199792730782,-222.90183246155922,782.9183931339587,-204.32796960205536C870.0168069948393,-185.7541067425515,971.9086921782956,-184.75924127422905,1068.392242999234,-150.94908309222683C1164.8757938201725,-117.1389249102246,1272.1961365841016,-42.477119194458126,1361.819698059589,-1.4670205100420404C1451.4432595350763,39.543078174374045,1513.103561528757,73.1727280542922,1606.1336118521588,95.11150901426967C1699.1636621755606,117.05028997424715,1867.688935308693,124.32330587723064,1920,130.16566524982284L 1920 1080 L 0 1080 Z" fill="url(#SvgjsLinearGradient1001)" style="transform: translate(11.3789px, 14.6887px);"></path>
    <path d="M0,-307.4096952055517C56.39436543416779,-289.7106452908735,222.40221485180723,-228.6382342777273,338.36619260500674,-201.21539571748247C454.33017035820626,-173.79255715723764,584.4849674078147,-177.98395535760542,695.7838665191972,-142.87266384408267C807.0827656305797,-107.76137233055991,902.112053317222,-23.329749983647346,1006.1595872733019,9.452353363654126C1110.2071212293818,42.2344567109556,1230.3432656688874,27.682890341843336,1320.0690702556767,53.81995623972617C1409.794874842466,79.957022137609,1444.5259265033174,131.71778589659266,1544.514414794038,166.27474875095112C1644.5029030847586,200.83171160530958,1857.4190691323397,245.34723593005594,1920,261.1617333658769L 1920 1080 L 0 1080 Z" fill="url(#SvgjsLinearGradient1002)" style="transform: translate(22.7578px, 29.3774px);"></path>
    <path d="M0,-175.03249147081402C41.466435248134,-160.05928029435094,165.26222767704513,-105.11123094633238,248.79861148880397,-85.19322441203552C332.3349953005628,-65.27521787773865,426.7769480531875,-73.17623805872012,501.2183028705531,-55.52445226503285C575.6596576879188,-37.87266647134558,617.0130005143519,-3.866834816317983,695.4467403929978,20.71749035008805C773.8804802716436,45.30181551649408,887.7403366650248,62.5584997343702,971.8207421424285,91.98149873340334C1055.9011476198323,121.40449773243648,1120.5562545410673,165.3857676829907,1199.9291732574202,197.25548434428686C1279.302091973773,229.12520100558302,1364.1191877228175,262.5038692722472,1448.0582544405456,283.19979870118027C1531.9973211582737,303.89572813011335,1624.906615970546,300.66025213702716,1703.5635735637884,321.43106091788525C1782.2205311570308,342.20186969874334,1883.9272622606313,393.4257196415883,1920,407.82465138632887L 1920 1080 L 0 1080 Z" fill="url(#SvgjsLinearGradient1003)" style="transform: translate(34.1367px, 44.066px);"></path>
    <path d="M0,15.401540609562176C49.34944796795447,34.4731952617348,209.2233064980291,96.81056668655788,296.0966878077268,129.83146852259796C382.97006911742454,162.85237035863804,431.24816475608367,184.74484761134013,521.2402878581864,213.52695162580267C611.2324109602891,242.3090556402652,741.2190770881626,276.5458874828909,836.0494264203433,302.52409260937316C930.8797757525239,328.5022977358554,1000.5775920819224,346.399456737506,1090.22238385127,369.3961823846962C1179.8671756206177,392.3929080318864,1277.1832880109023,410.7253479690656,1373.9181770364294,440.5044464925143C1470.6530660619565,470.28354501596306,1579.6180808438378,519.3974483154043,1670.631718004433,548.0707735253885C1761.6453551650281,576.7440987353727,1878.4386196674054,601.7987937145809,1920,612.5443977524194L 1920 1080 L 0 1080 Z" fill="url(#SvgjsLinearGradient1004)" style="transform: translate(45.5156px, 58.7547px);"></path>
    <path d="M0,65.44621679145821C75.48669334701812,89.95659936252679,298.52555556092614,161.67267725673636,452.9201600821087,212.50851221786962C607.3147646032912,263.34434717900285,767.2928919314019,312.3599467887653,926.3676271270953,370.4612265582577C1085.4423623227885,428.5625063277501,1241.7631757774516,510.0472638911955,1407.368571256269,561.1161908348241C1572.9739667350864,612.1851177784528,1834.5614285427114,657.5816886558288,1920,676.8747882200297L 1920 1080 L 0 1080 Z" fill="url(#SvgjsLinearGradient1005)" style="transform: translate(56.8945px, 73.4434px);"></path>
    <path d="M0,222.86160197192373C58.41712755243032,238.3569436770485,250.46731503517748,277.26073700303755,350.50276531458195,315.8336522026722C450.5382155939864,354.4065674023069,494.2685631692196,422.14720095962605,600.2127016764267,454.2990931697317C706.1568401836338,486.45098537983733,880.4481344818095,475.2597504570909,986.1675963578246,508.74500546330614C1091.8870582338398,542.2302604695213,1125.8953074562307,622.8597328898579,1234.5294729325174,655.2106232070231C1343.163638408804,687.5615135241883,1523.7275013709639,670.6228032864326,1637.9725892155443,702.850347366297C1752.2176770601247,735.0778914461614,1872.9954315359241,824.2882976328908,1920,848.5758876862095L 1920 1080 L 0 1080 Z" fill="url(#SvgjsLinearGradient1006)" style="transform: translate(68.2734px, 88.1321px);"></path>
</svg>