<svg class="canvas" viewBox="0 0 1920 1080" preserveAspectRatio="xMaxYMid slice"
    xmlns="http://www.w3.org/2000/svg" version="1.1"
    xmlns:xlink="http://www.w3.org/1999/xlink"
    xmlns:svgjs="http://svgjs.com/svgjs">
    <rect width="1920" height="1080" fill="hsl(240, 65%, 15%)"></rect>
    <defs>
        <linearGradient x1="0.5" y1="0" x2="0" y2="1" id="SvgjsLinearGradient1196">
            <stop stop-color="#c4ccee" offset="0"></stop>
            <stop stop-color="#b24dcb" offset="0.1"></stop>
        </linearGradient>
        <linearGradient x1="0.5" y1="0" x2="0" y2="1" id="SvgjsLinearGradient1197">
            <stop stop-color="#c4ddee" offset="0"></stop>
            <stop stop-color="#804dcb" offset="0.22857142857142856"></stop>
        </linearGradient>
        <linearGradient x1="0.5" y1="0" x2="0" y2="1" id="SvgjsLinearGradient1198">
            <stop stop-color="#c4ddee" offset="0"></stop>
            <stop stop-color="#804dcb" offset="0.3571428571428571"></stop>
        </linearGradient>
        <linearGradient x1="0.5" y1="0" x2="0" y2="1" id="SvgjsLinearGradient1199">
            <stop stop-color="#c0d4f2" offset="0"></stop>
            <stop stop-color="#9b42d7" offset="0.48571428571428565"></stop>
        </linearGradient>
        <linearGradient x1="0.5" y1="0" x2="0" y2="1" id="SvgjsLinearGradient1200">
            <stop stop-color="#c0c0f2" offset="0"></stop>
            <stop stop-color="#d742d7" offset="0.6142857142857142"></stop>
        </linearGradient>
        <linearGradient x1="0.5" y1="0" x2="0" y2="1" id="SvgjsLinearGradient1201">
            <stop stop-color="#c0c0f2" offset="0"></stop>
            <stop stop-color="#d742d7" offset="0.7428571428571429"></stop>
        </linearGradient>
        <linearGradient x1="0.5" y1="0" x2="0" y2="1" id="SvgjsLinearGradient1202">
            <stop stop-color="#c0caf2" offset="0"></stop>
            <stop stop-color="#b942d7" offset="0.8714285714285713"></stop>
        </linearGradient>
    </defs>
    <path d="M0,-569.9941485605659C50.229745266738405,-551.5161338370365,192.36167411764848,-491.3421375212811,301.37847160043043,-459.12606021938956C410.3952690832124,-426.90998291749804,551.2433007834406,-402.01518888736086,654.1007848966918,-376.697684749217C756.958269009943,-351.3801806110731,810.5432468854407,-327.68863234329797,918.5233762799379,-307.2210353905263C1026.5035056744352,-286.75343843775465,1187.8524323284096,-282.78449426336084,1301.9815612636753,-253.89210303258704C1416.110690198941,-224.99971180181322,1500.295076768811,-171.18301375122027,1603.2981498915317,-133.86668800588342C1706.3012230142524,-96.55036226054656,1867.2163583152553,-47.30623846811886,1920,-29.994148560565947L 1920 1080 L 0 1080 Z" fill="url(#SvgjsLinearGradient1196)"></path>
    <path d="M0,-410.6651275610151C45.8099247038858,-396.9105554915907,177.76555910795366,-345.73390605557,274.8595482233148,-328.1376951444685C371.9535373386759,-310.54148423336704,486.3119271558233,-340.61605246965183,582.5639346921668,-305.0878620944062C678.8159422285102,-269.5596717191606,769.9952535705006,-157.76156953161058,852.3715934413754,-114.96855289299478C934.7479333122501,-72.17553625437898,980.7948601922537,-62.7577004204426,1076.8219739174156,-48.32976226271138C1172.8490876425774,-33.90182410498015,1339.998732817582,-52.15534730726186,1428.5342757923465,-28.400923946607413C1517.069818767111,-4.6465005859529604,1526.1242777313928,65.52652612266424,1608.0352317660017,94.19677790121534C1689.9461858006107,122.86702967976645,1868.0058719610004,135.38328525411856,1920,143.62058672469922L 1920 1080 L 0 1080 Z" fill="url(#SvgjsLinearGradient1197)"></path>
    <path d="M0,-319.7361139582773C51.12955162024042,-310.0668703019323,220.08832250929913,-293.72803342889273,306.7773097214425,-261.72065202020707C393.4662969335859,-229.7132706115214,438.4430266950761,-160.20672436716455,520.1339232728602,-127.6918255061634C601.8248198506443,-95.17692664516224,700.7154182467574,-88.50058094950427,796.9226891881472,-66.63125885420015C893.1299601295369,-44.76193675889604,1000.9448943524761,-23.9438317478452,1097.3775489211987,3.5241070656612905C1193.8102034899212,30.99204587916778,1282.0462065506922,69.52833883399236,1375.5186166004826,98.17637402683877C1468.991026650273,126.82440921968518,1567.4651119866883,150.30249479168762,1658.2120092199411,175.4123182227397C1748.958906453194,200.5221416537918,1876.3686682033235,236.5981485480827,1920,248.8353146131513L 1920 1080 L 0 1080 Z" fill="url(#SvgjsLinearGradient1198)"></path>
    <path d="M0,-180.6984511319912C59.757859971282755,-158.75856198117455,230.54154816587524,-89.29553930955547,358.54715982769653,-49.05911622709132C486.5527714895178,-8.82269314462718,640.2879570541401,21.16378148996752,768.0336699709278,60.720087362793656C895.7793828877155,100.27639323561979,992.5288869124611,151.75818600455236,1125.0214373284227,188.27871900986548C1257.5139877443844,224.7992520151786,1430.4925453547683,244.19662327545805,1562.9889724666978,279.8432853946724C1695.4853995786273,315.4899475138868,1860.498162077783,381.7727906700718,1920,402.1586917251517L 1920 1080 L 0 1080 Z" fill="url(#SvgjsLinearGradient1199)"></path>
    <path d="M0,-66.65766235397983C49.60248059617489,-47.320206631889235,195.33542074101632,18.60706369769734,297.61488357704934,49.36707197856378C399.89434641308236,80.12708025943022,501.8716437829231,86.10994012847878,613.6767770161982,117.90238733121879C725.4819102494733,149.69483453395878,853.3837935172076,205.32363786211738,968.4456829766999,240.1217551950038C1083.5075724361923,274.9198725278902,1203.3197679624775,286.9005364212059,1304.0481137731522,326.69109132853737C1404.7764595838269,366.4816462358688,1470.1571101362738,444.89940072893575,1572.8157578407483,478.8650846389924C1675.474405545223,512.830768549049,1862.1359596401248,521.8818430972299,1920,530.4851947888774L 1920 1080 L 0 1080 Z" fill="url(#SvgjsLinearGradient1200)"></path>
    <path d="M0,78.45869087974955C48.66275197958485,95.33088979474267,202.803003679014,148.74518016206383,291.9765118775091,179.6918843697083C381.1500200760042,210.63858857735278,443.7519920939891,235.061494196569,535.0410491909704,264.13891612561645C626.3301062879517,293.2163380546639,741.5879019406905,327.00215535510864,839.710854459397,354.156415943993C937.8338069781034,381.3106765328774,1038.8099647041868,394.3499071457796,1123.7787643032095,427.0644796589227C1208.7475639022323,459.77905217206586,1253.8346377965713,524.9636455201858,1349.523652053534,550.4438510228518C1445.2126663104968,575.9240565255179,1602.8334585205746,556.7051441273409,1697.9128498449857,579.945712674919C1792.9922411693967,603.1862812224972,1882.9854749741644,671.5636707027539,1920,689.8872623083209L 1920 1080 L 0 1080 Z" fill="url(#SvgjsLinearGradient1201)"></path>
    <path d="M0,246.74943416320957C48.84448013895746,258.6155491217434,201.0609924941068,291.1708467340052,293.06688083374473,317.9461239144126C385.07276917338265,344.72140109482007,470.4364826122161,371.12575531549027,552.0353300378274,407.40109724565406C633.6341774634387,443.67643917581785,692.4341716568871,502.3576486203677,782.6599653874127,535.5981754953955C872.8857591179384,568.8387023704232,1002.510419815857,574.4536960282284,1093.3900924209813,606.8442584958208C1184.2697650261057,639.2348209634132,1228.863092764378,704.2543815342066,1327.9380010181592,729.9415503009501C1427.0129092719403,755.6287190676936,1589.162542113362,737.2135761668576,1687.8395419436688,760.9672710962818C1786.5165417739756,784.720966025706,1881.3065903239449,853.8809784139597,1920,872.4637198774954L 1920 1080 L 0 1080 Z" fill="url(#SvgjsLinearGradient1202)"></path>
</svg>