<svg class="canvas" viewBox="0 0 1920 1080" preserveAspectRatio="xMaxYMid slice"
    xmlns="http://www.w3.org/2000/svg" version="1.1"
    xmlns:xlink="http://www.w3.org/1999/xlink"
    xmlns:svgjs="http://svgjs.com/svgjs">
    <rect width="1920" height="1080" fill="hsl(289, 65%, 15%)"></rect>
    <defs>
        <linearGradient x1="0.5" y1="0" x2="0" y2="1" id="SvgjsLinearGradient1210">
            <stop stop-color="#dec4ee" offset="0"></stop>
            <stop stop-color="#cb4d7e" offset="0.1"></stop>
        </linearGradient>
        <linearGradient x1="0.5" y1="0" x2="0" y2="1" id="SvgjsLinearGradient1211">
            <stop stop-color="#dec4ee" offset="0"></stop>
            <stop stop-color="#cb4d7e" offset="0.22857142857142856"></stop>
        </linearGradient>
        <linearGradient x1="0.5" y1="0" x2="0" y2="1" id="SvgjsLinearGradient1212">
            <stop stop-color="#eec4e5" offset="0"></stop>
            <stop stop-color="#cb684d" offset="0.3571428571428571"></stop>
        </linearGradient>
        <linearGradient x1="0.5" y1="0" x2="0" y2="1" id="SvgjsLinearGradient1213">
            <stop stop-color="#d5c0f2" offset="0"></stop>
            <stop stop-color="#d74299" offset="0.48571428571428565"></stop>
        </linearGradient>
        <linearGradient x1="0.5" y1="0" x2="0" y2="1" id="SvgjsLinearGradient1214">
            <stop stop-color="#f2c0f1" offset="0"></stop>
            <stop stop-color="#d74442" offset="0.6142857142857142"></stop>
        </linearGradient>
        <linearGradient x1="0.5" y1="0" x2="0" y2="1" id="SvgjsLinearGradient1215">
            <stop stop-color="#d5c0f2" offset="0"></stop>
            <stop stop-color="#d74299" offset="0.7428571428571429"></stop>
        </linearGradient>
        <linearGradient x1="0.5" y1="0" x2="0" y2="1" id="SvgjsLinearGradient1216">
            <stop stop-color="#d5c0f2" offset="0"></stop>
            <stop stop-color="#d74299" offset="0.8714285714285713"></stop>
        </linearGradient>
    </defs>
    <path d="M0,-545.7666518464359C56.432299096863765,-526.5382500505586,205.72998037008284,-465.49859225510994,338.5937945811826,-430.3962410711721C471.4576087922823,-395.29388988723423,659.6799835119496,-373.62653404241354,797.1828852665984,-335.15254474280874C934.6857870212473,-296.67855544320395,1047.486487407776,-235.50123135304318,1163.6112051090756,-199.55230527354334C1279.7359228103753,-163.6033791940435,1367.8663923259091,-151.75659717032767,1493.9311914743967,-119.45898826580977C1619.9959906228842,-87.16137936129186,1848.9885319123994,-24.715374582998262,1920,-5.766651846435963L 1920 1080 L 0 1080 Z" fill="url(#SvgjsLinearGradient1210)"></path>
    <path d="M0,-433.9023819546027C47.876970053618386,-414.4143187732135,181.66028566819995,-344.9018821809647,287.26182032171033,-316.9740028662675C392.8633549752207,-289.04612355157025,528.2422564590041,-294.99913291209316,633.6092079210624,-266.3351060664192C738.9761593831207,-237.6710792207452,815.1055190430982,-174.81842498553564,919.4635290940602,-144.98984179222356C1023.8215391450221,-115.16125859891147,1148.9094052967166,-121.1981165279069,1259.7572682268346,-87.3636069065467C1370.6051311569527,-53.529097285186516,1474.5102513792413,23.39272606299454,1584.550706674769,58.0172159359376C1694.5911619702965,92.64170580888066,1864.091784445795,109.98897959858263,1920,120.38333233111163L 1920 1080 L 0 1080 Z" fill="url(#SvgjsLinearGradient1211)"></path>
    <path d="M0,-279.34784783916473C63.992150981828395,-261.9157367152388,251.9806784368063,-220.21894122749174,383.9529058909704,-174.75518109560898C515.9251333451344,-129.2914209637262,668.376944332135,-42.1223693677099,791.8333647249844,-6.565287047868125C915.2897851178338,28.99179527197365,1007.387608407192,6.196540754220443,1124.6914282480668,38.587312823441664C1241.9952480889417,70.97808489266288,1363.1048551449112,146.00663404932214,1495.6562837702334,187.7793453674592C1628.2077123955555,229.55205668559626,1849.276047295039,272.31620817146313,1920,289.22358073226394L 1920 1080 L 0 1080 Z" fill="url(#SvgjsLinearGradient1212)"></path>
    <path d="M0,-187.3076580331073C69.70774700712417,-170.0969176850827,290.81010653470037,-122.3201868289254,418.246482042745,-84.0432159449598C545.6828575507897,-45.766245060994194,638.0633104688045,-0.9197148124766841,764.6182530482679,42.35416727068634C891.1731956277313,85.62804935384936,1053.241596365679,134.1399703656491,1177.576137519525,175.60007655401836C1301.910678673371,217.0601827423876,1386.8881895579307,254.4565696892323,1510.625499971343,291.11480440090185C1634.3628103847554,327.7730391125714,1851.7709166618906,378.14370475351336,1920,395.54948482403563L 1920 1080 L 0 1080 Z" fill="url(#SvgjsLinearGradient1213)"></path>
    <path d="M0,22.351441274026683C55.547785863667634,41.703934905047305,228.49637409937822,109.588952201038,333.2867151820058,138.46640306015044C438.0770562646334,167.3438539192629,522.9065238473112,167.08396650876412,628.7420464957656,195.61614642870137C734.5775691442201,224.14832634863862,856.74916076264,273.4771526478992,968.2998510727325,309.6594825797739C1079.850541382825,345.84181251164864,1195.1602923760502,376.83417783839604,1298.0461883563205,412.71012601994977C1400.9320843365908,448.5860742015035,1481.9562583470743,490.45114293627375,1585.6152269543543,524.9151716690961C1689.2741955616343,559.3792004019185,1864.2692044923924,603.731110625586,1920,619.4942984168839L 1920 1080 L 0 1080 Z" fill="url(#SvgjsLinearGradient1214)"></path>
    <path d="M0,130.47419293926572C65.71430332710425,152.92559836917215,264.291843780977,228.8332247685065,394.2858199626255,265.18262551870436C524.2797961442741,301.5320262689022,656.2699022645061,311.05406199935777,779.9638570898911,348.57059744045284C903.6578119152762,386.0871328815479,1011.1374082883024,445.13845698174475,1136.4495489149358,490.28183816527485C1261.7616895415692,535.425219348805,1401.2449590021806,577.4940635078732,1531.8367008496914,619.4308845416335C1662.4284426972022,661.3677055753939,1855.3061168082818,721.4907843968032,1920,741.9027643678371L 1920 1080 L 0 1080 Z" fill="url(#SvgjsLinearGradient1215)"></path>
    <path d="M0,203.22537195363833C40.990465445487,211.4310491783749,149.28158170681417,224.99481632545962,245.942792672922,252.45943530205784C342.6040036390298,279.92405427865606,486.9545805678656,336.54520872786094,579.967265796647,368.01308581322763C672.9799510254284,399.4809628985943,723.1411633901355,408.621480049285,804.0189040456102,441.2666978142579C884.8966447010848,473.91191557923077,970.4817686131295,536.3507461964887,1065.2337097294946,563.8843924030648C1159.9856508458597,591.4180386096409,1274.5204200356798,580.0331028349989,1372.530550743801,606.4685750537147C1470.5406814519224,632.9040472724306,1562.0495857688568,685.4187119463252,1653.2944939782233,722.4972257153601C1744.5394021875898,759.575739484395,1875.5490823297039,811.1992523424968,1920,828.9396576679242L 1920 1080 L 0 1080 Z" fill="url(#SvgjsLinearGradient1216)"></path>
</svg>