<svg class="canvas" viewBox="0 0 1920 1080" preserveAspectRatio="xMaxYMid slice"
    xmlns="http://www.w3.org/2000/svg" version="1.1"
    xmlns:xlink="http://www.w3.org/1999/xlink"
    xmlns:svgjs="http://svgjs.com/svgjs">
    <rect width="1920" height="1080" fill="hsl(254, 65%, 15%)"></rect>
    <defs>
        <linearGradient x1="0.5" y1="0" x2="0" y2="1" id="SvgjsLinearGradient1217">
            <stop stop-color="#c5c4ee" offset="0"></stop>
            <stop stop-color="#cb4dc7" offset="0.1"></stop>
        </linearGradient>
        <linearGradient x1="0.5" y1="0" x2="0" y2="1" id="SvgjsLinearGradient1218">
            <stop stop-color="#c4d3ee" offset="0"></stop>
            <stop stop-color="#9d4dcb" offset="0.22857142857142856"></stop>
        </linearGradient>
        <linearGradient x1="0.5" y1="0" x2="0" y2="1" id="SvgjsLinearGradient1219">
            <stop stop-color="#c4cbee" offset="0"></stop>
            <stop stop-color="#b64dcb" offset="0.3571428571428571"></stop>
        </linearGradient>
        <linearGradient x1="0.5" y1="0" x2="0" y2="1" id="SvgjsLinearGradient1220">
            <stop stop-color="#c0d2f2" offset="0"></stop>
            <stop stop-color="#a042d7" offset="0.48571428571428565"></stop>
        </linearGradient>
        <linearGradient x1="0.5" y1="0" x2="0" y2="1" id="SvgjsLinearGradient1221">
            <stop stop-color="#c0c8f2" offset="0"></stop>
            <stop stop-color="#be42d7" offset="0.6142857142857142"></stop>
        </linearGradient>
        <linearGradient x1="0.5" y1="0" x2="0" y2="1" id="SvgjsLinearGradient1222">
            <stop stop-color="#cbc0f2" offset="0"></stop>
            <stop stop-color="#d742b4" offset="0.7428571428571429"></stop>
        </linearGradient>
        <linearGradient x1="0.5" y1="0" x2="0" y2="1" id="SvgjsLinearGradient1223">
            <stop stop-color="#cbc0f2" offset="0"></stop>
            <stop stop-color="#d742b4" offset="0.8714285714285713"></stop>
        </linearGradient>
    </defs>
    <path d="M0,-533.6267093655581C41.59794690738166,-516.5750360157061,152.16660317717566,-456.86234213534397,249.58768144428996,-431.316669266446C347.00875971140425,-405.77099639754806,487.58581610184905,-406.3437221360504,584.5264696026859,-380.35267215217056C681.4671231035227,-354.3616221682907,742.0368689887745,-295.0449224514118,831.231602449311,-275.3703693631668C920.4263359098476,-255.69581627492175,1035.942460659307,-276.6709794492499,1119.6948703659052,-262.3053536227003C1203.4472800725034,-247.9397277961507,1244.7740106494075,-220.36639344842968,1333.7460606889003,-189.1766144038691C1422.7181107283932,-157.98683535930854,1555.8181807176798,-107.7583301950554,1653.527170602863,-75.16667935533688C1751.2361604880462,-42.57502851561837,1875.5878617671437,-7.216704363854527,1920,6.373290634441943L 1920 1080 L 0 1080 Z" fill="url(#SvgjsLinearGradient1217)"></path>
    <path d="M0,-369.141006860656C45.62058993326756,-360.9385315558928,167.09993697352536,-345.7546290170508,273.7235395996054,-319.9261550320769C380.3471422256854,-294.09768104710304,532.7537292851922,-254.5336943430288,639.7416157564802,-214.17016295081285C746.7295022277682,-173.8066315585969,809.9319600940653,-116.91473433635622,915.6508584273332,-77.74496667878122C1021.3697567606011,-38.57519902120624,1153.2635724055312,-11.720840044729435,1274.055005756088,20.84844299463709C1394.8464391066445,53.417726034003614,1532.7419594900216,90.28802081901439,1640.3994585306737,117.67073155741792C1748.0569575713257,145.05344229582147,1873.3999097551123,173.89904478045156,1920,185.1447074250583L 1920 1080 L 0 1080 Z" fill="url(#SvgjsLinearGradient1218)"></path>
    <path d="M0,-258.0353537434735C67.5974262418873,-236.41840643918684,279.9780850840025,-169.98791012484975,405.5845574513238,-128.33366991775358C531.1910298186451,-86.67942971065743,622.4358876445403,-49.86013591299943,753.638834203928,-8.10991250089657C884.8417807633157,33.64031091120629,1071.8650590007217,97.64596402738071,1192.8022368076502,122.16767055486362C1313.7394146145787,146.6893770823465,1358.062273846774,107.62559261848558,1479.261901045499,139.02032666400083C1600.461528244224,170.4150607095161,1846.5436501742497,281.9501168006294,1920,310.53607482795513L 1920 1080 L 0 1080 Z" fill="url(#SvgjsLinearGradient1219)"></path>
    <path d="M0,-193.9132651852695C44.35813280366972,-179.95488684804172,171.51981390782225,-134.40713009540724,266.1487968220183,-110.16299516190286C360.77777973621437,-85.91886022839849,479.6253246853942,-71.72255708382941,567.7738974851765,-48.44845558424325C655.9224702849588,-25.174354084657082,706.5954630820145,0.40371294518659084,795.0402336207118,29.481613835614134C883.4850041594091,58.55951472604168,999.7400245638972,91.41587036728333,1098.4425207173604,126.01894975832201C1197.1450168708236,160.62202914936069,1300.7364970515478,203.20703650424355,1387.2552105414907,237.10009018184613C1473.7739240314336,270.9931438594487,1528.7640034139336,304.06997390893287,1617.5548016570185,329.3772718239374C1706.3455999001035,354.68456973894195,1869.5924669428364,379.01611003055075,1920,388.9438776718734L 1920 1080 L 0 1080 Z" fill="url(#SvgjsLinearGradient1220)"></path>
    <path d="M0,-43.957923988171004C69.73404269709137,-22.367865930092247,293.29610687856126,38.58123274846907,418.40425618254824,85.58242436030156C543.5124054865353,132.58361597213406,627.5426383290197,198.87496949561222,750.6488958239219,238.0492256828239C873.755153318824,277.2234818700356,1019.1536743194849,288.6807417629958,1157.041801151961,320.62796148357165C1294.929927984437,352.5751812041475,1450.8179570107711,390.97304872775993,1577.9776568187776,429.732544006279C1705.1373566267841,468.49203928479807,1862.996276136463,532.609534963285,1920,553.1849331546862L 1920 1080 L 0 1080 Z" fill="url(#SvgjsLinearGradient1221)"></path>
    <path d="M0,145.20911954485047C44.209607838198075,165.00326540721474,192.7754534357761,235.17466746435034,265.25764702918843,263.97399471903606C337.7398406226008,292.77332197372175,364.7474625161677,293.6960358045655,434.8931615604741,318.00508307296474C505.0388606047805,342.314130341364,594.3530692137464,395.6517296140859,686.1318412950268,409.8282783294315C777.9106133763072,424.0048270447771,895.3352636057966,384.35736609921196,985.5657940481567,403.06437536503813C1075.7963244905168,421.7713846308643,1145.3603658425734,488.1213029782497,1227.515023949187,522.0703339243885C1309.6696820558006,556.0193648705273,1406.8770820588627,577.3134305662303,1478.493742687839,606.758561041871C1550.110403316815,636.2036915175116,1583.6306115043512,673.7612617896406,1657.2149877230447,698.7411167782324C1730.7993639417382,723.7209717668242,1876.2024979538407,746.9882619408904,1920,756.637690973422L 1920 1080 L 0 1080 Z" fill="url(#SvgjsLinearGradient1222)"></path>
    <path d="M0,191.10767341022705C37.2874415003079,208.17829184868714,122.68354994419992,261.09498385326015,223.7246490018474,293.5313840409875C324.7657480594949,325.9677842287149,497.61054276303526,364.88838082580577,606.2465943458849,385.7260745365914C714.8826459287345,406.563768247377,795.2400104897478,395.79346141887106,875.5409584989452,418.5575463057014C955.8419065081426,441.32163119253175,1004.0487530744019,491.6764032741487,1088.0522824010693,522.3105838575735C1172.0558117277367,552.9447644409984,1285.2122547360902,565.1090176652618,1379.5621344589492,602.3626298062503C1473.9120141818082,639.6162419472388,1564.0785831480484,710.0890351504609,1654.1515607382235,745.8322567035046C1744.2245383283985,781.5754782565484,1875.691926789704,804.9903420543449,1920,816.8219591245129L 1920 1080 L 0 1080 Z" fill="url(#SvgjsLinearGradient1223)"></path>
</svg>