<svg class="canvas" viewBox="0 0 1920 1080" preserveAspectRatio="xMaxYMid slice"
    xmlns="http://www.w3.org/2000/svg" version="1.1"
    xmlns:xlink="http://www.w3.org/1999/xlink"
    xmlns:svgjs="http://svgjs.com/svgjs">
    <rect width="1920" height="1080" fill="hsl(76, 65%, 15%)"></rect>
    <defs>
        <linearGradient x1="0.5" y1="0" x2="0" y2="1" id="SvgjsLinearGradient1224">
            <stop stop-color="#e3eec4" offset="0"></stop>
            <stop stop-color="#4dcb6f" offset="0.1"></stop>
        </linearGradient>
        <linearGradient x1="0.5" y1="0" x2="0" y2="1" id="SvgjsLinearGradient1225">
            <stop stop-color="#c4eec7" offset="0"></stop>
            <stop stop-color="#4dc3cb" offset="0.22857142857142856"></stop>
        </linearGradient>
        <linearGradient x1="0.5" y1="0" x2="0" y2="1" id="SvgjsLinearGradient1226">
            <stop stop-color="#d2eec4" offset="0"></stop>
            <stop stop-color="#4dcba1" offset="0.3571428571428571"></stop>
        </linearGradient>
        <linearGradient x1="0.5" y1="0" x2="0" y2="1" id="SvgjsLinearGradient1227">
            <stop stop-color="#e4f2c0" offset="0"></stop>
            <stop stop-color="#42d769" offset="0.48571428571428565"></stop>
        </linearGradient>
        <linearGradient x1="0.5" y1="0" x2="0" y2="1" id="SvgjsLinearGradient1228">
            <stop stop-color="#c0f2c3" offset="0"></stop>
            <stop stop-color="#42cdd7" offset="0.6142857142857142"></stop>
        </linearGradient>
        <linearGradient x1="0.5" y1="0" x2="0" y2="1" id="SvgjsLinearGradient1229">
            <stop stop-color="#c7f2c0" offset="0"></stop>
            <stop stop-color="#42d7c3" offset="0.7428571428571429"></stop>
        </linearGradient>
        <linearGradient x1="0.5" y1="0" x2="0" y2="1" id="SvgjsLinearGradient1230">
            <stop stop-color="#e4f2c0" offset="0"></stop>
            <stop stop-color="#42d769" offset="0.8714285714285713"></stop>
        </linearGradient>
    </defs>
    <path d="M0,-528.4376058327815C54.84458114734671,-509.2577301241053,225.23624112034304,-444.008787254084,329.06748688408027,-413.35835158072433C432.8987326478175,-382.7079159073647,518.6474704652983,-367.43607143636893,622.9874745824233,-344.5349917926237C727.3274786995482,-321.6339121488785,844.5010248117056,-302.02427904350685,955.1075115868302,-275.9518737182532C1065.7139983619547,-249.8794683929995,1183.278208979467,-216.78189053386265,1286.6263952331708,-188.10055984110167C1389.9745814868745,-159.4192291483407,1469.6343616479146,-137.14104856307404,1575.1966291090528,-103.86388956168733C1680.758896570191,-70.58673056030062,1862.5327715181754,-7.675319787599111,1920,11.562394167218535L 1920 1080 L 0 1080 Z" fill="url(#SvgjsLinearGradient1224)"></path>
    <path d="M0,-422.3246175218647C44.78833699966986,-407.3076681132702,183.10302124818162,-362.2120908200583,268.73002199801914,-332.22292107029773C354.35702274785666,-302.2337513205372,426.51751057415066,-264.5354442713463,513.7620044990251,-242.3895990233013C601.0064984238996,-220.24375377525627,700.3767439165606,-221.62143455794268,792.196985547266,-199.34784958202766C884.0172271779713,-177.07426460611265,964.4853773898967,-140.30682557453963,1064.683454283257,-108.74808916781114C1164.8815311766175,-77.18935276108265,1299.4646340773224,-33.09305231482689,1393.385446907428,-9.995431141656681C1487.3062597375338,13.10219003151353,1540.439239081796,6.178216553625727,1628.2083312638913,29.837637871210106C1715.9774234459867,53.49705918879448,1871.3680552106484,114.94052028174303,1920,131.9610967638496L 1920 1080 L 0 1080 Z" fill="url(#SvgjsLinearGradient1225)"></path>
    <path d="M0,-314.31820008239305C66.20438324311621,-295.2515400589864,260.4355269213123,-233.46589294488686,397.22629945869727,-199.91823994195317C534.0170719960822,-166.3705869390195,690.8849396576069,-157.87949414982324,820.7446352243097,-113.03228206479095C950.6043307910126,-68.18506997975865,1058.6479225225792,31.850816632786724,1176.3844728589145,69.1650325682406C1294.1210231952498,106.47924850369449,1403.228016052141,80.00498089446648,1527.163937242322,110.8530135479323C1651.099858432503,141.70104620139813,1854.5273228737203,230.35319266551835,1920,254.25322848903556L 1920 1080 L 0 1080 Z" fill="url(#SvgjsLinearGradient1226)"></path>
    <path d="M0,-154.86189824556365C52.49714231740663,-130.9344027240966,209.20155621154396,-49.27933977277395,314.98285390443976,-11.296925116761294C420.76415159733557,26.685489539251364,528.7399077930299,43.83049605610769,634.6877861573748,73.03258969051231C740.6356645217197,102.23468332491693,846.7083080179045,137.68690989749965,950.6701240905088,163.91563668966646C1054.631940163113,190.14436348183327,1142.3694871618368,203.92509544924607,1258.4586825930007,230.40495044351323C1374.5478780241647,256.8848054377804,1536.9484104429926,289.86305096059175,1647.2052966774925,322.7947666552694C1757.4621829119924,355.7264823499471,1874.5342161129154,410.46183161886097,1920,427.99524461157927L 1920 1080 L 0 1080 Z" fill="url(#SvgjsLinearGradient1227)"></path>
    <path d="M0,2.322073929241043C78.94736897616293,32.23664825554832,316.76658736982176,136.77291363302615,473.68421385697764,181.80951988708466C630.6018403441335,226.84612614114317,786.554135567782,222.7749457061579,941.5057589229351,272.54171145359214C1096.4573822780883,322.3084772010264,1240.3115804750519,425.9229111019392,1403.393953987896,480.4101143716902C1566.4763275007404,534.8973176414412,1833.898992331316,579.6224616220302,1920,599.4649310720982L 1920 1080 L 0 1080 Z" fill="url(#SvgjsLinearGradient1228)"></path>
    <path d="M0,94.39507891266159C48.16716667039717,101.55874898474556,190.4442903657096,101.26484540431244,289.00300002238305,137.37709934516545C387.5617096790565,173.48935328601846,499.50813415455684,269.75835003900306,591.3522579400408,311.0686025577797C683.1963817255247,352.3788550765563,754.0436955258132,370.178343726557,840.0677427352866,385.2386144578253C926.0917899447601,400.2988851890936,1019.3514028344377,371.99474849027166,1107.4965411968817,401.4302269453895C1195.6416795593257,430.86570540050735,1279.5336721853967,528.7007718322157,1368.9385729099504,561.8514851885325C1458.343473634504,595.0021985448493,1552.082374362529,576.3391462245067,1643.9259455442038,600.3345070832902C1735.7695167258787,624.3298679420736,1873.9876575907006,688.2421264649092,1920,705.823650341233L 1920 1080 L 0 1080 Z" fill="url(#SvgjsLinearGradient1229)"></path>
    <path d="M0,222.6173271929643C64.76739270895838,247.0033946575747,267.3553997609418,323.9077769114316,388.60435625375027,368.9337319806267C509.85331274655874,413.9596870498218,597.5699495638382,464.7521762667841,727.4937389568507,492.7730576081348C857.4175283498632,520.7939389494856,1029.8977788051056,499.1458496679983,1168.147092611825,537.0590200287311C1306.3964064185443,574.9721903894639,1431.6808038991378,668.3733142927787,1556.989621797167,720.2520797725318C1682.2984396951963,772.130845252285,1859.4982702995278,826.9850240514637,1920,848.3316129072501L 1920 1080 L 0 1080 Z" fill="url(#SvgjsLinearGradient1230)"></path>
</svg>