<svg class="canvas" viewBox="0 0 1920 1080" preserveAspectRatio="xMaxYMid slice"
    xmlns="http://www.w3.org/2000/svg" version="1.1"
    xmlns:xlink="http://www.w3.org/1999/xlink"
    xmlns:svgjs="http://svgjs.com/svgjs">
    <rect width="1920" height="1080" fill="hsl(231, 65%, 15%)"></rect>
    <defs>
        <linearGradient x1="0.5" y1="0" x2="0" y2="1" id="SvgjsLinearGradient1231">
            <stop stop-color="#cec4ee" offset="0"></stop>
            <stop stop-color="#cb4dac" offset="0.1"></stop>
        </linearGradient>
        <linearGradient x1="0.5" y1="0" x2="0" y2="1" id="SvgjsLinearGradient1232">
            <stop stop-color="#cec4ee" offset="0"></stop>
            <stop stop-color="#cb4dac" offset="0.22857142857142856"></stop>
        </linearGradient>
        <linearGradient x1="0.5" y1="0" x2="0" y2="1" id="SvgjsLinearGradient1233">
            <stop stop-color="#cec4ee" offset="0"></stop>
            <stop stop-color="#cb4dac" offset="0.3571428571428571"></stop>
        </linearGradient>
        <linearGradient x1="0.5" y1="0" x2="0" y2="1" id="SvgjsLinearGradient1234">
            <stop stop-color="#d6c0f2" offset="0"></stop>
            <stop stop-color="#d74294" offset="0.48571428571428565"></stop>
        </linearGradient>
        <linearGradient x1="0.5" y1="0" x2="0" y2="1" id="SvgjsLinearGradient1235">
            <stop stop-color="#d6c0f2" offset="0"></stop>
            <stop stop-color="#d74294" offset="0.6142857142857142"></stop>
        </linearGradient>
        <linearGradient x1="0.5" y1="0" x2="0" y2="1" id="SvgjsLinearGradient1236">
            <stop stop-color="#c0c7f2" offset="0"></stop>
            <stop stop-color="#c042d7" offset="0.7428571428571429"></stop>
        </linearGradient>
        <linearGradient x1="0.5" y1="0" x2="0" y2="1" id="SvgjsLinearGradient1237">
            <stop stop-color="#c0c7f2" offset="0"></stop>
            <stop stop-color="#c042d7" offset="0.8714285714285713"></stop>
        </linearGradient>
    </defs>
    <path d="M0,-562.6506493034643C48.22512061410938,-550.5513091897317,188.35731879582096,-521.8788162704344,289.35072368465626,-490.0546086210688C390.34412857349156,-458.23040097170315,497.99491279753516,-400.3757877023513,605.9604293330118,-371.7054034072706C713.9259458684885,-343.03501911218984,827.3340158157755,-345.4713178297726,937.1438228975162,-318.0323028505842C1046.953629979257,-290.5932878713958,1151.1389129695044,-238.29000322551929,1264.819271823456,-207.07131353214015C1378.4996306774074,-175.85262383876102,1510.029187991801,-161.45694206175534,1619.225976021225,-130.7201646903094C1728.422764050649,-99.98338731886342,1869.8709960035376,-40.66223520127185,1920,-22.65064930346434L 1920 1080 L 0 1080 Z" fill="url(#SvgjsLinearGradient1231)"></path>
    <path d="M0,-406.5440611153998C57.11970249562827,-396.52983455161785,238.19445132032763,-376.86045155925365,342.7182149737696,-346.45870173270816C447.24197862721155,-316.0569519061627,529.1318220350296,-264.6750539534066,627.1425819206517,-224.13356215612708C725.1533418062737,-183.5920703588476,820.5301910125531,-140.2193104512012,930.7827742875019,-103.2097509490313C1041.0353575624506,-66.2001914468614,1171.7802030676723,-32.23640174534826,1288.658081570344,-2.076205143107593C1405.5359600730155,28.08399145913307,1526.8263922319227,52.78178561217567,1632.050045303532,77.75142866441269C1737.2736983751413,102.7210717166497,1872.008340883922,136.0766157526642,1920,147.7416531703145L 1920 1080 L 0 1080 Z" fill="url(#SvgjsLinearGradient1232)"></path>
    <path d="M0,-256.5629247365274C38.33065493989233,-244.69272263967795,143.28081241665973,-208.5992022770051,229.98392963935396,-185.3417121554307C316.6870468620482,-162.08422203385632,436.92790096369447,-143.41054992953536,520.2187033361653,-117.01798400708107C603.5095057086361,-90.62541808462677,660.8156594686941,-50.59827911179687,729.7287438741789,-26.98631662070496C798.6418282796637,-3.3743541296130566,859.287109076307,6.713537831665178,933.6972097690742,24.65379093947037C1008.1073104618414,42.59404404727556,1092.675873234001,49.54755238937334,1176.189348030782,80.65520202612619C1259.7028228275628,111.76285166287904,1353.2383977552115,184.8906076421212,1434.77805854976,211.2996887599875C1516.3177193443087,237.7087698778538,1584.5569892230335,222.32488622083827,1665.4273127980734,239.10968873332388C1746.2976363731134,255.8944912458095,1877.571218799679,299.8587013179716,1920,312.00850383490115L 1920 1080 L 0 1080 Z" fill="url(#SvgjsLinearGradient1233)"></path>
    <path d="M0,-176.2127918970464C61.1133889301856,-156.4443290733373,245.6200934269487,-98.23176031261828,366.6803335811136,-57.60201495479165C487.7405737352785,-16.97226959696502,601.1136404048182,26.10681041333381,726.3614409249894,67.56568024991338C851.6092414451607,109.02455008649295,982.362495397997,163.3977838968482,1118.1671367021415,191.15120406468577C1253.971778006286,218.90462423252333,1407.5504782002133,198.17067677437032,1541.1892887498564,234.08620125693878C1674.8280992994994,270.00172573950726,1856.8648814583094,377.88465934290355,1920,406.6443509600965L 1920 1080 L 0 1080 Z" fill="url(#SvgjsLinearGradient1234)"></path>
    <path d="M0,-71.78825291002111C59.12640146055409,-54.77298260144056,246.7773259215479,1.0356385236522847,354.75840876332455,30.303368941462217C462.7394916051012,59.571099359272154,543.7361218082491,65.34762611367967,647.88649705066,103.81812959683849C752.0368722930708,142.2886330799973,871.4242924526353,224.53004519724232,979.6606602177899,261.12638984041513C1087.8970279829443,297.72273448358794,1195.2464265838662,294.11667462324414,1297.3047036415871,323.39619745587544C1399.362980699308,352.67572028850674,1488.2277731710467,403.1437923733761,1592.0103225641155,436.8035268362029C1695.7928719571844,470.4632612990297,1865.335053760686,510.5960913333972,1920,525.3546042328361L 1920 1080 L 0 1080 Z" fill="url(#SvgjsLinearGradient1235)"></path>
    <path d="M0,97.76947770045146C36.648942684844336,104.54364928761409,126.87672025580544,109.49302804940785,219.893656109066,138.4145072234272C312.9105919623266,167.33598639744653,456.8824466692509,230.5357760222941,558.1016151195633,271.29835274456747C659.3207835698759,312.06092946684083,735.1936721311328,357.0831831377893,827.2086668109407,382.9899675570675C919.2236614907487,408.8967519763456,1020.4897593008998,395.96782001038633,1110.191583198411,426.73905926023633C1199.8934070959224,457.51029851008633,1267.3146873142232,540.3633649561604,1365.4196101960085,567.6174030561675C1463.5245330777939,594.8714411561747,1606.3910555217913,566.6665135148033,1698.8211204891231,590.2632878602792C1791.251185456455,613.8600622057551,1883.136853414854,689.3755889175657,1920,709.1980491290229L 1920 1080 L 0 1080 Z" fill="url(#SvgjsLinearGradient1236)"></path>
    <path d="M0,239.31440100267446C43.22422817938008,255.20746275993858,173.97771420610098,299.4518262091153,259.34536907628046,334.6727715462591C344.71302394645994,369.89371688340293,420.24411214251114,422.64515361956296,512.2059292210768,450.6400730255373C604.1677462996424,478.6349924315116,707.7007301652029,474.4804476803973,811.1162715476742,502.642287982105C914.5318129301454,530.8041282838127,1046.6164141634445,587.8441187983567,1132.699177515904,619.6111148357836C1218.7819408683636,651.3781108732105,1236.5470644422808,660.3426538056058,1327.6128516624312,693.2442642066665C1418.6786388825817,726.1458746077271,1580.3627094472115,788.3900401570991,1679.0939008368064,817.020777242148C1777.8250922264012,845.651514327197,1879.8489834728011,857.0273684711582,1920,865.0286867169602L 1920 1080 L 0 1080 Z" fill="url(#SvgjsLinearGradient1237)"></path>
</svg>