<svg class="canvas" viewBox="0 0 1920 1080" preserveAspectRatio="xMaxYMid slice"
    xmlns="http://www.w3.org/2000/svg" version="1.1"
    xmlns:xlink="http://www.w3.org/1999/xlink"
    xmlns:svgjs="http://svgjs.com/svgjs">
    <rect width="1920" height="1080" fill="hsl(122, 65%, 15%)"></rect>
    <defs>
        <linearGradient x1="0.5" y1="0" x2="0" y2="1" id="SvgjsLinearGradient1238">
            <stop stop-color="#d3eec4" offset="0"></stop>
            <stop stop-color="#4dcb9d" offset="0.1"></stop>
        </linearGradient>
        <linearGradient x1="0.5" y1="0" x2="0" y2="1" id="SvgjsLinearGradient1239">
            <stop stop-color="#c4eece" offset="0"></stop>
            <stop stop-color="#4daecb" offset="0.22857142857142856"></stop>
        </linearGradient>
        <linearGradient x1="0.5" y1="0" x2="0" y2="1" id="SvgjsLinearGradient1240">
            <stop stop-color="#c4eece" offset="0"></stop>
            <stop stop-color="#4daecb" offset="0.3571428571428571"></stop>
        </linearGradient>
        <linearGradient x1="0.5" y1="0" x2="0" y2="1" id="SvgjsLinearGradient1241">
            <stop stop-color="#c8f2c0" offset="0"></stop>
            <stop stop-color="#42d7be" offset="0.48571428571428565"></stop>
        </linearGradient>
        <linearGradient x1="0.5" y1="0" x2="0" y2="1" id="SvgjsLinearGradient1242">
            <stop stop-color="#c0f2d5" offset="0"></stop>
            <stop stop-color="#4296d7" offset="0.6142857142857142"></stop>
        </linearGradient>
        <linearGradient x1="0.5" y1="0" x2="0" y2="1" id="SvgjsLinearGradient1243">
            <stop stop-color="#c0f2c2" offset="0"></stop>
            <stop stop-color="#42d2d7" offset="0.7428571428571429"></stop>
        </linearGradient>
        <linearGradient x1="0.5" y1="0" x2="0" y2="1" id="SvgjsLinearGradient1244">
            <stop stop-color="#c0f2d5" offset="0"></stop>
            <stop stop-color="#4296d7" offset="0.8714285714285713"></stop>
        </linearGradient>
    </defs>
    <path d="M0,-506.27839589469266C74.26752003184293,-482.79802691738627,291.6924508141195,-417.89638680957347,445.6051201910576,-365.39618203085433C599.5177895679957,-312.8959772521352,759.6265334315714,-234.93443763713842,923.4760162616283,-191.2771672223779C1087.325499091685,-147.61989680761738,1262.614686548337,-140.952354763572,1428.702017171399,-103.45255954229114C1594.7893477944608,-65.95276432101028,1838.1170028619,10.859243497374255,1920,33.721604105307335L 1920 1080 L 0 1080 Z" fill="url(#SvgjsLinearGradient1238)"></path>
    <path d="M0,-412.8789503611295C53.309127089464106,-396.8211601703996,216.0031057317633,-341.01543692725124,319.8547625367846,-316.53220921675C423.70641934180594,-292.04898150624877,514.0519817249744,-303.53588522284304,623.109940830128,-265.9795840981222C732.1678999352816,-228.42328297340134,867.8935311786502,-123.33662124735102,974.2025171677066,-91.19440246842484C1080.511503156763,-59.05218368949866,1153.7364811077744,-90.84262699934419,1260.9638567644668,-73.1262714245651C1368.1912324211592,-55.40991584978602,1507.7274139019387,-20.651774911275297,1617.5667711078609,15.103730980249686C1727.406128313783,50.85923687177467,1869.5944618513101,120.35625843386228,1920,141.4067639245848L 1920 1080 L 0 1080 Z" fill="url(#SvgjsLinearGradient1239)"></path>
    <path d="M0,-318.91180473245936C59.52202034419735,-302.56040858745024,227.0460550316323,-261.7360091740984,357.1321220651841,-220.8034278624046C487.2181890987359,-179.8708465507108,653.3732118631101,-112.83990531187628,780.5164022013107,-73.31631686229669C907.6595925395113,-33.792728412717096,989.5320668854905,-18.381437750815337,1119.9912640943878,16.338102835072952C1250.450461303285,51.05764342096124,1429.9367961370926,96.11400648571697,1563.2715854546946,135.00092665303302C1696.6063747722965,173.88784682034907,1860.545264242449,230.54984097464654,1920,249.65962383896925L 1920 1080 L 0 1080 Z" fill="url(#SvgjsLinearGradient1240)"></path>
    <path d="M0,-110.4525607492046C41.65920145052522,-93.76665889302032,163.25718590786107,-41.62955881620215,249.9552087031513,-10.33714961209894C336.6532314984415,20.955259592004264,432.0443297390929,47.96590556568414,520.1881367717415,77.30189447541463C608.3319438043901,106.63788338514512,685.7360887425683,144.35392641888646,778.8180508990429,165.67878384628395C871.9000130555174,187.00364127368144,978.5424321847632,182.96606746075128,1078.679909710589,205.25103903979962C1178.8173872364148,227.53601061884797,1284.0352111635634,274.18665799580225,1379.6429160539976,299.388613320574C1475.2506209444318,324.59056864534574,1562.2666250621946,327.62677619053613,1652.326139053195,356.4627709884302C1742.3856530441954,385.2987657863242,1875.387689842199,453.0809469213536,1920,472.40458210793827L 1920 1080 L 0 1080 Z" fill="url(#SvgjsLinearGradient1241)"></path>
    <path d="M0,-3.2228659800047126C49.64255967648276,12.9265180276448,205.44861011640756,63.06449891462998,297.85535805889657,93.67343806589237C390.2621060013856,124.28237721715476,460.99256302944394,160.25486853775737,554.4404876549339,180.4307689275696C647.888412280424,200.60666931738183,764.4357183344168,193.07955858005644,858.5429058118366,214.72884040476572C952.6500932892563,236.378122229475,1037.8282327672987,279.7558862017661,1119.0836125194528,310.32645987582526C1200.338992271607,340.89703354988444,1262.2147344665875,366.0030593486417,1346.0751843247608,398.15228244912083C1429.935634182934,430.30150554959994,1526.592175722619,470.5938470264115,1622.2463116684921,503.22179847870007C1717.9004476143652,535.8497499309887,1870.374385278082,578.8036257154938,1920,593.9199911628525L 1920 1080 L 0 1080 Z" fill="url(#SvgjsLinearGradient1242)"></path>
    <path d="M0,142.175188239681C79.11369225993678,171.97038952583605,322.3032619447224,267.1698997643264,474.6821535596207,320.94639595661124C627.061045174519,374.7228921488961,755.3086833439961,426.22957592577,914.27334968939,464.83416539339004C1073.2380160347839,503.43875486101007,1260.8490432468825,504.44566704985425,1428.4701516319842,552.5739327623313C1596.091260017086,600.7021984748084,1838.0783586053308,720.0987885172656,1920,753.6037596682525L 1920 1080 L 0 1080 Z" fill="url(#SvgjsLinearGradient1243)"></path>
    <path d="M0,257.9579029623023C58.239157258085754,279.4581300349547,219.79036453726502,349.23364259239514,349.4349435485145,386.95926539821687C479.07952255976403,424.6848882040386,634.6310054099783,434.0259844198938,777.867474067497,484.31163979723254C921.1039427250157,534.5972951745713,1092.1179869630414,641.9369385432746,1208.8537554936265,688.6731976622493C1325.5895240242116,735.4094567812241,1359.7577111666126,732.2293626753578,1478.282085251008,764.729194511081C1596.8064593354036,797.2290263468042,1846.3803475418347,863.8483563156701,1920,883.672188676588L 1920 1080 L 0 1080 Z" fill="url(#SvgjsLinearGradient1244)"></path>
</svg>