<svg class="canvas" viewBox="0 0 1920 1080" preserveAspectRatio="xMaxYMid slice"
    xmlns="http://www.w3.org/2000/svg" version="1.1"
    xmlns:xlink="http://www.w3.org/1999/xlink"
    xmlns:svgjs="http://svgjs.com/svgjs">
    <rect width="1920" height="1080" fill="hsl(230, 65%, 15%)"></rect>
    <defs>
        <linearGradient x1="0.5" y1="0" x2="0" y2="1" id="SvgjsLinearGradient1245">
            <stop stop-color="#cec4ee" offset="0"></stop>
            <stop stop-color="#cb4dae" offset="0.1"></stop>
        </linearGradient>
        <linearGradient x1="0.5" y1="0" x2="0" y2="1" id="SvgjsLinearGradient1246">
            <stop stop-color="#c5c4ee" offset="0"></stop>
            <stop stop-color="#cb4dc7" offset="0.22857142857142856"></stop>
        </linearGradient>
        <linearGradient x1="0.5" y1="0" x2="0" y2="1" id="SvgjsLinearGradient1247">
            <stop stop-color="#c4cbee" offset="0"></stop>
            <stop stop-color="#b64dcb" offset="0.3571428571428571"></stop>
        </linearGradient>
        <linearGradient x1="0.5" y1="0" x2="0" y2="1" id="SvgjsLinearGradient1248">
            <stop stop-color="#c0c8f2" offset="0"></stop>
            <stop stop-color="#be42d7" offset="0.48571428571428565"></stop>
        </linearGradient>
        <linearGradient x1="0.5" y1="0" x2="0" y2="1" id="SvgjsLinearGradient1249">
            <stop stop-color="#c2c0f2" offset="0"></stop>
            <stop stop-color="#d742d2" offset="0.6142857142857142"></stop>
        </linearGradient>
        <linearGradient x1="0.5" y1="0" x2="0" y2="1" id="SvgjsLinearGradient1250">
            <stop stop-color="#c2c0f2" offset="0"></stop>
            <stop stop-color="#d742d2" offset="0.7428571428571429"></stop>
        </linearGradient>
        <linearGradient x1="0.5" y1="0" x2="0" y2="1" id="SvgjsLinearGradient1251">
            <stop stop-color="#d5c0f2" offset="0"></stop>
            <stop stop-color="#d74296" offset="0.8714285714285713"></stop>
        </linearGradient>
    </defs>
    <path d="M0,-509.1976425355723C76.0595310124633,-481.26161799168324,298.16094882940513,-386.2249130159478,456.35718607477975,-341.5814952722381C614.5534233201544,-296.9380775285284,786.0592386978112,-282.21094603141944,949.1774234722478,-241.33713607331424C1112.2956082466844,-200.46332611520901,1273.262531966774,-141.6952177798971,1435.0662947213993,-96.33863552360677C1596.8700574760246,-50.982053267316445,1839.1777157868999,9.612191966421932,1920,30.802357464427672L 1920 1080 L 0 1080 Z" fill="url(#SvgjsLinearGradient1245)"></path>
    <path d="M0,-392.3899863342331C46.296765389884825,-377.696525849756,194.9957320128454,-329.75034086538994,277.78059233930895,-304.22922342737036C360.5654526657725,-278.70810598935077,409.0267586360626,-266.60657792075614,496.7091619587813,-239.26328170611558C584.3915652815,-211.91998549147502,705.5910301191395,-172.60034881351106,803.8750122756211,-140.16944613952694C902.1589944321026,-107.73854346554282,994.1704829084499,-71.01231094315663,1086.413054897671,-44.6778656622109C1178.655626886892,-18.343420381265165,1261.7920719899141,-7.713544859465689,1357.3304442109475,17.837225546147458C1452.8688164319808,43.3879959517606,1565.8650289256952,84.617006370579,1659.6432882238707,108.62675677146797C1753.4215475220462,132.63650717235691,1876.6072147039786,153.01756608814566,1920,161.8957279514812L 1920 1080 L 0 1080 Z" fill="url(#SvgjsLinearGradient1246)"></path>
    <path d="M0,-246.60893868672696C44.503428529587914,-232.19712122992604,191.7335860935641,-182.3914202399937,267.0205711775275,-160.1380339459214C342.30755626149084,-137.8846476518491,371.78053117232724,-139.1075955198453,451.7219105037802,-113.08862092229309C531.6632898352332,-87.0696463247409,670.0904560800384,-25.518897766716993,746.6688471662451,-4.0241863606082475C823.2472382524518,17.470525045500498,834.0631235291213,-3.3050644243571625,911.1922570210204,15.879647514359384C988.3213905129195,35.06435945307593,1127.6859235325103,88.25230187794824,1209.44364811764,111.08408527169104C1291.2013727027695,133.91586866543383,1323.2879141281292,134.99053159552858,1401.7386045317983,152.87034787681617C1480.1892949354674,170.75016415810376,1593.770891294955,190.18095929143573,1680.1477905396553,218.36298295941663C1766.5246897843556,246.54500662739753,1880.0246317566093,304.69590539715415,1920,321.96248988470165L 1920 1080 L 0 1080 Z" fill="url(#SvgjsLinearGradient1247)"></path>
    <path d="M0,-143.41419502908877C47.410103099457125,-133.11387163570276,184.62014972698893,-110.85818177660602,284.46061859674273,-81.61225466877265C384.30108746649654,-52.36632756093928,482.61745080079663,-10.920152606610138,599.0428132185227,32.06136761791147C715.4681756362488,75.04288784243309,862.4892095924353,133.81891484366759,983.0127931030993,176.276866678357C1103.5363766137634,218.73481851304643,1222.233178061186,257.1955394108021,1322.1843142825069,286.80907862604806C1422.1354505038278,316.422617841294,1483.0836628114423,328.5191237694984,1582.7196104310244,353.95810196983274C1682.3555580506065,379.3970801701671,1863.786601738504,425.1954735183506,1920,439.4429478280541L 1920 1080 L 0 1080 Z" fill="url(#SvgjsLinearGradient1248)"></path>
    <path d="M0,-20.099118331497515C56.21468817547254,-4.767446645281616,233.04408082616771,39.686120690871284,337.28812905283525,71.89091178579787C441.5321772795028,104.09570288072445,526.8738442760296,145.481117686934,625.4642893600052,173.12962823806197C724.0547344439808,200.77813878918994,819.7849509616174,205.44475854431641,928.830799556689,237.78197509256563C1037.8766481517607,270.11919164081485,1165.5103170126847,330.2431914177641,1279.7393809304351,367.1529275275573C1393.9684448481855,404.06266363735057,1507.4950798849306,424.2585898706915,1614.2051830631915,459.2403917513252C1720.9152862414523,494.22219363195893,1869.0341971771986,557.4098476346874,1920,577.0437388113597L 1920 1080 L 0 1080 Z" fill="url(#SvgjsLinearGradient1249)"></path>
    <path d="M0,116.38488526459003C52.14852639211725,126.42756320242368,219.98383962595886,153.32942240241985,312.8911583527035,176.64095289159195C405.7984770794481,199.95248338076405,469.6810033901297,215.927919772563,557.4439123604676,256.2540681996226C645.2068213308055,296.5802166266823,757.4961494389565,376.57209993387363,839.4686121747309,418.59784345394974C921.4410749105052,460.62358697402584,958.7482085097118,479.1148236377742,1049.2786887751133,508.4085293200793C1139.809169040515,537.7022350023844,1288.0312003380136,578.2867146769152,1382.65149376714,594.3600775477806C1477.2717871962664,610.4334404186461,1527.4423649777286,582.6064766877084,1617.000449349872,604.848706545272C1706.5585337220155,627.0909364028355,1869.5000748916455,707.3193316685132,1920,727.8134566931615L 1920 1080 L 0 1080 Z" fill="url(#SvgjsLinearGradient1250)"></path>
    <path d="M0,198.01289894634408C61.20194642676489,215.53320748558204,236.53047339009436,262.3657337835126,367.21167856058935,303.1347501817719C497.89288373108434,343.9037665800312,653.4172638187999,397.6681457201152,784.08723102297,442.6269973358997C914.75719822714,487.5858489516842,1024.4450795566195,525.9195286763295,1151.2314817856095,572.8878598764788C1278.0178840145995,619.8561910766282,1416.6775580278447,682.6304304061043,1544.8056443969099,724.4369845367961C1672.933730765975,766.2435386674879,1857.467607399485,807.1788179733243,1920,823.7271846606299L 1920 1080 L 0 1080 Z" fill="url(#SvgjsLinearGradient1251)"></path>
</svg>