<svg class="canvas" viewBox="0 0 1920 1080" preserveAspectRatio="xMaxYMid slice"
    xmlns="http://www.w3.org/2000/svg" version="1.1"
    xmlns:xlink="http://www.w3.org/1999/xlink"
    xmlns:svgjs="http://svgjs.com/svgjs">
    <rect width="1920" height="1080" fill="hsl(192, 65%, 15%)"></rect>
    <defs>
        <linearGradient x1="0.5" y1="0" x2="0" y2="1" id="SvgjsLinearGradient1252">
            <stop stop-color="#c4eeee" offset="0"></stop>
            <stop stop-color="#4d4dcb" offset="0.1"></stop>
        </linearGradient>
        <linearGradient x1="0.5" y1="0" x2="0" y2="1" id="SvgjsLinearGradient1253">
            <stop stop-color="#c4eeee" offset="0"></stop>
            <stop stop-color="#4d4dcb" offset="0.22857142857142856"></stop>
        </linearGradient>
        <linearGradient x1="0.5" y1="0" x2="0" y2="1" id="SvgjsLinearGradient1254">
            <stop stop-color="#c4e5ee" offset="0"></stop>
            <stop stop-color="#664dcb" offset="0.3571428571428571"></stop>
        </linearGradient>
        <linearGradient x1="0.5" y1="0" x2="0" y2="1" id="SvgjsLinearGradient1255">
            <stop stop-color="#c0d4f2" offset="0"></stop>
            <stop stop-color="#9b42d7" offset="0.48571428571428565"></stop>
        </linearGradient>
        <linearGradient x1="0.5" y1="0" x2="0" y2="1" id="SvgjsLinearGradient1256">
            <stop stop-color="#c0def2" offset="0"></stop>
            <stop stop-color="#7d42d7" offset="0.6142857142857142"></stop>
        </linearGradient>
        <linearGradient x1="0.5" y1="0" x2="0" y2="1" id="SvgjsLinearGradient1257">
            <stop stop-color="#c0def2" offset="0"></stop>
            <stop stop-color="#7d42d7" offset="0.7428571428571429"></stop>
        </linearGradient>
        <linearGradient x1="0.5" y1="0" x2="0" y2="1" id="SvgjsLinearGradient1258">
            <stop stop-color="#c0d4f2" offset="0"></stop>
            <stop stop-color="#9b42d7" offset="0.8714285714285713"></stop>
        </linearGradient>
    </defs>
    <path d="M0,-566.3150831440612C47.74592322994685,-553.0640386831953,189.7841697018937,-516.9059733916231,286.4755393796811,-486.8088163788665C383.1669090574685,-456.7116593661099,496.8474281500985,-411.42698017280577,580.1482180667244,-385.73214106752175C663.4490079833504,-360.03730196223773,697.8045909528162,-351.3205015589213,786.2802788794369,-332.6397817471624C874.7559668060576,-313.95906193540344,1011.8488706659828,-302.93170768006905,1111.0023456264485,-273.6478221969681C1210.1558205869142,-244.36393671386713,1295.6817953531242,-179.91694727455132,1381.201128642231,-156.93646884855667C1466.7204619313377,-133.95599042256202,1534.3185334681268,-157.53518259174948,1624.1183453610884,-135.7649516410002C1713.91815725405,-113.99472069025096,1870.6863908935147,-44.55672789355099,1920,-26.31508314406115L 1920 1080 L 0 1080 Z" fill="url(#SvgjsLinearGradient1252)" style="transform: translate(0px, 0px);"></path>
    <path d="M0,-458.28965764235005C52.9011988994404,-448.3527083117966,233.39431818441102,-425.5321991161062,317.4071933966424,-398.66796165902946C401.4200686088738,-371.8037242019527,412.2839345205467,-321.64973586503953,504.07725127338847,-297.1042328998897C595.8705680262302,-272.5587299347399,765.3039633881128,-278.7349049506987,868.167093913693,-251.39494386813075C971.0302244392731,-224.0549827855628,1039.4290130033885,-165.1643841165444,1121.256034426869,-133.06446640448203C1203.0830558503496,-100.96454869241967,1278.221025032325,-92.04660330299689,1359.1292224545768,-58.79543759575663C1440.0374198768286,-25.544271888516377,1513.226756036143,40.643945465772674,1606.70521896038,66.44252783895948C1700.1836818846173,92.24111021214628,1867.7842031600633,91.07046850929677,1920,95.99605664336423L 1920 1080 L 0 1080 Z" fill="url(#SvgjsLinearGradient1253)" style="transform: translate(7.48826px, 12.9657px);"></path>
    <path d="M0,-244.55934399565146C39.93796292958777,-232.75226184213844,147.52615329456017,-197.22861826525255,239.62777757752662,-173.71685107457336C331.72940186049306,-150.20508388389416,456.2298019474993,-134.6775641740985,552.6097456977986,-103.48874085157627C648.989689448098,-72.29991752905404,730.071128537227,-20.611405267515366,817.9074400793228,13.416088860560016C905.7437516214186,47.4435829886354,982.5615770198759,76.74792611205957,1079.6276149503738,100.67622391687601C1176.6936528808715,124.60452172169245,1308.873155333982,127.42805971062786,1400.3036676623096,156.98587568945865C1491.7341799906374,186.54369166828945,1541.5946335307246,250.18541830880764,1628.2106889203396,278.02311978986074C1714.8267443099546,305.86082127091385,1871.3684481533899,316.3472571114578,1920,324.0120845757772L 1920 1080 L 0 1080 Z" fill="url(#SvgjsLinearGradient1254)" style="transform: translate(14.9765px, 25.9314px);"></path>
    <path d="M0,-110.39664150830328C40.964617522410414,-105.6929567140473,162.1238924176892,-101.78736642834622,245.7877051344625,-82.17453274276741C329.4515178512358,-62.561699057188605,425.86826349732337,-31.047615175454514,501.9828763006398,7.280360605169552C578.0974891039563,45.60833638579362,629.1534061494439,121.30747964870234,702.4753819543613,147.793321940977C775.7973577592787,174.27916423325166,851.5368727404145,149.4171165254314,941.9147311301444,166.1954143588175C1032.2925895198744,182.97371219220358,1167.2908597404778,222.29003948810376,1244.7425322927404,248.4631089412935C1322.194204845003,274.63617839448324,1341.033671414879,302.62917530764616,1406.6247664437199,323.233831077956C1472.2158614725606,343.8384868482658,1552.726563539738,347.21993185133863,1638.2891024657847,372.09104356315254C1723.8516413918314,396.96215527496645,1873.0481837442974,455.73225838455846,1920,472.4605013488396L 1920 1080 L 0 1080 Z" fill="url(#SvgjsLinearGradient1255)" style="transform: translate(22.4648px, 38.8971px);"></path>
    <path d="M0,-64.0686676376456C48.552631182969066,-53.84767562312252,198.51433897340308,-21.661037742083256,291.3157870978144,-2.742715550507107C384.1172352222257,16.17560664106904,473.7550322929958,10.872165599480589,556.8086887464679,49.441265511811274C639.8623451999399,88.01036542414195,709.2345742939688,199.4993384911488,789.6377258186468,228.671883923477C870.0408773433248,257.84442935580523,945.1220752865454,193.47809729145692,1039.2275978945363,224.47653810578058C1133.3331205025272,255.47497892010423,1256.609466142199,382.94667853666,1354.2708614665926,414.6625288094189C1451.9322567909862,446.37837908217784,1530.9077800853302,395.03636295970216,1625.195969840898,414.7716397423343C1719.4841595964658,434.5069165249664,1870.8659949734829,513.3570978780654,1920,533.0741895052116L 1920 1080 L 0 1080 Z" fill="url(#SvgjsLinearGradient1256)" style="transform: translate(29.9531px, 51.8628px);"></path>
    <path d="M0,78.34546207765106C45.038927480163274,97.45873363844404,173.02970634625092,162.93692412498564,270.23356488097966,193.02509144240892C367.4374234157084,223.1132587598322,492.85421886567,229.3087620002502,583.2231512083723,258.8744659821907C673.5920835510746,288.44016996413126,733.4033575218676,343.1082124358785,812.4471589371933,370.41931533405204C891.490960352519,397.7304182322256,971.1860555572041,394.9919607839662,1057.4859597003265,422.741083371232C1143.7858638434489,450.49020595849777,1237.0641290078954,513.4297102708656,1330.2465837959278,536.9140508576467C1423.4290385839602,560.3983914444277,1518.288452394509,538.1704631171555,1616.580688428521,563.6471268919181C1714.8729244625329,589.1237906666807,1869.4301147380868,668.7528824038384,1920,689.7740335062225L 1920 1080 L 0 1080 Z" fill="url(#SvgjsLinearGradient1257)" style="transform: translate(37.4413px, 64.8285px);"></path>
    <path d="M0,203.67687697411372C42.344666218565564,221.89782976883524,156.08528298631387,278.4769693653475,254.06799731139338,313.00259374244274C352.0507116364729,347.528218119538,492.3704544716964,387.9709934523706,587.896285950477,410.83062323668514C683.4221174292577,433.6902530209997,749.3055082306408,428.4793249867538,827.2229861840772,450.1603724483302C905.1404641375135,471.84141990990656,963.7827943798696,502.23266400661726,1055.4011536710952,540.9169080061433C1147.019512962321,579.6011520056694,1275.7109174725863,649.8620536547527,1376.933141931431,682.2658364454868C1478.1553663902757,714.6696192362209,1572.2233574127358,710.8187170433958,1662.734500424164,735.339604750548C1753.2456434355922,759.8604924577002,1877.1224167373607,813.7159030320909,1920,829.3911626883995L 1920 1080 L 0 1080 Z" fill="url(#SvgjsLinearGradient1258)" style="transform: translate(44.9296px, 77.7942px);"></path>
</svg>