<svg class="canvas" viewBox="0 0 1920 1080" preserveAspectRatio="xMaxYMid slice"
    xmlns="http://www.w3.org/2000/svg" version="1.1"
    xmlns:xlink="http://www.w3.org/1999/xlink"
    xmlns:svgjs="http://svgjs.com/svgjs">
    <rect width="1920" height="1080" fill="hsl(142, 65%, 15%)"></rect>
    <defs>
        <linearGradient x1="0.5" y1="0" x2="0" y2="1" id="SvgjsLinearGradient1273">
            <stop stop-color="#c4eee4" offset="0"></stop>
            <stop stop-color="#4d6bcb" offset="0.1"></stop>
        </linearGradient>
        <linearGradient x1="0.5" y1="0" x2="0" y2="1" id="SvgjsLinearGradient1274">
            <stop stop-color="#c4eedc" offset="0"></stop>
            <stop stop-color="#4d84cb" offset="0.22857142857142856"></stop>
        </linearGradient>
        <linearGradient x1="0.5" y1="0" x2="0" y2="1" id="SvgjsLinearGradient1275">
            <stop stop-color="#c4eee4" offset="0"></stop>
            <stop stop-color="#4d6bcb" offset="0.3571428571428571"></stop>
        </linearGradient>
        <linearGradient x1="0.5" y1="0" x2="0" y2="1" id="SvgjsLinearGradient1276">
            <stop stop-color="#c0f2d2" offset="0"></stop>
            <stop stop-color="#42a0d7" offset="0.48571428571428565"></stop>
        </linearGradient>
        <linearGradient x1="0.5" y1="0" x2="0" y2="1" id="SvgjsLinearGradient1277">
            <stop stop-color="#c0f2f0" offset="0"></stop>
            <stop stop-color="#4247d7" offset="0.6142857142857142"></stop>
        </linearGradient>
        <linearGradient x1="0.5" y1="0" x2="0" y2="1" id="SvgjsLinearGradient1278">
            <stop stop-color="#c0f2dc" offset="0"></stop>
            <stop stop-color="#4282d7" offset="0.7428571428571429"></stop>
        </linearGradient>
        <linearGradient x1="0.5" y1="0" x2="0" y2="1" id="SvgjsLinearGradient1279">
            <stop stop-color="#c0f2d2" offset="0"></stop>
            <stop stop-color="#42a0d7" offset="0.8714285714285713"></stop>
        </linearGradient>
    </defs>
    <path d="M0,-519.1304763777144C53.92113091094339,-500.1518800948968,217.05304504428437,-434.0268811461845,323.52678546566034,-405.2588986808085C430.0005258870363,-376.4909162154325,532.439885980472,-374.2787802945211,638.8424425282559,-346.5225815854584C745.2449990760398,-318.7663828763957,856.4719000371731,-273.09089402848235,961.9421247523636,-238.7217064264323C1067.4123494675541,-204.35251882438226,1170.0664165976207,-164.26412208991835,1271.6637908193986,-140.30745597315817C1373.2611650411766,-116.35078985639798,1463.4703352195982,-121.84453965844514,1571.5263700830317,-94.9817097258712C1679.5824049464652,-68.11887979329725,1861.9210616805053,1.5609847309260623,1920,20.869523622285513L 1920 1080 L 0 1080 Z" fill="url(#SvgjsLinearGradient1273)"></path>
    <path d="M0,-453.39098030548314C48.591551994453674,-439.2806542354577,193.0885609484613,-398.2058561356959,291.54931196672203,-368.72902388533055C390.01006298498277,-339.2521916349652,495.728913015964,-301.525575537772,590.7645061095643,-276.52998680329085C685.8000992031646,-251.5343980688097,781.2726406962419,-251.12983003163149,861.7628705283239,-218.75549147844362C942.2531003604059,-186.38115292525575,981.9254465038606,-104.59426772788478,1073.7058851020563,-82.28395548416371C1165.486323700252,-59.97364324044264,1318.1562371585735,-110.77401809227466,1412.4455021174979,-84.89361801611714C1506.7347670764223,-59.01321793995963,1554.8490585418517,42.033719640056674,1639.441474855602,72.99844497278139C1724.0338911693525,103.9631703055061,1873.240245809267,96.24535247898952,1920,100.89473398023114L 1920 1080 L 0 1080 Z" fill="url(#SvgjsLinearGradient1274)"></path>
    <path d="M0,-309.7292096557266C60.08568552759334,-291.45435654291697,245.1751778856398,-229.8819679871558,360.51411316556005,-200.08009097886887C475.8530484454803,-170.27821397058193,583.8944600279751,-166.72116295468527,692.0336116795214,-130.91794760600496C800.1727633310677,-95.11473225732465,904.5052383006689,-10.749838312698163,1009.3490230748376,14.739201113212957C1114.1928078490064,40.22824053912407,1225.6897032140557,3.2995509352823156,1321.0963203245342,22.01628894946176C1416.5029374350127,40.73302696364121,1481.971445791798,87.56864087058293,1581.788725737709,127.03962919828963C1681.60600568362,166.51061752599634,1863.6314542896182,236.8751206294666,1920,258.842218915702L 1920 1080 L 0 1080 Z" fill="url(#SvgjsLinearGradient1275)"></path>
    <path d="M0,-190.5605602207648C40.51381674059119,-174.70765715201986,158.69821023798175,-124.45150373066478,243.08290044354715,-95.4431418082952C327.46759064911254,-66.43477988592561,405.3997244107136,-41.795516872557826,506.3081412333924,-16.510388686547273C607.2165580560712,8.774739499463283,744.073634522881,36.38571598076496,848.53340137962,56.26762730776815C952.9931682363591,76.14953863477135,1048.0452837186974,71.01563078103405,1133.0667423738266,102.78107927547191C1218.0882010289558,134.54652776990977,1268.6583700755114,211.01338409476665,1358.6621533103953,246.86031827439535C1448.6659365452792,282.70725245402406,1579.53313400153,293.62330695958025,1673.0894417831307,317.86268435324405C1766.6457495647314,342.10206174690785,1878.8482402971886,379.8909329225224,1920,392.29658263637805L 1920 1080 L 0 1080 Z" fill="url(#SvgjsLinearGradient1276)"></path>
    <path d="M0,4.2074787124953446C79.1562881666134,25.697333458609766,315.4552154100178,77.64941541692625,474.93772899968036,133.14660718918188C634.4202425893429,188.6437989614375,798.1406994175261,283.3083613997151,956.8950815379753,337.19062934602914C1115.6494636584246,391.07289729234316,1266.9465353120386,412.41359711551206,1427.464021722376,456.44021486706595C1587.9815081327133,500.46683261861983,1837.9106702870627,577.1986490239715,1920,601.3503358553526L 1920 1080 L 0 1080 Z" fill="url(#SvgjsLinearGradient1277)"></path>
    <path d="M0,124.25973260757961C48.01323965039423,135.0128784642478,185.683657975139,159.51333590230794,288.0794379023654,188.77860774758864C390.47521782959177,218.04387959286933,506.033071870706,256.706139116709,614.3746795633583,299.8513636792637C722.7162872560107,342.9965882418185,824.1159459715827,405.45428220345286,938.1290840582793,447.6499551229173C1052.142222144976,489.8456280423817,1188.6231804754434,520.5691816301231,1298.453508083538,553.0254011960501C1408.2838356916327,585.4816207619771,1493.5199677207702,611.9434553784622,1597.111049706847,642.387272518479C1700.702131692924,672.8310896584958,1866.185174951141,720.138132116539,1920,735.6883040361511L 1920 1080 L 0 1080 Z" fill="url(#SvgjsLinearGradient1278)"></path>
    <path d="M0,269.28565140460745C48.13557716159344,282.1754628826401,198.42849656568814,315.38488779842646,288.81346296956065,346.62452027280347C379.19842937343316,377.86415274718047,455.5937647652444,425.66949004038787,542.3097984232351,456.7234462508693C629.0258320812258,487.77740246135073,716.8759006585493,509.6415402017794,809.1096649175048,532.948257535692C901.3434291764603,556.2549748696047,999.964717877544,564.1292984582506,1095.7123839769679,596.5637502543452C1191.4600500763918,628.9982020504399,1291.7826709943547,692.2246406140555,1383.5956615140485,727.5549683122599C1475.4086520337423,762.8852960104643,1557.1896040141396,780.6382216424662,1646.5903270951314,808.5457164435718C1735.9910501761233,836.4532112446774,1874.4317211825219,880.590900339673,1920,894.9999371188933L 1920 1080 L 0 1080 Z" fill="url(#SvgjsLinearGradient1279)"></path>
</svg>