<svg class="canvas" viewBox="0 0 1920 1080" preserveAspectRatio="xMaxYMid slice"
    xmlns="http://www.w3.org/2000/svg" version="1.1"
    xmlns:xlink="http://www.w3.org/1999/xlink"
    xmlns:svgjs="http://svgjs.com/svgjs">
    <rect width="1920" height="1080" fill="hsl(162, 65%, 15%)"></rect>
    <defs>
        <linearGradient x1="0.5" y1="0" x2="0" y2="1" id="SvgjsLinearGradient1007">
            <stop stop-color="#c4e1ee" offset="0"></stop>
            <stop stop-color="#734dcb" offset="0.1"></stop>
        </linearGradient>
        <linearGradient x1="0.5" y1="0" x2="0" y2="1" id="SvgjsLinearGradient1008">
            <stop stop-color="#c4eaee" offset="0"></stop>
            <stop stop-color="#5a4dcb" offset="0.22857142857142856"></stop>
        </linearGradient>
        <linearGradient x1="0.5" y1="0" x2="0" y2="1" id="SvgjsLinearGradient1009">
            <stop stop-color="#c4eeea" offset="0"></stop>
            <stop stop-color="#4d5acb" offset="0.3571428571428571"></stop>
        </linearGradient>
        <linearGradient x1="0.5" y1="0" x2="0" y2="1" id="SvgjsLinearGradient1010">
            <stop stop-color="#c0f2e3" offset="0"></stop>
            <stop stop-color="#426ed7" offset="0.48571428571428565"></stop>
        </linearGradient>
        <linearGradient x1="0.5" y1="0" x2="0" y2="1" id="SvgjsLinearGradient1011">
            <stop stop-color="#c0f2e3" offset="0"></stop>
            <stop stop-color="#426ed7" offset="0.6142857142857142"></stop>
        </linearGradient>
        <linearGradient x1="0.5" y1="0" x2="0" y2="1" id="SvgjsLinearGradient1012">
            <stop stop-color="#c0d9f2" offset="0"></stop>
            <stop stop-color="#8c42d7" offset="0.7428571428571429"></stop>
        </linearGradient>
        <linearGradient x1="0.5" y1="0" x2="0" y2="1" id="SvgjsLinearGradient1013">
            <stop stop-color="#c0d9f2" offset="0"></stop>
            <stop stop-color="#8c42d7" offset="0.8714285714285713"></stop>
        </linearGradient>
    </defs>
    <path d="M0,-528.6556625041555C61.98260039387359,-516.8424137060717,235.4357308116261,-485.9771701537199,371.89560236324155,-457.7761697156524C508.35547391485704,-429.57516927758485,682.456567582558,-405.4330849582234,818.7592293096927,-359.44965987575034C955.0618910368274,-313.4662347932773,1060.6508895148645,-229.25292632439462,1189.71157272605,-181.87561922081395C1318.7722559372355,-134.49831211723327,1471.4085906978148,-107.38914337370932,1593.1233285768064,-75.18581725426625C1714.838066455798,-42.98249113482319,1865.520554762801,-3.0773549625073517,1920,11.344337495844428L 1920 1080 L 0 1080 Z" fill="url(#SvgjsLinearGradient1007)"></path>
    <path d="M0,-454.4428801955812C67.65498405305912,-440.4861413734552,272.4968275186767,-413.0280967520753,405.9299043183547,-370.7024472628254C539.3629811180327,-328.37679777357545,677.641714517415,-244.41202415590593,800.5984607980682,-200.48898326008162C923.5552070787214,-156.56594236425732,1025.1632084304124,-142.8062506715338,1143.670382002274,-107.16420188787959C1262.1775555741356,-71.52215310422537,1382.2532325629504,-21.13786322115846,1511.641502229238,13.363309441843654C1641.0297718955258,47.86448210484577,1851.9402503715396,85.42957998208486,1920,99.8428340901331L 1920 1080 L 0 1080 Z" fill="url(#SvgjsLinearGradient1008)"></path>
    <path d="M0,-282.0470741104207C60.74367100965839,-263.08710547753526,237.89039644931938,-207.26329093664646,364.46202605795037,-168.28726231310804C491.03365566658135,-129.31123368956963,628.3927625530416,-81.32163749059603,759.429777651786,-48.190902369190184C890.4667927505304,-15.060167247784342,1018.3693286855186,-7.415383821326163,1150.684116650417,30.497148415327008C1282.9989046153155,68.40968065198018,1425.0991915495802,136.61309004311533,1553.3185054411772,179.28429105072883C1681.5378193327742,221.95549205834232,1858.8864175735296,268.6510105592947,1920,286.52435446100793L 1920 1080 L 0 1080 Z" fill="url(#SvgjsLinearGradient1009)"></path>
    <path d="M0,-191.69861949929515C67.59400197629,-170.43923274472044,276.0716256070774,-106.40991152385703,405.56401185774,-64.14229897184694C535.0563981084026,-21.874686419836856,658.4031268403926,24.549811733867138,776.9543175039759,61.90705581276537C895.5055081675591,99.2642998916636,987.2445562550004,124.24853776187985,1116.8711558392395,160.00116550154246C1246.4977554234786,195.75379324120507,1420.859107649284,237.89659594135688,1554.7139150094108,276.4228222507411C1688.5687223695377,314.94904856012533,1859.1189858349019,372.0359065066633,1920,391.15852335784774L 1920 1080 L 0 1080 Z" fill="url(#SvgjsLinearGradient1010)"></path>
    <path d="M0,-19.197809464873373C49.49465086176155,3.366205553976908,188.69814040315782,78.93069652482711,296.9679051705693,116.1862806482283C405.23766993798074,153.4418647716295,544.686989117208,183.9160232353505,649.6185886044686,204.3356952755338C754.5501880917293,224.75536731571708,816.5604313468999,215.0285548365395,926.5575020941333,238.70431288932804C1036.5545728413665,262.38007094211656,1193.8669620339633,309.16263130066216,1309.6010130878685,346.390243592265C1425.3350641417737,383.61785588386783,1519.228643932209,423.47751929132505,1620.9618084175643,462.0699866389449C1722.6949729029195,500.66245398656474,1870.1603014029274,558.6325375048107,1920,577.9450476779839L 1920 1080 L 0 1080 Z" fill="url(#SvgjsLinearGradient1011)"></path>
    <path d="M0,76.11577780940115C43.01715712895041,83.06112180655752,164.34543141473887,89.6954986704658,258.10294277370247,117.7878417923394C351.86045413266606,145.88018491421303,469.9648199303837,205.50277054931558,562.5450681537817,244.66983654064285C655.1253163771796,283.8369025319701,729.0894140044865,315.5338646376603,813.5844321140903,352.79023774030304C898.0794502236942,390.04661084294577,971.7636062147776,441.13475751493417,1069.5151768114047,468.20807515649926C1167.2667474080317,495.28139279806436,1308.4947104577054,496.7965959646443,1400.0938556938524,515.2301435896936C1491.6930009299995,533.6636912147429,1532.459024177262,550.0903266320818,1619.1100482282868,578.809360906795C1705.7610722793115,607.5283951815081,1869.8516747047145,669.4218511827763,1920,687.5443492379726L 1920 1080 L 0 1080 Z" fill="url(#SvgjsLinearGradient1012)"></path>
    <path d="M0,214.30238272930626C84.59081515430303,235.4825444371861,349.95291880337595,293.6342517944199,507.5448909258182,341.38335297658534C665.1368630482605,389.13245415875076,790.1796580024806,446.79797905532257,945.5518327346538,500.79698982229894C1100.9240074668269,554.7960005892753,1277.3699114412998,608.8408044748948,1439.7779393188575,665.3774175784436C1602.1859671964153,721.9140306819924,1839.9629898864762,810.910126632734,1920,840.016668443592L 1920 1080 L 0 1080 Z" fill="url(#SvgjsLinearGradient1013)"></path>
</svg>