<svg class="canvas" viewBox="0 0 1920 1080" preserveAspectRatio="xMaxYMid slice"
    xmlns="http://www.w3.org/2000/svg" version="1.1"
    xmlns:xlink="http://www.w3.org/1999/xlink"
    xmlns:svgjs="http://svgjs.com/svgjs">
    <rect width="1920" height="1080" fill="hsl(260, 65%, 15%)"></rect>
    <defs>
        <linearGradient x1="0.5" y1="0" x2="0" y2="1" id="SvgjsLinearGradient1280">
            <stop stop-color="#d2c4ee" offset="0"></stop>
            <stop stop-color="#cb4da1" offset="0.1"></stop>
        </linearGradient>
        <linearGradient x1="0.5" y1="0" x2="0" y2="1" id="SvgjsLinearGradient1281">
            <stop stop-color="#c9c4ee" offset="0"></stop>
            <stop stop-color="#cb4dbb" offset="0.22857142857142856"></stop>
        </linearGradient>
        <linearGradient x1="0.5" y1="0" x2="0" y2="1" id="SvgjsLinearGradient1282">
            <stop stop-color="#dac4ee" offset="0"></stop>
            <stop stop-color="#cb4d88" offset="0.3571428571428571"></stop>
        </linearGradient>
        <linearGradient x1="0.5" y1="0" x2="0" y2="1" id="SvgjsLinearGradient1283">
            <stop stop-color="#dac0f2" offset="0"></stop>
            <stop stop-color="#d74287" offset="0.48571428571428565"></stop>
        </linearGradient>
        <linearGradient x1="0.5" y1="0" x2="0" y2="1" id="SvgjsLinearGradient1284">
            <stop stop-color="#c7c0f2" offset="0"></stop>
            <stop stop-color="#d742c3" offset="0.6142857142857142"></stop>
        </linearGradient>
        <linearGradient x1="0.5" y1="0" x2="0" y2="1" id="SvgjsLinearGradient1285">
            <stop stop-color="#dac0f2" offset="0"></stop>
            <stop stop-color="#d74287" offset="0.7428571428571429"></stop>
        </linearGradient>
        <linearGradient x1="0.5" y1="0" x2="0" y2="1" id="SvgjsLinearGradient1286">
            <stop stop-color="#d0c0f2" offset="0"></stop>
            <stop stop-color="#d742a5" offset="0.8714285714285713"></stop>
        </linearGradient>
    </defs>
    <path d="M0,-555.0056251927831C53.35956275926382,-543.6690117413488,213.68533789382099,-521.740668070015,320.1573765555829,-486.985944484177C426.62941521734484,-452.2312208983391,533.9889054888407,-376.14607459625626,638.8322319705716,-346.4772836777555C743.6755584523024,-316.80849275925476,839.735133418176,-338.326557827032,949.2173354459682,-308.97319897317243C1058.6995374737603,-279.61984011931287,1192.078113492368,-202.75129937632494,1295.7254441373243,-170.35713055459826C1399.3727747822807,-137.96296173287158,1467.0555600052603,-140.5001036031148,1571.1013193157062,-114.60818604281229C1675.147078626152,-88.71626848250976,1861.850219885951,-31.6060520011213,1920,-15.0056251927831L 1920 1080 L 0 1080 Z" fill="url(#SvgjsLinearGradient1280)"></path>
    <path d="M0,-369.6414402428722C41.01096780678872,-360.6879055867054,160.12417659581587,-341.7127248272983,246.0658068407323,-315.92023230587154C332.00743708564875,-290.12773978444477,429.9550913080936,-242.73960359465258,515.6497814694987,-214.88648511431154C601.344471630904,-187.0333666339705,688.1514292402649,-168.38057974299247,760.2339478091634,-148.8015214238253C832.3164663780619,-129.22246310465815,869.1749831709888,-120.31314920223305,948.1448928828896,-97.41213519930852C1027.1148025947905,-74.511121196384,1158.9653137953665,-34.86667187127355,1234.053406080569,-11.395437406278184C1309.1414983657714,12.075797058717189,1322.7219333502107,21.450010601819194,1398.6734465941047,43.4152715906637C1474.6249598379986,65.38053257950821,1602.8747266429496,96.8579614514258,1689.7624855439321,120.39612852678886C1776.6502444449147,143.93429560215193,1881.6270809239886,173.93624979016658,1920,184.6442740428421L 1920 1080 L 0 1080 Z" fill="url(#SvgjsLinearGradient1281)"></path>
    <path d="M0,-318.61809138407756C66.71760273234187,-303.90160480776126,268.16848422201497,-274.4828415814851,400.30561639405124,-230.31917192617965C532.4427485660875,-186.15550227087422,662.786950395411,-95.42791966386721,792.8227930322178,-53.636073452245014C922.8586356690245,-11.844227240622821,1065.2676673151798,-14.245934488100303,1180.5206722148912,20.431905343553503C1295.7736771146026,55.10974517520731,1361.0942677996352,116.17739356371156,1484.3408224304867,154.43096553767782C1607.5873770613382,192.68453751164407,1847.3901370717479,234.0329419124055,1920,249.95333718735105L 1920 1080 L 0 1080 Z" fill="url(#SvgjsLinearGradient1282)"></path>
    <path d="M0,-111.32736787285302C56.315517487607615,-93.21502380313993,202.2709221413675,-34.69195664972384,337.8931049256457,-2.6533034545744414C473.5152877099239,29.38534974057496,677.7057731338738,46.27545048003454,813.733096705669,80.90455129804336C949.7604202774643,115.53365211605217,1036.1183288303368,160.32383628810402,1154.0570463564172,205.12130145347845C1271.9957638824976,249.91876661885289,1393.7082429215545,305.2879300351548,1521.3654018621517,349.68934229029C1649.0225608027488,394.0907545454253,1853.5609003103586,451.2230362019566,1920,471.5297749842899L 1920 1080 L 0 1080 Z" fill="url(#SvgjsLinearGradient1283)"></path>
    <path d="M0,-34.032361178665724C71.36580599962326,-9.881602746417627,274.46753400649027,61.34490927961795,428.1948359977396,110.87218941482286C581.9221379889889,160.39946955002776,760.7343407877967,219.82050993861102,922.3638119474956,263.1313196325637C1083.9932831071944,306.4421293265164,1231.6989649471823,320.74051818993433,1397.971662955933,370.737047578539C1564.2443609646837,420.7335769671436,1832.995277159322,531.0482545665827,1920,563.1104959641915L 1920 1080 L 0 1080 Z" fill="url(#SvgjsLinearGradient1284)"></path>
    <path d="M0,107.74284623519199C46.0317425069353,127.38926665112174,178.31320348451135,206.547169189586,276.1904550416118,225.6213687307705C374.0677065987123,244.69556827195504,503.2545340400087,192.55163847789595,587.2635093426029,222.1880434822991C671.2724846451971,251.82444848670224,704.5651196060614,364.65068615227466,780.2443068571769,403.43979875718946C855.9234941082923,442.22891136210427,940.0311499987953,432.95656312595804,1041.3386328492954,454.92271911178796C1142.6461156997955,476.88887509761787,1290.149100796477,507.49152773142276,1388.0892039601777,535.2367346721688C1486.0293071238784,562.981941612915,1540.3274524915291,590.7381802576654,1628.9792518314996,621.3939607562645C1717.63105117147,652.0497412548636,1871.4965419719165,702.8751748458469,1920,719.1714176637635L 1920 1080 L 0 1080 Z" fill="url(#SvgjsLinearGradient1285)"></path>
    <path d="M0,197.47904264193102C74.7755356104649,218.0422636375864,286.92268216952425,268.84632360340663,448.6532136627894,320.8583686158633C610.3837451560546,372.87041362831997,807.2774739536311,448.45694492829557,970.3831889595908,509.5513127166711C1133.4889039655507,570.6456805050466,1269.018035191813,635.1509060728587,1427.2875036985479,687.4245753461163C1585.5569722052828,739.6982446193739,1837.8812506164247,800.5652028545335,1920,823.1933283562169L 1920 1080 L 0 1080 Z" fill="url(#SvgjsLinearGradient1286)"></path>
</svg>