<svg class="canvas" viewBox="0 0 1920 1080" preserveAspectRatio="xMaxYMid slice"
    xmlns="http://www.w3.org/2000/svg" version="1.1"
    xmlns:xlink="http://www.w3.org/1999/xlink"
    xmlns:svgjs="http://svgjs.com/svgjs">
    <rect width="1920" height="1080" fill="hsl(62, 65%, 15%)"></rect>
    <defs>
        <linearGradient x1="0.5" y1="0" x2="0" y2="1" id="SvgjsLinearGradient1028">
            <stop stop-color="#eceec4" offset="0"></stop>
            <stop stop-color="#4dcb51" offset="0.1"></stop>
        </linearGradient>
        <linearGradient x1="0.5" y1="0" x2="0" y2="1" id="SvgjsLinearGradient1029">
            <stop stop-color="#eceec4" offset="0"></stop>
            <stop stop-color="#4dcb51" offset="0.22857142857142856"></stop>
        </linearGradient>
        <linearGradient x1="0.5" y1="0" x2="0" y2="1" id="SvgjsLinearGradient1030">
            <stop stop-color="#d3eec4" offset="0"></stop>
            <stop stop-color="#4dcb9d" offset="0.3571428571428571"></stop>
        </linearGradient>
        <linearGradient x1="0.5" y1="0" x2="0" y2="1" id="SvgjsLinearGradient1031">
            <stop stop-color="#f0f2c0" offset="0"></stop>
            <stop stop-color="#42d747" offset="0.48571428571428565"></stop>
        </linearGradient>
        <linearGradient x1="0.5" y1="0" x2="0" y2="1" id="SvgjsLinearGradient1032">
            <stop stop-color="#e6f2c0" offset="0"></stop>
            <stop stop-color="#42d764" offset="0.6142857142857142"></stop>
        </linearGradient>
        <linearGradient x1="0.5" y1="0" x2="0" y2="1" id="SvgjsLinearGradient1033">
            <stop stop-color="#e6f2c0" offset="0"></stop>
            <stop stop-color="#42d764" offset="0.7428571428571429"></stop>
        </linearGradient>
        <linearGradient x1="0.5" y1="0" x2="0" y2="1" id="SvgjsLinearGradient1034">
            <stop stop-color="#f2e9c0" offset="0"></stop>
            <stop stop-color="#5bd742" offset="0.8714285714285713"></stop>
        </linearGradient>
    </defs>
    <path d="M0,-496.8848786483439C63.433663721763196,-486.1777490612853,252.7043469702964,-475.28097730072807,380.6019823305792,-432.6421011259924C508.49961769086195,-390.0032249512567,639.6413471516286,-278.92007515344346,767.3858121616968,-241.05162159992963C895.130277171765,-203.18316804641577,1015.5825370601253,-229.72952564834725,1147.0687723909887,-205.43137980490923C1278.555007721852,-181.1332339614712,1427.4813528787085,-136.68716339872907,1556.303224146877,-95.2627465393015C1685.1250954150455,-53.838329679873944,1859.383870691146,20.052143369829846,1920,43.115121351656114L 1920 1080 L 0 1080 Z" fill="url(#SvgjsLinearGradient1028)"></path>
    <path d="M0,-401.3138414146689C82.23364040763128,-370.5484000922097,333.3853764852531,-260.6837072918617,493.4018424457877,-216.7211934799138C653.4183084063222,-172.75867966796588,806.3027501157413,-181.60189594872594,960.0987957632074,-137.53875854298138C1113.8948414106733,-93.47562113723683,1256.1945822911182,-0.7608076144509042,1416.1781163305836,47.657630954553554C1576.161650370049,96.076069523558,1836.0296860550973,135.41949921829675,1920,152.97187287104538L 1920 1080 L 0 1080 Z" fill="url(#SvgjsLinearGradient1029)"></path>
    <path d="M0,-265.4544801634938C46.396713534997474,-257.6626728368182,195.4022653423653,-242.04269784909292,278.38028120998484,-218.70363620344008C361.3582970776044,-195.36457455778725,420.56224903528584,-154.08057734857238,497.86809520571717,-125.42011028957688C575.1739413761485,-96.75964323058137,668.0862209801154,-62.32777674501938,742.2153582325727,-46.74083384946707C816.34449548503,-31.153890953914768,861.3527022025468,-61.310388879337864,942.6429187204612,-31.898452916263068C1023.9331352383757,-2.4865169531882714,1139.425368495919,89.4295219703755,1229.9566573400596,129.7307819289817C1320.4879461842002,170.03204188758792,1410.8551227907533,190.2431701636861,1485.830651785304,209.9091068353742C1560.806180779855,229.57504350706228,1607.4482732715815,232.19176169701686,1679.8098313073642,247.7264019591103C1752.171389343147,263.26104222120375,1879.968305217894,293.88519066646404,1920,303.1169484079348L 1920 1080 L 0 1080 Z" fill="url(#SvgjsLinearGradient1030)"></path>
    <path d="M0,-106.59181632053931C54.45551689534744,-93.88702433638984,214.52797288368237,-55.51761872977505,326.73310137208466,-30.363064415642526C438.93822986048696,-5.208510101510004,568.6283705054032,13.437048111518987,673.2307709304138,44.335509564255815C777.8331713554244,75.23397101699264,848.5906099459437,107.38414738473637,954.3475039221485,155.02770430077845C1060.1043978983532,202.67126121682054,1204.9187519013474,301.14973485899554,1307.7721347876422,330.1968510605083C1410.625517673937,359.2439672620211,1469.429823704525,304.96565559717243,1571.467801239918,329.31040150985496C1673.5057787753108,353.6551474225375,1861.9113002066529,451.7728390321455,1920,476.2653265366036L 1920 1080 L 0 1080 Z" fill="url(#SvgjsLinearGradient1031)"></path>
    <path d="M0,-26.409981381714466C43.6606558878693,-13.493708724832105,170.40033770299993,19.147664534210268,261.9639353272158,51.087654559579704C353.5275329514316,83.02764458494914,451.2527050846991,130.97854979064812,549.3815857452951,165.22995877050215C647.5104664058911,199.48136775035618,764.4081533214812,231.54397462645917,850.7372192907918,256.5961084387039C937.0662852601024,281.6482422509486,983.1243307873092,291.79299436429136,1067.3559815611588,315.54276164397044C1151.5876323350085,339.2925289236495,1254.877475133369,370.10021156837234,1356.1271239338894,399.0947121167783C1457.3767727344098,428.0892126651842,1580.8750616865968,460.90340432701186,1674.8538743642819,489.50976493440595C1768.832687041967,518.1161255418,1879.142312394047,557.1956906233532,1920,570.7328757611427L 1920 1080 L 0 1080 Z" fill="url(#SvgjsLinearGradient1032)"></path>
    <path d="M0,149.9366536180701C46.03517229740782,171.44227297906238,187.0424436495033,253.9054783788497,276.2110337844469,278.97036978402383C365.3796239193905,304.03526118919797,444.628435461384,270.8329576501303,535.0115408096616,300.3260020491149C625.3946461579392,329.81904644809947,716.693858714305,421.75394724903714,818.5096658741123,455.92863617793137C920.3254730339197,490.1033251068256,1054.8491939822727,477.4975593363015,1145.906383768506,505.37413562248025C1236.9635735547392,533.250711908659,1283.7060671329057,587.2123901804096,1364.8528045915114,623.1880938950038C1445.999542050117,659.1637976095981,1540.262275952059,698.1988360514396,1632.7868085201405,721.2283579100458C1725.311341088222,744.2578797686521,1872.1311347533567,754.6757471905422,1920,761.3652250466415L 1920 1080 L 0 1080 Z" fill="url(#SvgjsLinearGradient1033)"></path>
    <path d="M0,184.50429835260803C57.3087711045448,207.0170228806646,232.98073060090218,290.43542314666456,343.8526266272688,319.5806455209474C454.72452265363546,348.7258678952303,561.2105379294699,323.63214725308256,665.2313761582,359.3756325983051C769.2522143869301,395.11911794352767,871.4839436969867,492.0788773195683,967.9776559996496,534.0415575922829C1064.4713683023126,576.0042378649974,1135.0409543679273,585.3366701067207,1244.1936499741776,611.1517142345928C1353.3463455804279,636.9667583624648,1510.2594379661807,655.7540107207985,1622.8938296371512,688.9318223595154C1735.5282213081216,722.1096339982323,1870.4823049395252,790.0041237823307,1920,810.2185840668938L 1920 1080 L 0 1080 Z" fill="url(#SvgjsLinearGradient1034)"></path>
</svg>