<svg class="canvas" viewBox="0 0 1920 1080" preserveAspectRatio="xMaxYMid slice"
    xmlns="http://www.w3.org/2000/svg" version="1.1"
    xmlns:xlink="http://www.w3.org/1999/xlink"
    xmlns:svgjs="http://svgjs.com/svgjs">
    <rect width="1920" height="1080" fill="hsl(304, 65%, 15%)"></rect>
    <defs>
        <linearGradient x1="0.5" y1="0" x2="0" y2="1" id="SvgjsLinearGradient1035">
            <stop stop-color="#e8c4ee" offset="0"></stop>
            <stop stop-color="#cb4d5e" offset="0.1"></stop>
        </linearGradient>
        <linearGradient x1="0.5" y1="0" x2="0" y2="1" id="SvgjsLinearGradient1036">
            <stop stop-color="#e0c4ee" offset="0"></stop>
            <stop stop-color="#cb4d77" offset="0.22857142857142856"></stop>
        </linearGradient>
        <linearGradient x1="0.5" y1="0" x2="0" y2="1" id="SvgjsLinearGradient1037">
            <stop stop-color="#eec4eb" offset="0"></stop>
            <stop stop-color="#cb564d" offset="0.3571428571428571"></stop>
        </linearGradient>
        <linearGradient x1="0.5" y1="0" x2="0" y2="1" id="SvgjsLinearGradient1038">
            <stop stop-color="#f2c0da" offset="0"></stop>
            <stop stop-color="#d78742" offset="0.48571428571428565"></stop>
        </linearGradient>
        <linearGradient x1="0.5" y1="0" x2="0" y2="1" id="SvgjsLinearGradient1039">
            <stop stop-color="#f2c0ee" offset="0"></stop>
            <stop stop-color="#d74c42" offset="0.6142857142857142"></stop>
        </linearGradient>
        <linearGradient x1="0.5" y1="0" x2="0" y2="1" id="SvgjsLinearGradient1040">
            <stop stop-color="#e1c0f2" offset="0"></stop>
            <stop stop-color="#d74273" offset="0.7428571428571429"></stop>
        </linearGradient>
        <linearGradient x1="0.5" y1="0" x2="0" y2="1" id="SvgjsLinearGradient1041">
            <stop stop-color="#f2c0ee" offset="0"></stop>
            <stop stop-color="#d74c42" offset="0.8714285714285713"></stop>
        </linearGradient>
    </defs>
    <path d="M0,-547.9183848903963C55.975063229519606,-527.9176192315094,231.6169915747344,-456.92483680395134,335.85037937711763,-427.91379093707485C440.08376717950085,-398.90274507019836,523.4218496335743,-402.1347877264983,625.4003268142993,-373.8521096891373C727.3788039950243,-345.5694316517763,839.420833686685,-295.87367228547237,947.721242461468,-258.2177227129089C1056.021651236251,-220.56177314034542,1166.46766518423,-179.37287716540064,1275.2027794629973,-147.9164122537565C1383.9378937417646,-116.45994734211236,1492.665724711237,-92.81193780360407,1600.131928134071,-69.47893324304403C1707.5981315569047,-46.145928682483984,1866.6886546890119,-18.178476282504228,1920,-7.918384890396268L 1920 1080 L 0 1080 Z" fill="url(#SvgjsLinearGradient1035)"></path>
    <path d="M0,-398.83277524585947C81.43468088238627,-375.3642852422316,330.3638919043784,-311.80093309317755,488.6080852943177,-258.02183522409223C646.8522786842569,-204.24273735500688,799.222818911878,-130.2131887490374,949.4651603396354,-76.15818803134741C1099.7075017673928,-22.103187313657394,1228.3063272508011,27.706314570180815,1390.0621338608619,66.30816908204785C1551.8179404709226,104.9100235939149,1831.6770223101437,140.59547738022033,1920,155.45293903985484L 1920 1080 L 0 1080 Z" fill="url(#SvgjsLinearGradient1036)"></path>
    <path d="M0,-253.87941250172958C83.47709140044716,-234.64288666937216,337.0411365278883,-189.22355971490958,500.862548402683,-138.46025750758514C664.6839602774777,-87.6969553002607,819.3315261487621,4.600088492803479,982.928471248768,50.70040074221705C1146.525416348774,96.80071299163062,1326.2656308775129,94.14301343431595,1482.4442190027182,138.1416159888963C1638.6228071279236,182.14021854347664,1847.074036500453,285.26694938956524,1920,314.69201606969904L 1920 1080 L 0 1080 Z" fill="url(#SvgjsLinearGradient1037)"></path>
    <path d="M0,-142.18575330095632C36.8064433376044,-125.71893656652465,144.06833279244069,-66.70310194721688,220.83866002562638,-43.3848528943663C297.6089872588121,-20.06660384151572,374.65482654149304,-24.32744356609517,460.62196339911424,-2.2762589838528804C546.5891002567354,19.77492559838941,652.2757129292061,65.53859238050077,736.6414811713535,88.92225459908745C821.0072494135009,112.30591681767413,891.418962753176,120.35741588580896,966.8165728519987,138.02571432766717C1042.2141829508214,155.6940127695254,1112.1249575501088,163.85153507371538,1189.0271417642896,194.93204525023677C1265.9293259784704,226.01255542675815,1349.3378145248503,291.9891585570298,1428.229678137083,324.50877538679543C1507.1215417493158,357.0283922165611,1580.4166031271998,370.6893105339321,1662.3783234376858,390.0497462288306C1744.3400437481719,409.4101819237291,1877.0630539062809,432.23444900162724,1920,440.67138955618657L 1920 1080 L 0 1080 Z" fill="url(#SvgjsLinearGradient1038)"></path>
    <path d="M0,-74.86176145315844C47.772994582382076,-53.88969604511506,177.94476289877423,13.423883276991276,286.63796749429247,50.970630995101835C395.3311720898107,88.5173787132124,547.8445291806565,125.08066995683258,652.1592275731094,150.4187248555049C756.4739259655623,175.75677975417724,815.3614129985443,177.60778356538685,912.52615784901,202.9989603871358C1009.6909026994757,228.39013720888477,1124.5789305854437,259.21098129156394,1235.1476966759037,302.7657857859987C1345.7164627663637,346.3205902804334,1461.7967038377535,427.74190236979433,1575.9387543917696,464.3277873537443C1690.0808049457858,500.9136723376943,1862.656459065295,512.6222109670397,1920,522.2810956896988L 1920 1080 L 0 1080 Z" fill="url(#SvgjsLinearGradient1039)"></path>
    <path d="M0,151.6078694634648C41.617638769297336,165.502043325189,157.4119139299657,212.16762407859133,249.705832615784,234.97291263381004C341.9997513016023,257.7782011890287,456.18069899756733,251.18459964491703,553.7635121149099,288.439600794777C651.3463252322524,325.69460194463693,751.260010271169,426.40905998528734,835.2027113198392,458.50291953296977C919.1454123685094,490.5967790806522,964.8248960912172,465.45758812823493,1057.419718406931,481.00275808087156C1150.0145407226448,496.5479280335082,1295.0080376521173,521.3301529399158,1390.771645214122,551.7739392487895C1486.5352527761265,582.2177255576631,1543.7966379813129,628.4550589935726,1632.0013637789593,663.6654759341137C1720.2060895766058,698.8758928746548,1872.0002272964932,746.4746133990492,1920,763.0364408920362L 1920 1080 L 0 1080 Z" fill="url(#SvgjsLinearGradient1040)"></path>
    <path d="M0,223.0225453833292C65.43203932608803,243.07844154250733,266.6779768890173,303.91134478067136,392.59223595652816,343.35792233839794C518.5064950240389,382.8044998961245,623.1943335322169,414.7623506078452,755.485554405065,459.7020107296886C887.7767752779132,504.641670851532,1055.357422507556,570.7737156056229,1186.339561193617,612.9958830694583C1317.3216998796781,655.2180505332936,1419.1016467203679,673.7448575080081,1541.3783865214316,713.0350155127009C1663.6551263224953,752.3251735173936,1856.8963977535718,826.1198618334627,1920,848.736831097615L 1920 1080 L 0 1080 Z" fill="url(#SvgjsLinearGradient1041)"></path>
</svg>