<svg class="canvas" viewBox="0 0 1920 1080" preserveAspectRatio="xMaxYMid slice"
    xmlns="http://www.w3.org/2000/svg" version="1.1"
    xmlns:xlink="http://www.w3.org/1999/xlink"
    xmlns:svgjs="http://svgjs.com/svgjs">
    <rect width="1920" height="1080" fill="hsl(259, 65%, 15%)"></rect>
    <defs>
        <linearGradient x1="0.5" y1="0" x2="0" y2="1" id="SvgjsLinearGradient1042">
            <stop stop-color="#c9c4ee" offset="0"></stop>
            <stop stop-color="#cb4dbd" offset="0.1"></stop>
        </linearGradient>
        <linearGradient x1="0.5" y1="0" x2="0" y2="1" id="SvgjsLinearGradient1043">
            <stop stop-color="#c4c7ee" offset="0"></stop>
            <stop stop-color="#c14dcb" offset="0.22857142857142856"></stop>
        </linearGradient>
        <linearGradient x1="0.5" y1="0" x2="0" y2="1" id="SvgjsLinearGradient1044">
            <stop stop-color="#d1c4ee" offset="0"></stop>
            <stop stop-color="#cb4da3" offset="0.3571428571428571"></stop>
        </linearGradient>
        <linearGradient x1="0.5" y1="0" x2="0" y2="1" id="SvgjsLinearGradient1045">
            <stop stop-color="#d0c0f2" offset="0"></stop>
            <stop stop-color="#d742a8" offset="0.48571428571428565"></stop>
        </linearGradient>
        <linearGradient x1="0.5" y1="0" x2="0" y2="1" id="SvgjsLinearGradient1046">
            <stop stop-color="#d0c0f2" offset="0"></stop>
            <stop stop-color="#d742a8" offset="0.6142857142857142"></stop>
        </linearGradient>
        <linearGradient x1="0.5" y1="0" x2="0" y2="1" id="SvgjsLinearGradient1047">
            <stop stop-color="#c0cef2" offset="0"></stop>
            <stop stop-color="#ad42d7" offset="0.7428571428571429"></stop>
        </linearGradient>
        <linearGradient x1="0.5" y1="0" x2="0" y2="1" id="SvgjsLinearGradient1048">
            <stop stop-color="#c0cef2" offset="0"></stop>
            <stop stop-color="#ad42d7" offset="0.8714285714285713"></stop>
        </linearGradient>
    </defs>
    <path d="M0,-558.0244893105696C49.43945090366274,-549.960436479108,206.48218685268068,-531.9918305074746,296.63670542197644,-509.6401723218001C386.7912239912722,-487.2885141361257,460.1419266179767,-453.1357051043214,540.9271114157746,-423.91454019652303C621.7122962135725,-394.69337528872467,691.5476172056028,-358.18607068319017,781.3478142087637,-334.31318287500994C871.1480112119245,-310.4402950668297,990.3570951082445,-300.2971016943177,1079.7282934347397,-280.67721334744164C1169.099491761235,-261.0573250005656,1225.1227936996856,-254.87761476715121,1317.5750041677352,-216.5938527937535C1410.0272146357847,-178.3100908203558,1534.0373902709935,-84.06953542091938,1634.4415562430377,-50.97464150705541C1734.8457222150819,-17.879747593191432,1872.4069260405063,-23.51618134331728,1920,-18.024489310569656L 1920 1080 L 0 1080 Z" fill="url(#SvgjsLinearGradient1042)"></path>
    <path d="M0,-401.54523776759396C52.93246867828597,-387.58530889436946,211.5364121186878,-341.8095275349651,317.59481206971583,-317.7856645282469C423.65321202074387,-293.7618015215287,533.342217401836,-297.38081242797944,636.3503997061681,-257.4020597272848C739.3585820105002,-217.4233070265901,837.4574718769964,-110.1319264038018,935.6439058957086,-77.91314832407886C1033.8303399144208,-45.69437024435592,1107.845706641033,-81.83665793688294,1225.4690038184415,-64.08939124894717C1343.0923009958499,-46.34212456101138,1525.6285229298992,-7.567859490975408,1641.383688960159,28.570451803535846C1757.1388549904186,64.7087630980471,1873.5639481600265,132.04547239902294,1920,152.74047651812035L 1920 1080 L 0 1080 Z" fill="url(#SvgjsLinearGradient1043)"></path>
    <path d="M0,-264.737420605726C69.79665506226081,-246.08277726769128,290.324763676607,-183.71257498200438,418.77993037356487,-152.80956057751763C547.2350970705227,-121.90654617303089,645.2301435928757,-109.55253377797939,770.7310001817472,-79.31933417880556C896.2318567706186,-49.08613457963173,1046.8693861623344,-24.236709384137313,1171.7850699067938,28.589637017525334C1296.700753651253,81.41598341918798,1395.5226142996357,191.76468240647412,1520.2251026485035,237.63874423117034C1644.9275909973712,283.5128060558665,1853.3708504414171,292.80146400994715,1920,303.83400796570254L 1920 1080 L 0 1080 Z" fill="url(#SvgjsLinearGradient1044)"></path>
    <path d="M0,-129.80614547296088C68.08979730912395,-110.21316221848134,277.74718076585935,-55.62141302613734,408.5387838547437,-12.248245946083685C539.3303869436281,31.12492113396997,661.4095816921617,97.45526523497969,784.7496185333061,130.43285700736106C908.0896553744506,163.41044877974244,1022.831405744283,157.05867459682088,1148.5790049016105,185.61730468820463C1274.3266040589378,214.17593477958837,1410.6650476275393,257.2123554396673,1539.235213477271,301.78463755566355C1667.8053793270026,346.3569196716598,1856.5392022462117,427.83993741276225,1920,453.050997384182L 1920 1080 L 0 1080 Z" fill="url(#SvgjsLinearGradient1045)"></path>
    <path d="M0,-59.40185732359802C42.73964656705126,-51.7421217246681,178.68183336686297,-41.3958645497512,256.43787940230754,-13.443443730018497C334.1939254377521,14.508977089714207,394.6756734915421,83.64481780257758,466.5362762126673,108.3126675947982C538.3968789337926,132.9805173870188,602.7188115017066,110.4036230900765,687.6014957290587,134.56365502330522C772.4841799564108,158.72368695653392,892.4140223435102,229.9203263528485,975.8323815767803,253.27285919417054C1059.2507408100505,276.62539203549255,1109.5085075015677,255.20716735088007,1188.1116511286793,274.67885207123743C1266.714794755791,294.1505367915948,1370.2103125189537,332.76825845088877,1447.4512433394507,370.1029675163147C1524.6921741599476,407.4376765817407,1572.7991099415692,470.74743441330224,1651.5572360516608,498.687106463793C1730.3153621617523,526.6267785142837,1875.2595393419435,531.2320175933481,1920,537.7409998192592L 1920 1080 L 0 1080 Z" fill="url(#SvgjsLinearGradient1046)"></path>
    <path d="M0,80.74009532366C63.04101363162115,95.4428054844394,263.85208180516986,134.50676217817042,378.2460817897269,168.9563562883364C492.6400817742839,203.40595039850237,585.5958322036146,253.6189611296744,686.3639999073421,287.4376599846559C787.1321676110696,321.2563588396374,879.2248097431719,346.3607428426747,982.8550880120918,371.8685494182255C1086.4853662810115,397.37635599377626,1204.6552037918145,407.8290749771708,1308.1456695208608,440.48449943796066C1411.636135249907,473.1399238987505,1501.822160639846,525.8537349639195,1603.7978823863693,567.8010961829646C1705.7736041328926,609.7484574020096,1867.2996470643948,671.4407383240202,1920,692.1686667522314L 1920 1080 L 0 1080 Z" fill="url(#SvgjsLinearGradient1047)"></path>
    <path d="M0,226.52398704154177C74.04831034945832,251.9718868262885,286.25561004265,321.49111528373436,444.2898620967499,379.21138575002215C602.3241141508498,436.93165621630993,789.3576943834286,526.995293053224,948.2055123245997,572.8456098392684C1107.0533302657707,618.6959266253127,1235.4110217978762,607.7478426468615,1397.3767697437763,654.313286466288C1559.3425176896765,700.8787302857145,1832.8961282906293,819.2507750409043,1920,852.2382727558276L 1920 1080 L 0 1080 Z" fill="url(#SvgjsLinearGradient1048)"></path>
</svg>