<svg class="canvas" viewBox="0 0 1920 1080" preserveAspectRatio="xMaxYMid slice"
    xmlns="http://www.w3.org/2000/svg" version="1.1"
    xmlns:xlink="http://www.w3.org/1999/xlink"
    xmlns:svgjs="http://svgjs.com/svgjs">
    <rect width="1920" height="1080" fill="hsl(103, 65%, 15%)"></rect>
    <defs>
        <linearGradient x1="0.5" y1="0" x2="0" y2="1" id="SvgjsLinearGradient1056">
            <stop stop-color="#eeeac4" offset="0"></stop>
            <stop stop-color="#58cb4d" offset="0.1"></stop>
        </linearGradient>
        <linearGradient x1="0.5" y1="0" x2="0" y2="1" id="SvgjsLinearGradient1057">
            <stop stop-color="#eeeac4" offset="0"></stop>
            <stop stop-color="#58cb4d" offset="0.22857142857142856"></stop>
        </linearGradient>
        <linearGradient x1="0.5" y1="0" x2="0" y2="1" id="SvgjsLinearGradient1058">
            <stop stop-color="#e0eec4" offset="0"></stop>
            <stop stop-color="#4dcb75" offset="0.3571428571428571"></stop>
        </linearGradient>
        <linearGradient x1="0.5" y1="0" x2="0" y2="1" id="SvgjsLinearGradient1059">
            <stop stop-color="#d8f2c0" offset="0"></stop>
            <stop stop-color="#42d78f" offset="0.48571428571428565"></stop>
        </linearGradient>
        <linearGradient x1="0.5" y1="0" x2="0" y2="1" id="SvgjsLinearGradient1060">
            <stop stop-color="#f2edc0" offset="0"></stop>
            <stop stop-color="#4ed742" offset="0.6142857142857142"></stop>
        </linearGradient>
        <linearGradient x1="0.5" y1="0" x2="0" y2="1" id="SvgjsLinearGradient1061">
            <stop stop-color="#f2edc0" offset="0"></stop>
            <stop stop-color="#4ed742" offset="0.7428571428571429"></stop>
        </linearGradient>
        <linearGradient x1="0.5" y1="0" x2="0" y2="1" id="SvgjsLinearGradient1062">
            <stop stop-color="#d8f2c0" offset="0"></stop>
            <stop stop-color="#42d78f" offset="0.8714285714285713"></stop>
        </linearGradient>
    </defs>
    <path d="M0,-505.91052988093907C31.052313478645786,-490.8967711086775,101.99452656300322,-434.8237705223069,186.31388087187472,-415.8279772473696C270.6332351807462,-396.83218397243223,420.5163361940352,-418.6415835486704,505.916125853229,-391.93577023131496C591.3159155124227,-365.22995691395954,618.2637440920439,-289.07651824294,698.7126188270374,-255.59309734323713C779.161493562031,-222.10967644353428,909.7097823226671,-209.37596629641936,988.6093742631903,-191.03524483309778C1067.5089662037135,-172.6945233697762,1090.8308419331704,-169.23903159120832,1172.1101704701762,-145.54876856330768C1253.389499007182,-121.85850553540703,1382.7349634967327,-68.28982581337436,1476.285345485225,-48.89366666569389C1569.8357274737173,-29.497507518013425,1659.4600199820015,-43.00233647468401,1733.4124624011306,-29.171813677224876C1807.3649048202597,-15.341290879765742,1888.902077066855,23.54592281967995,1920,34.08947011906092L 1920 1080 L 0 1080 Z" fill="url(#SvgjsLinearGradient1056)" style="transform: translate(0px, 0px);"></path>
    <path d="M0,-448.6828534093027C51.39179162426067,-439.9366447916576,212.60464797863517,-422.15352854036576,308.35074974556403,-396.20560170343214C404.0968515124929,-370.2576748664985,488.03766668551566,-322.92591863434,574.4766106015733,-292.99529238770106C660.9155545176309,-263.0646661410621,733.8784616429108,-238.60925864595305,826.9844132419098,-216.62184422359843C920.0903648409088,-194.6344298012438,1040.1389381486415,-190.91552142708187,1133.1123201955675,-161.0708058535734C1226.0857022424934,-131.22609028006494,1301.5197006719409,-69.8630730009898,1384.8247055234656,-37.55355078254758C1468.1297103749903,-5.244028564105356,1543.7464668919592,8.9269255139201,1632.942349304715,32.786327457079956C1722.1382317174707,56.645729400239816,1872.1570582174525,93.46677197318964,1920,105.60286087641157L 1920 1080 L 0 1080 Z" fill="url(#SvgjsLinearGradient1057)" style="transform: translate(10.2773px, 13.7741px);"></path>
    <path d="M0,-325.2419480089036C62.015631019729405,-315.3897728361372,266.7618485339936,-305.84835499724227,372.09378611837644,-266.12889697230503C477.4257237027593,-226.4094389473678,525.404594771325,-120.57055092921017,631.991625506297,-86.92519985928021C738.5786562412691,-53.279848789350254,901.5076230025008,-85.01219141443889,1011.6159705282084,-64.25679055272528C1121.724318053916,-43.50138969101167,1192.4910247450546,6.5930154333959194,1292.6417106605422,37.607205311001465C1392.79239657603,68.62139518860701,1507.9603711312245,87.54130283765409,1612.5200860211341,121.828348712908C1717.0798009110438,156.1153945881619,1868.753347670189,223.07929192092217,1920,243.329480562525L 1920 1080 L 0 1080 Z" fill="url(#SvgjsLinearGradient1058)" style="transform: translate(20.5547px, 27.5482px);"></path>
    <path d="M0,-163.7403731563465C40.268564166834345,-142.09661420469644,154.63803308205547,-56.53632091822376,241.61138500100606,-33.87781944644612C328.58473691995664,-11.219317974668478,418.3027904936885,-39.65456167251905,521.8401115137034,-27.789364325680637C625.3774325337182,-15.924166978842223,771.5573193368624,-2.014199955286905,862.8353111210952,37.313364634584374C954.1133029053279,76.64092922445565,980.4948798755263,174.83386206655578,1069.5080622191,208.17602321354704C1158.521244562674,241.5181843605383,1296.4907791669566,212.10471517401845,1396.9144051825383,237.3663315165319C1497.33803119812,262.6279478590453,1584.8688858430141,329.45398157125027,1672.049818312591,359.7457212686277C1759.230750782168,390.0374609660051,1878.6749697187652,409.2215949621016,1920,419.1167697007964L 1920 1080 L 0 1080 Z" fill="url(#SvgjsLinearGradient1059)" style="transform: translate(30.832px, 41.3223px);"></path>
    <path d="M0,-30.360295553690797C78.83939341248283,-1.0428565300499386,312.59410846662195,100.15007783186803,473.03636047489704,145.54433858815435C633.4786124831721,190.93859934444066,806.7047847355543,198.41041818450975,962.6535120496507,242.0052689840271C1118.602239363747,285.60011978354447,1249.1709763677504,352.98389461773525,1408.7287243594753,407.11344338525845C1568.2864723512002,461.24299215278165,1834.788120726579,540.1710418885151,1920,566.7825615891664L 1920 1080 L 0 1080 Z" fill="url(#SvgjsLinearGradient1060)" style="transform: translate(41.1094px, 55.0964px);"></path>
    <path d="M0,139.49651772773623C65.26275779987442,153.7291975768563,255.20306637014838,175.9139766274895,391.57654679924656,224.89259682245668C527.9500272283448,273.8712170174239,691.6331231401706,390.19416948045864,818.2408825745891,433.36823889753947C944.8486420090077,476.5423083146203,1027.0404338111637,453.5276640566716,1151.223103405758,483.9370133249415C1275.4057730003522,514.3463625932114,1435.207417376447,571.3263218685979,1563.336900142154,615.8243345071589C1691.466382907861,660.32234714572,1860.5561500236922,728.4082967147829,1920,750.9250891563076L 1920 1080 L 0 1080 Z" fill="url(#SvgjsLinearGradient1061)" style="transform: translate(51.3867px, 68.8705px);"></path>
    <path d="M0,245.02425989204934C82.24093300626234,269.2236769038551,339.22538328755707,343.2604353274656,493.44559803757403,390.22076196288407C647.665812787591,437.18108859830255,765.7379423589396,468.8650384677052,925.3212885001019,526.7862197045602C1084.9046346412642,584.7074009414151,1285.1658896345652,680.4224617337179,1450.9456748845482,737.7478493840138C1616.7254601345312,795.0732370343096,1841.8242791474247,848.5734295692816,1920,870.7385456063352L 1920 1080 L 0 1080 Z" fill="url(#SvgjsLinearGradient1062)" style="transform: translate(61.6641px, 82.6446px);"></path>
</svg>